<svg width="24" height="25" viewBox="0 0 24 25" fill="none" xmlns="http://www.w3.org/2000/svg">
<path d="M18 21.9031H4.5C4.10218 21.9031 3.72064 21.7451 3.43934 21.4637C3.15804 21.1824 3 20.8009 3 20.4031H19.5C19.5 20.8009 19.342 21.1824 19.0607 21.4637C18.7794 21.7451 18.3978 21.9031 18 21.9031ZM19.581 5.40309H4.875C4.62972 5.40151 4.38654 5.44838 4.15941 5.54101C3.93229 5.63365 3.7257 5.77022 3.55149 5.9429C3.37728 6.11558 3.23888 6.32096 3.14425 6.54725C3.04961 6.77355 3.00059 7.0163 3 7.26159V11.3866C3.00951 13.3782 3.80706 15.2851 5.21834 16.6905C6.62961 18.0959 8.53983 18.8854 10.5315 18.8866C11.4246 18.8769 12.3083 18.703 13.1385 18.3736L12.2385 17.1166C11.686 17.2908 11.1107 17.3818 10.5315 17.3866C8.93753 17.3858 7.40861 16.7544 6.27855 15.6303C5.1485 14.5061 4.50911 12.9805 4.5 11.3866V7.26159C4.50039 7.16225 4.54003 7.0671 4.61027 6.99686C4.68051 6.92662 4.77567 6.88698 4.875 6.88659H19.575C19.8308 6.87943 20.0854 6.92362 20.3237 7.01654C20.5621 7.10947 20.7795 7.24925 20.9629 7.42762C21.1463 7.60599 21.2921 7.81933 21.3917 8.05502C21.4913 8.29072 21.5426 8.54398 21.5426 8.79984C21.5426 9.0557 21.4913 9.30896 21.3917 9.54465C21.2921 9.78034 21.1463 9.99368 20.9629 10.1721C20.7795 10.3504 20.5621 10.4902 20.3237 10.5831C20.0854 10.6761 19.8308 10.7203 19.575 10.7131H19.5V12.2131H19.581C20.4841 12.2131 21.3501 11.8543 21.9887 11.2158C22.6273 10.5772 22.986 9.71115 22.986 8.80809C22.986 7.90503 22.6273 7.03895 21.9887 6.40039C21.3501 5.76183 20.4841 5.40309 19.581 5.40309ZM16.131 8.40309V11.3401C16.1323 12.2766 15.8991 13.1985 15.4526 14.0218C15.0062 14.845 14.3607 15.5434 13.575 16.0531L13.3995 16.1671L14.712 17.9986L14.961 17.8351C16.0147 17.1111 16.8762 16.1413 17.471 15.0097C18.0659 13.878 18.3761 12.6185 18.375 11.3401V8.40309H16.131Z" fill="#656565"/>
</svg>
