<svg width="129" height="129" viewBox="0 0 129 129" fill="none" xmlns="http://www.w3.org/2000/svg">
<path d="M118.225 128.978H11.5617C5.69524 128.978 0.895386 124.178 0.895386 118.311V11.6446C0.895386 5.77791 5.69524 0.977905 11.5617 0.977905H118.225C124.092 0.977905 128.891 5.77791 128.891 11.6446V118.311C128.891 124.178 124.092 128.978 118.225 128.978Z" fill="white"/>
<g clip-path="url(#clip0)">
<path d="M88.1526 107.132H20.9338C16.4525 107.132 13.465 104.144 13.465 99.6632H95.6213C95.6213 103.398 92.6338 107.132 88.1526 107.132Z" fill="#505050"/>
<path d="M99.3557 28.0128H88.1526V35.4816H98.6088H100.103C105.331 35.4816 109.812 39.9628 109.812 45.191C109.812 50.4191 105.331 54.9003 100.103 54.9003H97.862V62.3691H100.103C109.812 62.3691 117.281 54.9003 117.281 45.191C117.281 35.4816 109.065 28.0128 99.3557 28.0128Z" fill="#505050"/>
<path d="M63.5057 86.2691C61.265 87.016 57.5307 87.7628 54.5432 87.7628C38.1119 87.7628 24.6682 74.3191 24.6682 57.8878V36.9753C24.6682 36.2284 25.415 35.4816 26.9088 35.4816H95.6213V28.0128H26.9088C21.6807 28.0128 17.1994 32.4941 17.1994 36.9753V57.8878C17.1994 78.8003 33.6307 95.2316 54.5432 95.2316C59.7713 95.2316 64.2525 93.7378 68.7338 92.2441L63.5057 86.2691Z" fill="#505050"/>
<path fill-rule="evenodd" clip-rule="evenodd" d="M91.8869 57.8877V40.2615H82.1278V57.8877C82.1278 67.9437 77.1072 76.5458 69.2144 81.5685L68.1711 82.2324L74.0558 90.0788L74.9623 89.4512C84.9475 82.5384 91.8869 70.9991 91.8869 57.8877Z" fill="#C50B17"/>
</g>
<defs>
<clipPath id="clip0">
<rect width="105.359" height="81.3098" fill="white" transform="translate(13.359 27.7587)"/>
</clipPath>
</defs>
</svg>
