<svg width="16" height="16" viewBox="0 0 16 16" fill="none" xmlns="http://www.w3.org/2000/svg">
<g clip-path="url(#clip0_3993_139147)">
<path fill-rule="evenodd" clip-rule="evenodd" d="M9.9957 9.40798C9.9966 9.35083 9.99761 9.29542 9.99917 9.2422V3H8.03287V9.08614C8.03287 9.77275 7.88722 10.293 7.59592 10.6467C7.30462 10.9796 6.89887 11.1461 6.37868 11.1461C5.98335 11.1461 5.61922 11.0628 5.2863 10.8964C4.95338 10.7299 4.67248 10.501 4.44361 10.2097L3.32001 11.6454C3.69454 12.1032 4.1523 12.4569 4.69329 12.7066C5.25509 12.9355 5.81221 13 6.44111 13C7.07001 13 7.41905 12.9667 7.87682 12.8002C8.28737 12.6323 8.65608 12.3974 8.9829 12.0956L8 11.6368V10.3632L9.94939 9.45337L9.9957 9.40798Z" fill="#CC3E44"/>
<path d="M12 8L12.7128 9.52724L13.0889 9.91106L13.4728 10.2872L15 11L13.4728 11.7128L13.0889 12.0889L12.7128 12.4728L12 14L11.2872 12.4728L10.9111 12.0889L10.5272 11.7128L9 11L10.5272 10.2872L10.9111 9.91106L11.2872 9.52725L12 8Z" fill="#FFCC00"/>
<path d="M15.0834 12.9166L14.5 12L13.9166 12.9166L13 13.5L13.9166 14.0834L14.5 15L15.0834 14.0834L16 13.5L15.0834 12.9166Z" fill="#FFCC00"/>
</g>
<defs>
<clipPath id="clip0_3993_139147">
<rect width="16" height="16" fill="white"/>
</clipPath>
</defs>
</svg>
