<svg width="66" height="67" viewBox="0 0 66 67" fill="none" xmlns="http://www.w3.org/2000/svg">
<path d="M25.4 46.925H28.7L50.075 25.55L46.775 22.25L27.05 41.975L18.05 32.975L14.75 36.275L25.4 46.925ZM36.35 0.649998C39.95 0.899998 43.5 1.9 47 3.65C50.3 5.25 53.3 7.375 56 10.025C62.25 16.775 65.375 24.75 65.375 33.95C65.375 37.65 64.7 41.275 63.35 44.825C62.1 48.225 60.275 51.475 57.875 54.575C55.475 57.475 52.7 59.875 49.55 61.775C46.25 63.775 42.775 65.125 39.125 65.825C35.275 66.575 31.575 66.675 28.025 66.125C24.275 65.575 20.8 64.4 17.6 62.6C14.25 60.65 11.325 58.3 8.825 55.55C6.375 52.75 4.425 49.6 2.975 46.1C1.575 42.6 0.775 38.925 0.575 35.075C0.425 31.225 0.925 27.575 2.075 24.125C4.525 16.325 8.9 10.375 15.2 6.275C18.2 4.225 21.525 2.725 25.175 1.775C28.825 0.824997 32.55 0.449998 36.35 0.649998ZM38.675 61.175C41.775 60.425 44.65 59.25 47.3 57.65C50.1 55.95 52.525 53.825 54.575 51.275C56.575 48.575 58.05 45.8 59 42.95C60.05 39.8 60.45 36.65 60.2 33.5C60.2 29.7 59.5 26.025 58.1 22.475C56.75 18.925 54.8 15.875 52.25 13.325C47.4 8.475 41.775 5.825 35.375 5.375C32.225 5.125 29.15 5.375 26.15 6.12499C22.9 6.925 20.025 8.225 17.525 10.025C12.175 13.925 8.6 19.1 6.8 25.55C5.8 28.7 5.375 31.825 5.525 34.925C5.625 38.225 6.35 41.35 7.7 44.3C10.55 50.4 14.775 55.075 20.375 58.325C23.175 59.975 26.15 61.05 29.3 61.55C32.45 62 35.575 61.875 38.675 61.175Z" fill="#007ACC"/>
</svg>
