<svg width="570" height="560" viewBox="0 0 570 560" fill="none" xmlns="http://www.w3.org/2000/svg">
  <g>
    <g>
      <g>
        <g clip-path="url(#clip0_4124_177515)">
          <g>
            <rect width="473" height="35" transform="translate(48.374)" fill="var(--vscode-editorGroupHeader-tabsBackground, #2B2B2B)" />
            <g>
              <rect width="123" height="35" transform="translate(48.374)" fill="var(--vscode-editorPane-background, #1F1F1F)" />
              <g clip-path="url(#clip1_4124_177515)">
                <path d="M71.373 18.7422C71.3605 19.1667 71.3834 19.7306 71.2169 20.2091C71.0713 20.6877 70.8216 21.1142 70.4678 21.4887C70.1142 21.8425 69.7084 22.113 69.2507 22.3002C68.7929 22.4667 68.4438 22.5 67.8149 22.5C67.186 22.5 66.6289 22.4355 66.0671 22.2066C65.5261 21.9569 65.0684 21.6032 64.6938 21.1454L65.8174 19.7097C66.0463 20.001 66.3272 20.2299 66.6601 20.3964C66.9931 20.5628 67.3572 20.6461 67.7525 20.6461C68.2727 20.6461 68.6785 20.4796 68.9698 20.1467C69.2611 19.793 69.4067 19.2728 69.4067 18.5861V12.5H71.373V18.7422Z" fill="var(--vscode-terminal-ansiRed, #CC3E44)" />
              </g>
              <rect opacity="0.16" x="80.374" y="14" width="79" height="7" rx="3.5" fill="var(--vscode-breadcrumb-foreground, #CCCCCC)" />
            </g>
          </g>
          <g filter="url(#filter0_d_4124_177515)">
            <rect x="38.75" y="32" width="492" height="196" rx="2" fill="var(--vscode-breadcrumb-background, #1F1F1F)" />
            <g>
              <rect x="74.5068" y="75" width="65.3067" height="8" rx="4" fill="var(--vscode-activityBarBadge-background, #0078D4)" />
              <path d="M146.134 79C146.134 76.7909 147.925 75 150.134 75H193.16C195.37 75 197.16 76.7909 197.16 79C197.16 81.2091 195.37 83 193.16 83H150.134C147.925 83 146.134 81.2091 146.134 79Z" fill="var(--vscode-gitDecoration-modifiedResourceForeground, #E2C08D)" />
              <rect x="98.874" y="95" width="66" height="8" rx="4" fill="var(--vscode-activityBarBadge-background, #0078D4)" />
              <rect x="74.874" y="115" width="71" height="8" rx="4" fill="var(--vscode-activityBarBadge-background, #0078D4)" />
              <path d="M180.894 98C180.894 95.7909 182.684 94 184.894 94H257.987C260.196 94 261.987 95.7909 261.987 98C261.987 100.209 260.196 102 257.987 102H184.894C182.684 102 180.894 100.209 180.894 98Z" fill="var(--vscode-gitDecoration-conflictingResourceForeground, #E4676B)" />
              <rect x="74.874" y="146" width="37" height="8" rx="4" fill="var(--vscode-activityBarBadge-background, #0078D4)" />
              <rect x="117.874" y="146" width="47" height="8" rx="4" fill="var(--vscode-gitDecoration-modifiedResourceForeground, #E2C08D)" />
            </g>
          </g>
          <g clip-path="url(#clip2_4124_177515)">
            <g filter="url(#filter1_d_4124_177515)">
              <rect x="258" y="38" width="214" height="206" rx="2" fill="var(--vscode-menu-background, #1F1F1F)" />
              <rect x="258.5" y="38.5" width="213" height="205" rx="1.5" stroke="var(--vscode-menu-border, #454545)" />
              <g opacity="0.6">
                <path opacity="0.16" d="M285 59C285 57.3431 286.343 56 288 56H303C304.657 56 306 57.3431 306 59C306 60.6569 304.657 62 303 62H288C286.343 62 285 60.6569 285 59Z" fill="var(--vscode-menu-foreground, #CCCCCC)" />
              </g>
              <g opacity="0.6">
                <path opacity="0.16" d="M285 86C285 84.3431 286.343 83 288 83H352C353.657 83 355 84.3431 355 86C355 87.6569 353.657 89 352 89H288C286.343 89 285 87.6569 285 86Z" fill="var(--vscode-menu-foreground, #CCCCCC)" />
              </g>
              <g opacity="0.6">
                <path opacity="0.16" d="M285 113C285 111.343 286.343 110 288 110H393C394.657 110 396 111.343 396 113C396 114.657 394.657 116 393 116H288C286.343 116 285 114.657 285 113Z" fill="var(--vscode-menu-foreground, #CCCCCC)" />
              </g>
              <g>
                <rect width="214" height="23" transform="translate(258 127)" fill="var(--vscode-menu-selectionBackground, #0078D4)" />
                <path d="M287.571 140.477V144H286.149V134.84H289.773C291.621 134.84 292.808 135.932 292.808 137.64C292.808 138.877 292.147 139.88 291.03 140.255L293.087 144H291.443L289.577 140.477H287.571ZM287.571 136.034V139.309H289.615C290.713 139.309 291.348 138.719 291.348 137.671C291.348 136.649 290.675 136.034 289.577 136.034H287.571ZM299.003 142.153H300.317C300.019 143.372 298.901 144.133 297.321 144.133C295.34 144.133 294.128 142.769 294.128 140.566C294.128 138.376 295.366 136.973 297.314 136.973C299.238 136.973 300.399 138.287 300.399 140.445V140.915H295.518V140.979C295.562 142.229 296.267 143.016 297.359 143.016C298.184 143.016 298.749 142.711 299.003 142.153ZM297.308 138.084C296.299 138.084 295.594 138.82 295.518 139.931H299.009C298.978 138.814 298.317 138.084 297.308 138.084ZM302.526 144V138.217H301.39V137.125H302.526V136.383C302.526 135.012 303.224 134.339 304.659 134.339C304.97 134.339 305.236 134.364 305.471 134.402V135.431C305.344 135.412 305.16 135.399 304.944 135.399C304.183 135.399 303.872 135.748 303.872 136.446V137.125H305.414V138.217H303.891V144H302.526ZM308.67 144.114C307.337 144.114 306.366 143.314 306.366 142.058C306.366 140.82 307.293 140.103 308.937 140.001L310.81 139.887V139.284C310.81 138.528 310.327 138.103 309.394 138.103C308.632 138.103 308.105 138.389 307.953 138.89H306.633C306.772 137.729 307.89 136.973 309.458 136.973C311.19 136.973 312.168 137.836 312.168 139.284V144H310.854V143.022H310.746C310.333 143.721 309.578 144.114 308.67 144.114ZM309.02 143.016C310.048 143.016 310.81 142.343 310.81 141.455V140.858L309.121 140.972C308.169 141.036 307.737 141.372 307.737 142C307.737 142.642 308.277 143.016 309.02 143.016ZM319.963 139.322H318.636C318.478 138.649 317.919 138.135 317.005 138.135C315.862 138.135 315.164 139.036 315.164 140.528C315.164 142.051 315.869 142.972 317.005 142.972C317.868 142.972 318.458 142.565 318.636 141.816H319.963C319.785 143.175 318.719 144.133 317.011 144.133C314.999 144.133 313.768 142.762 313.768 140.528C313.768 138.338 314.993 136.973 317.005 136.973C318.738 136.973 319.785 137.982 319.963 139.322ZM322.108 135.367H323.473V137.125H324.971V138.217H323.473V141.854C323.473 142.597 323.771 142.921 324.451 142.921C324.66 142.921 324.781 142.908 324.971 142.889V143.975C324.749 144.013 324.495 144.044 324.229 144.044C322.711 144.044 322.108 143.511 322.108 142.185V138.217H321.01V137.125H322.108V135.367ZM329.421 144.133C327.396 144.133 326.158 142.781 326.158 140.553C326.158 138.332 327.402 136.973 329.421 136.973C331.433 136.973 332.677 138.325 332.677 140.553C332.677 142.781 331.439 144.133 329.421 144.133ZM329.421 142.972C330.602 142.972 331.274 142.083 331.274 140.553C331.274 139.017 330.602 138.128 329.421 138.128C328.234 138.128 327.567 139.017 327.567 140.553C327.567 142.089 328.234 142.972 329.421 142.972ZM334.321 144V137.106H335.635V138.154H335.737C335.934 137.475 336.702 136.986 337.603 136.986C337.806 136.986 338.066 137.005 338.212 137.037V138.319C338.098 138.287 337.692 138.243 337.451 138.243C336.416 138.243 335.686 138.909 335.686 139.88V144H334.321ZM339.66 144.095C339.126 144.095 338.727 143.695 338.727 143.181C338.727 142.667 339.126 142.267 339.66 142.267C340.199 142.267 340.593 142.667 340.593 143.181C340.593 143.695 340.199 144.095 339.66 144.095ZM343.76 144.095C343.227 144.095 342.827 143.695 342.827 143.181C342.827 142.667 343.227 142.267 343.76 142.267C344.3 142.267 344.693 142.667 344.693 143.181C344.693 143.695 344.3 144.095 343.76 144.095ZM347.861 144.095C347.328 144.095 346.928 143.695 346.928 143.181C346.928 142.667 347.328 142.267 347.861 142.267C348.4 142.267 348.794 142.667 348.794 143.181C348.794 143.695 348.4 144.095 347.861 144.095Z" fill="var(--vscode-menu-selectionForeground, #FFFFFF)" />
              </g>
              <g opacity="0.6">
                <path d="M285.717 168.556H287.126C287.247 169.445 288.098 170.01 289.323 170.01C290.465 170.01 291.303 169.407 291.303 168.569C291.303 167.852 290.77 167.407 289.558 167.115L288.377 166.83C286.72 166.43 285.965 165.643 285.965 164.31C285.965 162.697 287.298 161.618 289.297 161.618C291.157 161.618 292.516 162.697 292.598 164.227H291.214C291.081 163.357 290.345 162.824 289.278 162.824C288.155 162.824 287.406 163.376 287.406 164.233C287.406 164.9 287.888 165.281 289.082 165.573L290.091 165.82C291.97 166.271 292.744 167.026 292.744 168.397C292.744 170.13 291.386 171.222 289.215 171.222C287.184 171.222 285.819 170.181 285.717 168.556ZM297.378 171.133C295.353 171.133 294.115 169.781 294.115 167.553C294.115 165.332 295.359 163.973 297.378 163.973C299.39 163.973 300.634 165.325 300.634 167.553C300.634 169.781 299.396 171.133 297.378 171.133ZM297.378 169.972C298.559 169.972 299.231 169.083 299.231 167.553C299.231 166.017 298.559 165.128 297.378 165.128C296.191 165.128 295.524 166.017 295.524 167.553C295.524 169.089 296.191 169.972 297.378 169.972ZM308.105 164.106V171H306.792V169.908H306.684C306.347 170.689 305.643 171.133 304.595 171.133C303.065 171.133 302.215 170.2 302.215 168.582V164.106H303.58V168.245C303.58 169.388 304.03 169.934 305.033 169.934C306.138 169.934 306.741 169.261 306.741 168.15V164.106H308.105ZM310.086 171V164.106H311.4V165.154H311.501C311.698 164.475 312.466 163.986 313.368 163.986C313.571 163.986 313.831 164.005 313.977 164.037V165.319C313.863 165.287 313.457 165.243 313.215 165.243C312.181 165.243 311.451 165.909 311.451 166.88V171H310.086ZM320.966 166.322H319.639C319.48 165.649 318.922 165.135 318.008 165.135C316.865 165.135 316.167 166.036 316.167 167.528C316.167 169.051 316.872 169.972 318.008 169.972C318.871 169.972 319.461 169.565 319.639 168.816H320.966C320.788 170.175 319.722 171.133 318.014 171.133C316.002 171.133 314.771 169.762 314.771 167.528C314.771 165.338 315.996 163.973 318.008 163.973C319.741 163.973 320.788 164.982 320.966 166.322ZM327.06 169.153H328.374C328.075 170.372 326.958 171.133 325.377 171.133C323.397 171.133 322.185 169.769 322.185 167.566C322.185 165.376 323.422 163.973 325.371 163.973C327.294 163.973 328.456 165.287 328.456 167.445V167.915H323.575V167.979C323.619 169.229 324.324 170.016 325.416 170.016C326.241 170.016 326.806 169.711 327.06 169.153ZM325.365 165.084C324.355 165.084 323.651 165.82 323.575 166.931H327.066C327.034 165.814 326.374 165.084 325.365 165.084ZM339.736 171L338.898 168.524H335.407L334.562 171H333.103L336.41 161.84H337.939L341.247 171H339.736ZM337.102 163.459L335.769 167.382H338.536L337.209 163.459H337.102ZM348.159 166.322H346.833C346.674 165.649 346.115 165.135 345.201 165.135C344.059 165.135 343.36 166.036 343.36 167.528C343.36 169.051 344.065 169.972 345.201 169.972C346.064 169.972 346.655 169.565 346.833 168.816H348.159C347.981 170.175 346.915 171.133 345.208 171.133C343.195 171.133 341.964 169.762 341.964 167.528C341.964 165.338 343.189 163.973 345.201 163.973C346.934 163.973 347.981 164.982 348.159 166.322ZM350.305 162.367H351.669V164.125H353.167V165.217H351.669V168.854C351.669 169.597 351.968 169.921 352.647 169.921C352.856 169.921 352.977 169.908 353.167 169.889V170.975C352.945 171.013 352.691 171.044 352.425 171.044C350.908 171.044 350.305 170.511 350.305 169.185V165.217H349.207V164.125H350.305V162.367ZM355.478 162.875C355.002 162.875 354.615 162.488 354.615 162.018C354.615 161.542 355.002 161.155 355.478 161.155C355.954 161.155 356.341 161.542 356.341 162.018C356.341 162.488 355.954 162.875 355.478 162.875ZM354.799 171V164.106H356.157V171H354.799ZM361.083 171.133C359.058 171.133 357.82 169.781 357.82 167.553C357.82 165.332 359.064 163.973 361.083 163.973C363.095 163.973 364.339 165.325 364.339 167.553C364.339 169.781 363.102 171.133 361.083 171.133ZM361.083 169.972C362.264 169.972 362.937 169.083 362.937 167.553C362.937 166.017 362.264 165.128 361.083 165.128C359.896 165.128 359.229 166.017 359.229 167.553C359.229 169.089 359.896 169.972 361.083 169.972ZM365.983 171V164.106H367.297V165.198H367.399C367.735 164.437 368.421 163.973 369.462 163.973C371.004 163.973 371.855 164.894 371.855 166.538V171H370.49V166.861C370.49 165.719 370.008 165.16 368.999 165.16C367.989 165.16 367.348 165.846 367.348 166.957V171H365.983ZM374.838 171.095C374.305 171.095 373.905 170.695 373.905 170.181C373.905 169.667 374.305 169.267 374.838 169.267C375.378 169.267 375.771 169.667 375.771 170.181C375.771 170.695 375.378 171.095 374.838 171.095ZM378.939 171.095C378.406 171.095 378.006 170.695 378.006 170.181C378.006 169.667 378.406 169.267 378.939 169.267C379.479 169.267 379.872 169.667 379.872 170.181C379.872 170.695 379.479 171.095 378.939 171.095ZM383.04 171.095C382.506 171.095 382.106 170.695 382.106 170.181C382.106 169.667 382.506 169.267 383.04 169.267C383.579 169.267 383.973 169.667 383.973 170.181C383.973 170.695 383.579 171.095 383.04 171.095Z" fill="var(--vscode-breadcrumb-foreground, #CCCCCC)" />
              </g>
              <g opacity="0.6">
                <rect x="270" y="181" width="190" height="1" fill="var(--vscode-editorHoverWidget-border, #454545)" />
              </g>
              <g opacity="0.6">
                <path opacity="0.16" d="M285 199C285 197.343 286.343 196 288 196H363C364.657 196 366 197.343 366 199C366 200.657 364.657 202 363 202H288C286.343 202 285 200.657 285 199Z" fill="var(--vscode-menu-foreground, #CCCCCC)" />
              </g>
              <g opacity="0.6">
                <path opacity="0.16" d="M285 226C285 224.343 286.343 223 288 223H393C394.657 223 396 224.343 396 226C396 227.657 394.657 229 393 229H288C286.343 229 285 227.657 285 226Z" fill="var(--vscode-menu-foreground, #CCCCCC)" />
              </g>
            </g>
          </g>
        </g>
        <path d="M206.414 257.612C209.08 257.612 210.743 259.459 210.743 262.417C210.743 265.369 209.086 267.229 206.414 267.229C203.729 267.229 202.078 265.369 202.078 262.417C202.078 259.459 203.754 257.612 206.414 257.612ZM206.414 259.027C204.789 259.027 203.754 260.341 203.754 262.417C203.754 264.48 204.763 265.813 206.414 265.813C208.045 265.813 209.073 264.48 209.073 262.417C209.073 260.341 208.039 259.027 206.414 259.027ZM216.24 259.948C217.998 259.948 219.103 261.312 219.103 263.534C219.103 265.737 218.011 267.114 216.259 267.114C215.262 267.114 214.494 266.683 214.139 265.946H214.031V269.304H212.457V260.062H213.974V261.211H214.082C214.481 260.424 215.288 259.948 216.24 259.948ZM215.745 265.807C216.836 265.807 217.484 264.956 217.484 263.534C217.484 262.112 216.83 261.262 215.751 261.262C214.678 261.262 214.005 262.131 213.999 263.534C214.005 264.937 214.672 265.807 215.745 265.807ZM225.209 265.102H226.701C226.415 266.353 225.253 267.14 223.616 267.14C221.572 267.14 220.34 265.781 220.34 263.56C220.34 261.332 221.591 259.929 223.603 259.929C225.583 259.929 226.771 261.243 226.771 263.42V263.921H221.921V264.004C221.959 265.178 222.625 265.915 223.66 265.915C224.441 265.915 224.98 265.623 225.209 265.102ZM223.597 261.154C222.657 261.154 221.997 261.833 221.927 262.874H225.196C225.165 261.82 224.542 261.154 223.597 261.154ZM228.351 267V260.062H229.868V261.173H229.976C230.306 260.398 231.004 259.929 232.039 259.929C233.588 259.929 234.432 260.862 234.432 262.512V267H232.858V262.88C232.858 261.801 232.414 261.262 231.455 261.262C230.516 261.262 229.925 261.916 229.925 262.957V267H228.351ZM240.266 258.361H241.833V260.106H243.319V261.332H241.833V264.785C241.833 265.477 242.125 265.788 242.786 265.788C243.008 265.788 243.128 265.775 243.319 265.756V266.962C243.09 267.006 242.798 267.032 242.494 267.032C240.9 267.032 240.266 266.499 240.266 265.159V261.332H239.167V260.106H240.266V258.361ZM244.957 267V257.377H246.505V261.186H246.62C246.95 260.405 247.692 259.935 248.727 259.935C250.212 259.935 251.114 260.875 251.114 262.525V267H249.54V262.893C249.54 261.82 249.057 261.274 248.143 261.274C247.108 261.274 246.531 261.954 246.531 262.969V267H244.957ZM257.506 265.102H258.998C258.712 266.353 257.55 267.14 255.913 267.14C253.869 267.14 252.637 265.781 252.637 263.56C252.637 261.332 253.888 259.929 255.9 259.929C257.88 259.929 259.067 261.243 259.067 263.42V263.921H254.218V264.004C254.256 265.178 254.922 265.915 255.957 265.915C256.738 265.915 257.277 265.623 257.506 265.102ZM255.894 261.154C254.954 261.154 254.294 261.833 254.224 262.874H257.493C257.461 261.82 256.839 261.154 255.894 261.154ZM264.114 267V260.062H265.631V261.141H265.739C265.929 260.456 266.678 259.948 267.573 259.948C267.802 259.948 268.081 259.973 268.227 260.011V261.446C268.106 261.401 267.688 261.357 267.421 261.357C266.399 261.357 265.688 261.992 265.688 262.969V267H264.114ZM270.322 258.9C269.808 258.9 269.382 258.488 269.382 257.967C269.382 257.453 269.808 257.034 270.322 257.034C270.842 257.034 271.268 257.453 271.268 257.967C271.268 258.488 270.842 258.9 270.322 258.9ZM269.541 267V260.062H271.109V267H269.541ZM276.047 269.641C274.264 269.641 273.096 268.86 272.969 267.667H274.549C274.651 268.155 275.209 268.466 276.073 268.466C277.152 268.466 277.78 267.946 277.78 267.063V265.743H277.672C277.272 266.492 276.517 266.898 275.552 266.898C273.8 266.898 272.708 265.54 272.708 263.458C272.708 261.332 273.807 259.948 275.578 259.948C276.523 259.948 277.349 260.417 277.729 261.173H277.837V260.062H279.354V267.038C279.354 268.631 278.072 269.641 276.047 269.641ZM276.047 265.648C277.146 265.648 277.806 264.797 277.806 263.458C277.806 262.112 277.139 261.262 276.047 261.262C274.949 261.262 274.327 262.112 274.327 263.452C274.327 264.797 274.949 265.648 276.047 265.648ZM281.354 267V257.377H282.903V261.186H283.017C283.347 260.405 284.09 259.935 285.125 259.935C286.61 259.935 287.511 260.875 287.511 262.525V267H285.937V262.893C285.937 261.82 285.455 261.274 284.541 261.274C283.506 261.274 282.928 261.954 282.928 262.969V267H281.354ZM289.879 258.361H291.447V260.106H292.932V261.332H291.447V264.785C291.447 265.477 291.739 265.788 292.399 265.788C292.621 265.788 292.742 265.775 292.932 265.756V266.962C292.704 267.006 292.412 267.032 292.107 267.032C290.514 267.032 289.879 266.499 289.879 265.159V261.332H288.781V260.106H289.879V258.361ZM298.569 264.029H294.398V262.588H298.569V264.029ZM306.573 262.379H305.075C304.929 261.706 304.409 261.217 303.545 261.217C302.466 261.217 301.825 262.068 301.825 263.515C301.825 264.988 302.473 265.845 303.545 265.845C304.364 265.845 304.91 265.458 305.075 264.728H306.573C306.402 266.162 305.31 267.14 303.552 267.14C301.463 267.14 300.232 265.788 300.232 263.515C300.232 261.268 301.457 259.929 303.545 259.929C305.329 259.929 306.408 260.944 306.573 262.379ZM308.141 267V257.377H309.715V267H308.141ZM312.508 258.9C311.994 258.9 311.569 258.488 311.569 257.967C311.569 257.453 311.994 257.034 312.508 257.034C313.029 257.034 313.454 257.453 313.454 257.967C313.454 258.488 313.029 258.9 312.508 258.9ZM311.728 267V260.062H313.295V267H311.728ZM321.249 262.379H319.751C319.605 261.706 319.084 261.217 318.221 261.217C317.142 261.217 316.501 262.068 316.501 263.515C316.501 264.988 317.148 265.845 318.221 265.845C319.04 265.845 319.586 265.458 319.751 264.728H321.249C321.078 266.162 319.986 267.14 318.228 267.14C316.139 267.14 314.908 265.788 314.908 263.515C314.908 261.268 316.133 259.929 318.221 259.929C320.005 259.929 321.084 260.944 321.249 262.379ZM324.499 262.906L327.063 260.062H328.892L326.124 263.039L329.082 267H327.178L324.95 264.004L324.391 264.562V267H322.817V257.377H324.391V262.906H324.499ZM333.76 267V260.062H335.277V261.179H335.385C335.684 260.398 336.395 259.929 337.315 259.929C338.273 259.929 338.94 260.411 339.232 261.179H339.34C339.683 260.424 340.482 259.929 341.447 259.929C342.837 259.929 343.675 260.786 343.675 262.227V267H342.107V262.614C342.107 261.712 341.682 261.262 340.838 261.262C340.019 261.262 339.479 261.871 339.479 262.665V267H337.95V262.5C337.95 261.731 337.467 261.262 336.693 261.262C335.912 261.262 335.334 261.916 335.334 262.779V267H333.76ZM350.067 265.102H351.559C351.273 266.353 350.112 267.14 348.474 267.14C346.43 267.14 345.199 265.781 345.199 263.56C345.199 261.332 346.449 259.929 348.461 259.929C350.442 259.929 351.629 261.243 351.629 263.42V263.921H346.779V264.004C346.817 265.178 347.484 265.915 348.519 265.915C349.299 265.915 349.839 265.623 350.067 265.102ZM348.455 261.154C347.516 261.154 346.855 261.833 346.786 262.874H350.055C350.023 261.82 349.401 261.154 348.455 261.154ZM353.209 267V260.062H354.727V261.173H354.834C355.165 260.398 355.863 259.929 356.897 259.929C358.446 259.929 359.291 260.862 359.291 262.512V267H357.716V262.88C357.716 261.801 357.272 261.262 356.313 261.262C355.374 261.262 354.784 261.916 354.784 262.957V267H353.209ZM367.2 260.062V267H365.683V265.896H365.575C365.238 266.689 364.559 267.14 363.499 267.14C361.982 267.14 361.093 266.194 361.093 264.569V260.062H362.667V264.188C362.667 265.267 363.105 265.788 364.045 265.788C365.067 265.788 365.625 265.153 365.625 264.105V260.062H367.2Z" fill="var(--vscode-breadcrumb-foreground, #CCCCCC)" />
      </g>
      <g>
        <g>
          <g>
            <rect width="474" height="35" transform="translate(48.374 289)" fill="var(--vscode-editorGroupHeader-tabsBackground, #2B2B2B)" />
            <g clip-path="url(#clip3_4124_177515)">
              <g>
                <rect width="123" height="35" transform="translate(48.374 289)" fill="var(--vscode-editorPane-background, #1F1F1F)" />
                <g clip-path="url(#clip4_4124_177515)">
                  <path d="M71.373 307.742C71.3605 308.167 71.3834 308.731 71.2169 309.209C71.0713 309.688 70.8216 310.114 70.4678 310.489C70.1142 310.842 69.7084 311.113 69.2507 311.3C68.7929 311.467 68.4438 311.5 67.8149 311.5C67.186 311.5 66.6289 311.435 66.0671 311.207C65.5261 310.957 65.0684 310.603 64.6938 310.145L65.8174 308.71C66.0463 309.001 66.3272 309.23 66.6601 309.396C66.9931 309.563 67.3572 309.646 67.7525 309.646C68.2727 309.646 68.6785 309.48 68.9698 309.147C69.2611 308.793 69.4067 308.273 69.4067 307.586V301.5H71.373V307.742Z" fill="var(--vscode-terminal-ansiRed, #CC3E44)" />
                </g>
                <rect opacity="0.16" x="80.374" y="303" width="79" height="7" rx="3.5" fill="var(--vscode-breadcrumb-foreground, #CCCCCC)" />
              </g>
            </g>
          </g>
          <g filter="url(#filter2_d_4124_177515)">
            <rect x="38.75" y="321" width="492" height="196" rx="2" fill="var(--vscode-breadcrumb-background, #1F1F1F)" />
            <rect x="69.6528" y="348" width="137.222" height="7.50629" rx="3.75314" fill="var(--vscode-activityBarBadge-background, #0078D4)" />
            <rect x="90" y="368" width="137.222" height="7.50629" rx="3.75314" fill="var(--vscode-activityBarBadge-background, #0078D4)" />
            <rect x="69.6528" y="429.33" width="179.636" height="7.50629" rx="3.75314" fill="var(--vscode-activityBarBadge-background, #0078D4)" />
            <rect x="165" y="388" width="179.636" height="7.50629" rx="3.75314" fill="var(--vscode-activityBarBadge-background, #0078D4)" />
            <path d="M311.845 371.753C311.845 369.68 313.525 368 315.598 368H382.718C384.791 368 386.471 369.68 386.471 371.753C386.471 373.826 384.791 375.506 382.718 375.506H315.598C313.525 375.506 311.845 373.826 311.845 371.753Z" fill="var(--vscode-gitDecoration-modifiedResourceForeground, #E2C08D)" />
            <rect x="194.38" y="449.704" width="147.202" height="7.50629" rx="3.75314" fill="var(--vscode-gitDecoration-modifiedResourceForeground, #E2C08D)" />
            <path d="M61.85 351.8C61.45 352.2 61.1167 352.667 60.85 353.2C60.6278 353.733 60.5167 354.289 60.5167 354.867V356.867C60.5167 357.178 60.4278 357.489 60.25 357.8C60.0722 358.067 59.8278 358.267 59.5167 358.4C59.3389 358.489 59.1389 358.511 58.9167 358.467H56.9167C56.4278 358.511 56.0278 358.378 55.7167 358.067C55.4056 357.711 55.25 357.311 55.25 356.867V354.867C55.25 354.289 55.1389 353.733 54.9167 353.2C54.6944 352.667 54.3833 352.2 53.9833 351.8C53.45 351.311 53.0278 350.733 52.7167 350.067C52.4056 349.356 52.25 348.622 52.25 347.867C52.25 346.844 52.5167 345.911 53.05 345.067C53.2722 344.622 53.5389 344.244 53.85 343.933C54.2056 343.578 54.5833 343.289 54.9833 343.067C55.4278 342.8 55.8944 342.6 56.3833 342.467C56.8722 342.333 57.3833 342.267 57.9167 342.267C58.9389 342.267 59.8722 342.511 60.7167 343C61.6056 343.489 62.2944 344.178 62.7833 345.067C63.2722 345.911 63.5167 346.844 63.5167 347.867C63.5167 348.667 63.3611 349.4 63.05 350.067C62.7833 350.733 62.3833 351.311 61.85 351.8ZM59.25 354.133H56.5167V356.867C56.5167 356.956 56.5389 357.044 56.5833 357.133C56.6722 357.222 56.7833 357.267 56.9167 357.267H58.9167C59.0056 357.267 59.0722 357.244 59.1167 357.2C59.2056 357.111 59.25 357 59.25 356.867V354.133Z" fill="var(--vscode-debugIcon-breakpointCurrentStackframeForeground, #FFCC00)" />
          </g>
          <g filter="url(#filter3_d_4124_177515)">
            <g clip-path="url(#clip5_4124_177515)">
              <rect x="103.75" y="347" width="219" height="173" rx="2" fill="var(--vscode-menu-background, #1F1F1F)" />
              <g>
                <path opacity="0.6" d="M122.929 362.419V364H116.861V354.84H122.929V356.421H118.778V358.63H122.694V360.103H118.778V362.419H122.929ZM127.626 361.696H127.512L126.211 364.006H124.256L126.446 360.553L124.237 357.018H126.363L127.601 359.341H127.715L128.953 357.018H130.972L128.769 360.477L130.984 364.006H128.934L127.626 361.696ZM132.844 355.342H134.691V357.075H136.145V358.478H134.691V361.689C134.691 362.318 134.971 362.61 135.599 362.61C135.84 362.61 135.967 362.597 136.145 362.578V363.943C135.917 363.987 135.574 364.025 135.218 364.025C133.517 364.025 132.844 363.473 132.844 362.115V358.478H131.752V357.075H132.844V355.342ZM137.688 364V357.011H139.478V358.122H139.592C139.776 357.424 140.5 356.897 141.388 356.897C141.642 356.897 141.953 356.929 142.112 356.979V358.604C141.966 358.554 141.534 358.503 141.236 358.503C140.227 358.503 139.535 359.106 139.535 360.09V364H137.688ZM145.14 364.108C143.794 364.108 142.848 363.283 142.848 362.007C142.848 360.744 143.819 360.007 145.559 359.906L147.253 359.804V359.227C147.253 358.624 146.834 358.274 146.073 358.274C145.406 358.274 144.962 358.509 144.81 358.947H143.108C143.229 357.665 144.416 356.859 146.174 356.859C148.028 356.859 149.075 357.735 149.075 359.227V364H147.285V363.073H147.171C146.809 363.721 146.047 364.108 145.14 364.108ZM145.749 362.756C146.606 362.756 147.253 362.191 147.253 361.455V360.934L145.838 361.029C145.044 361.08 144.657 361.378 144.657 361.893C144.657 362.432 145.108 362.756 145.749 362.756ZM157.086 359.449H155.359C155.232 358.776 154.756 358.332 153.969 358.332C152.973 358.332 152.414 359.1 152.414 360.49C152.414 361.899 152.979 362.68 153.969 362.68C154.725 362.68 155.22 362.305 155.359 361.607H157.086C156.934 363.143 155.791 364.146 153.969 364.146C151.786 364.146 150.548 362.819 150.548 360.49C150.548 358.186 151.779 356.859 153.969 356.859C155.823 356.859 156.934 357.887 157.086 359.449ZM159.124 355.342H160.971V357.075H162.424V358.478H160.971V361.689C160.971 362.318 161.25 362.61 161.878 362.61C162.12 362.61 162.247 362.597 162.424 362.578V363.943C162.196 363.987 161.853 364.025 161.498 364.025C159.796 364.025 159.124 363.473 159.124 362.115V358.478H158.032V357.075H159.124V355.342Z" fill="var(--vscode-breadcrumb-foreground, #CCCCCC)" />
              </g>
              <g>
                <rect width="219" height="24" transform="translate(103.75 371)" fill="var(--vscode-menu-selectionBackground, #04395E)" />
                <g>
                  <path d="M126.779 377.733L126.78 377.733L129.83 379.489V386.511L123.75 390.023L117.67 386.511V379.489L120.719 377.733L120.719 377.733L120.721 377.733L123.75 375.978L126.779 377.733Z" stroke="var(--vscode-menu-selectionForeground, #FFFFFF)" />
                </g>
                <g opacity="0.8">
                  <path d="M137.75 383C137.75 381.343 139.093 380 140.75 380H245.75C247.407 380 248.75 381.343 248.75 383C248.75 384.657 247.407 386 245.75 386H140.75C139.093 386 137.75 384.657 137.75 383Z" fill="var(--vscode-menu-selectionForeground, #FFFFFF)" />
                </g>
              </g>
              <g>
                <path opacity="0.6" d="M118.778 408.648V412H116.861V402.84H120.708C122.72 402.84 123.958 403.951 123.958 405.76C123.958 406.935 123.348 407.95 122.294 408.363L124.224 412H122.053L120.346 408.648H118.778ZM118.778 404.338V407.22H120.46C121.425 407.22 121.99 406.693 121.99 405.786C121.99 404.897 121.393 404.338 120.441 404.338H118.778ZM130 410.026H131.721C131.448 411.327 130.235 412.146 128.521 412.146C126.389 412.146 125.132 410.8 125.132 408.541C125.132 406.268 126.414 404.859 128.496 404.859C130.559 404.859 131.778 406.179 131.778 408.388V408.94H126.973V409.036C126.998 410.102 127.607 410.769 128.572 410.769C129.302 410.769 129.804 410.502 130 410.026ZM128.502 406.236C127.646 406.236 127.042 406.852 126.979 407.792H129.962C129.924 406.833 129.366 406.236 128.502 406.236ZM142.867 405.011L141.007 412H139.04L137.789 407.125H137.675L136.437 412H134.495L132.628 405.011H134.501L135.542 410.07H135.656L136.881 405.011H138.646L139.877 410.07H139.992L141.033 405.011H142.867ZM144.188 412V405.011H145.978V406.122H146.092C146.276 405.424 147 404.897 147.888 404.897C148.142 404.897 148.453 404.929 148.612 404.979V406.604C148.466 406.554 148.034 406.503 147.736 406.503C146.727 406.503 146.035 407.106 146.035 408.09V412H144.188ZM150.789 403.938C150.218 403.938 149.742 403.481 149.742 402.91C149.742 402.333 150.218 401.875 150.789 401.875C151.36 401.875 151.83 402.333 151.83 402.91C151.83 403.481 151.36 403.938 150.789 403.938ZM149.862 412V405.011H151.709V412H149.862ZM154.109 403.342H155.956V405.075H157.41V406.478H155.956V409.689C155.956 410.318 156.235 410.61 156.864 410.61C157.105 410.61 157.232 410.597 157.41 410.578V411.943C157.181 411.987 156.838 412.025 156.483 412.025C154.782 412.025 154.109 411.473 154.109 410.115V406.478H153.017V405.075H154.109V403.342ZM163.427 410.026H165.147C164.875 411.327 163.662 412.146 161.948 412.146C159.815 412.146 158.559 410.8 158.559 408.541C158.559 406.268 159.841 404.859 161.923 404.859C163.986 404.859 165.205 406.179 165.205 408.388V408.94H160.399V409.036C160.425 410.102 161.034 410.769 161.999 410.769C162.729 410.769 163.23 410.502 163.427 410.026ZM161.929 406.236C161.072 406.236 160.469 406.852 160.406 407.792H163.389C163.351 406.833 162.792 406.236 161.929 406.236Z" fill="var(--vscode-breadcrumb-foreground, #CCCCCC)" />
              </g>
              <g>
                <g>
                  <path d="M126.779 425.733L126.78 425.733L129.83 427.489V434.511L123.75 438.023L117.67 434.511V427.489L120.719 425.733L120.719 425.733L120.721 425.733L123.75 423.978L126.779 425.733Z" stroke="var(--vscode-menu-foreground, #CCCCCC)" />
                </g>
                <g>
                  <path opacity="0.16" d="M137.75 431C137.75 429.343 139.093 428 140.75 428H305.75C307.407 428 308.75 429.343 308.75 431C308.75 432.657 307.407 434 305.75 434H140.75C139.093 434 137.75 432.657 137.75 431Z" fill="var(--vscode-menu-foreground, #CCCCCC)" />
                </g>
              </g>
              <g>
                <g>
                  <path d="M126.779 449.733L126.78 449.733L129.83 451.489V458.511L123.75 462.023L117.67 458.511V451.489L120.719 449.733L120.719 449.733L120.721 449.733L123.75 447.978L126.779 449.733Z" stroke="var(--vscode-menu-foreground, #CCCCCC)" />
                </g>
                <g>
                  <path opacity="0.16" d="M137.75 455C137.75 453.343 139.093 452 140.75 452H215.75C217.407 452 218.75 453.343 218.75 455C218.75 456.657 217.407 458 215.75 458H140.75C139.093 458 137.75 456.657 137.75 455Z" fill="var(--vscode-menu-foreground, #CCCCCC)" />
                </g>
              </g>
              <g>
                <path opacity="0.6" d="M126.56 484H124.783V477.798H124.681L122.352 483.549H121.076L118.74 477.798H118.638V484H116.861V474.84H119.121L121.653 481.156H121.768L124.307 474.84H126.56V484ZM131.702 484.146C129.55 484.146 128.255 482.781 128.255 480.502C128.255 478.243 129.569 476.859 131.702 476.859C133.834 476.859 135.148 478.236 135.148 480.502C135.148 482.788 133.854 484.146 131.702 484.146ZM131.702 482.686C132.686 482.686 133.25 481.886 133.25 480.502C133.25 479.131 132.679 478.325 131.702 478.325C130.718 478.325 130.153 479.131 130.153 480.502C130.153 481.886 130.711 482.686 131.702 482.686ZM136.659 484V477.011H138.449V478.122H138.563C138.748 477.424 139.471 476.897 140.36 476.897C140.614 476.897 140.925 476.929 141.083 476.979V478.604C140.938 478.554 140.506 478.503 140.208 478.503C139.198 478.503 138.506 479.106 138.506 480.09V484H136.659ZM146.682 482.026H148.402C148.129 483.327 146.917 484.146 145.203 484.146C143.07 484.146 141.813 482.8 141.813 480.541C141.813 478.268 143.096 476.859 145.178 476.859C147.241 476.859 148.459 478.179 148.459 480.388V480.94H143.654V481.036C143.68 482.102 144.289 482.769 145.254 482.769C145.984 482.769 146.485 482.502 146.682 482.026ZM145.184 478.236C144.327 478.236 143.724 478.852 143.661 479.792H146.644C146.606 478.833 146.047 478.236 145.184 478.236ZM159.396 484L158.705 481.778H155.486L154.782 484H152.858L156.039 474.84H158.292L161.472 484H159.396ZM157.048 476.7L155.899 480.344H158.298L157.162 476.7H157.048ZM168.664 479.449H166.938C166.811 478.776 166.334 478.332 165.547 478.332C164.551 478.332 163.992 479.1 163.992 480.49C163.992 481.899 164.557 482.68 165.547 482.68C166.303 482.68 166.798 482.305 166.938 481.607H168.664C168.512 483.143 167.369 484.146 165.547 484.146C163.364 484.146 162.126 482.819 162.126 480.49C162.126 478.186 163.357 476.859 165.547 476.859C167.401 476.859 168.512 477.887 168.664 479.449ZM170.702 475.342H172.549V477.075H174.002V478.478H172.549V481.689C172.549 482.318 172.828 482.61 173.457 482.61C173.698 482.61 173.825 482.597 174.002 482.578V483.943C173.774 483.987 173.431 484.025 173.076 484.025C171.375 484.025 170.702 483.473 170.702 482.115V478.478H169.61V477.075H170.702V475.342ZM176.484 475.938C175.913 475.938 175.437 475.481 175.437 474.91C175.437 474.333 175.913 473.875 176.484 473.875C177.056 473.875 177.525 474.333 177.525 474.91C177.525 475.481 177.056 475.938 176.484 475.938ZM175.558 484V477.011H177.405V484H175.558ZM182.381 484.146C180.229 484.146 178.935 482.781 178.935 480.502C178.935 478.243 180.249 476.859 182.381 476.859C184.514 476.859 185.828 478.236 185.828 480.502C185.828 482.788 184.533 484.146 182.381 484.146ZM182.381 482.686C183.365 482.686 183.93 481.886 183.93 480.502C183.93 479.131 183.359 478.325 182.381 478.325C181.397 478.325 180.833 479.131 180.833 480.502C180.833 481.886 181.391 482.686 182.381 482.686ZM187.339 484V477.011H189.129V478.135H189.243C189.567 477.348 190.278 476.859 191.312 476.859C192.868 476.859 193.706 477.811 193.706 479.48V484H191.858V479.899C191.858 478.916 191.446 478.401 190.57 478.401C189.713 478.401 189.186 479.011 189.186 479.957V484H187.339ZM195.343 479.049C195.343 477.741 196.511 476.859 198.257 476.859C200.034 476.859 201.082 477.602 201.183 478.922H199.476C199.38 478.458 198.955 478.173 198.27 478.173C197.609 478.173 197.121 478.484 197.121 478.941C197.121 479.296 197.419 479.519 198.066 479.665L199.38 479.95C200.739 480.249 201.348 480.82 201.348 481.861C201.348 483.245 200.098 484.146 198.263 484.146C196.416 484.146 195.299 483.391 195.172 482.07H196.975C197.114 482.553 197.565 482.838 198.301 482.838C199.019 482.838 199.514 482.521 199.514 482.058C199.514 481.702 199.247 481.486 198.631 481.347L197.362 481.061C196.003 480.763 195.343 480.122 195.343 479.049ZM204.198 484.159C203.519 484.159 203.075 483.702 203.075 483.08C203.075 482.458 203.519 482.007 204.198 482.007C204.884 482.007 205.322 482.458 205.322 483.08C205.322 483.702 204.884 484.159 204.198 484.159ZM208.718 484.159C208.039 484.159 207.594 483.702 207.594 483.08C207.594 482.458 208.039 482.007 208.718 482.007C209.403 482.007 209.841 482.458 209.841 483.08C209.841 483.702 209.403 484.159 208.718 484.159ZM213.237 484.159C212.558 484.159 212.114 483.702 212.114 483.08C212.114 482.458 212.558 482.007 213.237 482.007C213.923 482.007 214.361 482.458 214.361 483.08C214.361 483.702 213.923 484.159 213.237 484.159Z" fill="var(--vscode-breadcrumb-foreground, #CCCCCC)" />
              </g>
              <g>
                <g>
                  <path d="M126.779 497.733L126.78 497.733L129.83 499.489V506.511L123.75 510.023L117.67 506.511V499.489L120.719 497.733L120.719 497.733L120.721 497.733L123.75 495.978L126.779 497.733Z" stroke="var(--vscode-menu-foreground, #CCCCCC)" />
                </g>
                <g>
                  <path opacity="0.16" d="M137.75 503C137.75 501.343 139.093 500 140.75 500H215.75C217.407 500 218.75 501.343 218.75 503C218.75 504.657 217.407 506 215.75 506H140.75C139.093 506 137.75 504.657 137.75 503Z" fill="var(--vscode-menu-foreground, #CCCCCC)" />
                </g>
              </g>
            </g>
            <rect x="104.25" y="347.5" width="218" height="172" rx="1.5" stroke="var(--vscode-menu-border, #454545)" />
          </g>
        </g>
        <path d="M220.125 556.229C217.528 556.229 215.916 554.388 215.916 551.423C215.916 548.446 217.522 546.612 220.118 546.612C222.2 546.612 223.806 547.958 223.997 549.855H222.384C222.156 548.751 221.273 548.034 220.118 548.034C218.563 548.034 217.592 549.335 217.592 551.417C217.592 553.505 218.563 554.807 220.125 554.807C221.286 554.807 222.168 554.153 222.391 553.125H224.003C223.787 554.978 222.238 556.229 220.125 556.229ZM225.723 556V546.377H227.297V556H225.723ZM230.09 547.9C229.576 547.9 229.151 547.488 229.151 546.967C229.151 546.453 229.576 546.034 230.09 546.034C230.611 546.034 231.036 546.453 231.036 546.967C231.036 547.488 230.611 547.9 230.09 547.9ZM229.31 556V549.062H230.877V556H229.31ZM238.831 551.379H237.333C237.187 550.706 236.667 550.217 235.803 550.217C234.724 550.217 234.083 551.068 234.083 552.515C234.083 553.988 234.73 554.845 235.803 554.845C236.622 554.845 237.168 554.458 237.333 553.728H238.831C238.66 555.162 237.568 556.14 235.81 556.14C233.721 556.14 232.49 554.788 232.49 552.515C232.49 550.268 233.715 548.929 235.803 548.929C237.587 548.929 238.666 549.944 238.831 551.379ZM242.081 551.906L244.646 549.062H246.474L243.706 552.039L246.664 556H244.76L242.532 553.004L241.973 553.562V556H240.399V546.377H241.973V551.906H242.081ZM254.338 556.14C252.256 556.14 251 554.781 251 552.528C251 550.293 252.275 548.929 254.338 548.929C256.408 548.929 257.677 550.287 257.677 552.528C257.677 554.781 256.414 556.14 254.338 556.14ZM254.338 554.851C255.437 554.851 256.059 554 256.059 552.534C256.059 551.068 255.43 550.217 254.338 550.217C253.24 550.217 252.612 551.068 252.612 552.534C252.612 554 253.24 554.851 254.338 554.851ZM259.264 556V549.062H260.781V550.173H260.889C261.219 549.398 261.917 548.929 262.952 548.929C264.501 548.929 265.345 549.862 265.345 551.512V556H263.771V551.88C263.771 550.801 263.327 550.262 262.368 550.262C261.429 550.262 260.838 550.916 260.838 551.957V556H259.264ZM271.179 547.361H272.747V549.106H274.232V550.332H272.747V553.785C272.747 554.477 273.039 554.788 273.699 554.788C273.921 554.788 274.042 554.775 274.232 554.756V555.962C274.003 556.006 273.711 556.032 273.407 556.032C271.813 556.032 271.179 555.499 271.179 554.159V550.332H270.081V549.106H271.179V547.361ZM275.87 556V546.377H277.418V550.186H277.533C277.863 549.405 278.605 548.935 279.64 548.935C281.125 548.935 282.027 549.875 282.027 551.525V556H280.453V551.893C280.453 550.82 279.97 550.274 279.056 550.274C278.021 550.274 277.444 550.954 277.444 551.969V556H275.87ZM288.419 554.102H289.911C289.625 555.353 288.463 556.14 286.826 556.14C284.782 556.14 283.55 554.781 283.55 552.56C283.55 550.332 284.801 548.929 286.813 548.929C288.793 548.929 289.98 550.243 289.98 552.42V552.921H285.131V553.004C285.169 554.178 285.835 554.915 286.87 554.915C287.651 554.915 288.19 554.623 288.419 554.102ZM286.807 550.154C285.867 550.154 285.207 550.833 285.137 551.874H288.406C288.375 550.82 287.752 550.154 286.807 550.154ZM295.09 556V546.377H296.665V556H295.09ZM299.458 547.9C298.943 547.9 298.518 547.488 298.518 546.967C298.518 546.453 298.943 546.034 299.458 546.034C299.978 546.034 300.403 546.453 300.403 546.967C300.403 547.488 299.978 547.9 299.458 547.9ZM298.677 556V549.062H300.245V556H298.677ZM305.183 558.641C303.399 558.641 302.231 557.86 302.104 556.667H303.685C303.787 557.155 304.345 557.466 305.208 557.466C306.288 557.466 306.916 556.946 306.916 556.063V554.743H306.808C306.408 555.492 305.653 555.898 304.688 555.898C302.936 555.898 301.844 554.54 301.844 552.458C301.844 550.332 302.942 548.948 304.713 548.948C305.659 548.948 306.484 549.417 306.865 550.173H306.973V549.062H308.49V556.038C308.49 557.631 307.208 558.641 305.183 558.641ZM305.183 554.648C306.281 554.648 306.941 553.797 306.941 552.458C306.941 551.112 306.275 550.262 305.183 550.262C304.085 550.262 303.463 551.112 303.463 552.452C303.463 553.797 304.085 554.648 305.183 554.648ZM310.49 556V546.377H312.039V550.186H312.153C312.483 549.405 313.226 548.935 314.26 548.935C315.746 548.935 316.647 549.875 316.647 551.525V556H315.073V551.893C315.073 550.82 314.59 550.274 313.676 550.274C312.642 550.274 312.064 550.954 312.064 551.969V556H310.49ZM319.015 547.361H320.583V549.106H322.068V550.332H320.583V553.785C320.583 554.477 320.875 554.788 321.535 554.788C321.757 554.788 321.877 554.775 322.068 554.756V555.962C321.839 556.006 321.547 556.032 321.243 556.032C319.649 556.032 319.015 555.499 319.015 554.159V550.332H317.917V549.106H319.015V547.361ZM330.967 556.114C329.996 556.114 329.19 555.664 328.796 554.902H328.688V556H327.171V546.377H328.746V550.167H328.854C329.215 549.411 330.015 548.948 330.967 548.948C332.726 548.948 333.817 550.319 333.817 552.534C333.817 554.737 332.719 556.114 330.967 556.114ZM330.472 550.262C329.399 550.262 328.72 551.131 328.72 552.534C328.72 553.937 329.393 554.807 330.472 554.807C331.551 554.807 332.199 553.95 332.199 552.534C332.199 551.119 331.545 550.262 330.472 550.262ZM341.441 549.062V556H339.924V554.896H339.816C339.479 555.689 338.8 556.14 337.74 556.14C336.223 556.14 335.334 555.194 335.334 553.569V549.062H336.909V553.188C336.909 554.267 337.347 554.788 338.286 554.788C339.308 554.788 339.867 554.153 339.867 553.105V549.062H341.441ZM343.434 556V546.377H345.008V556H343.434ZM350.861 556.114C349.89 556.114 349.083 555.664 348.69 554.902H348.582V556H347.065V546.377H348.639V550.167H348.747C349.109 549.411 349.909 548.948 350.861 548.948C352.619 548.948 353.711 550.319 353.711 552.534C353.711 554.737 352.613 556.114 350.861 556.114ZM350.366 550.262C349.293 550.262 348.614 551.131 348.614 552.534C348.614 553.937 349.287 554.807 350.366 554.807C351.445 554.807 352.092 553.95 352.092 552.534C352.092 551.119 351.438 550.262 350.366 550.262Z" fill="var(--vscode-breadcrumb-foreground, #CCCCCC)" />
      </g>
    </g>
  </g>
  <defs>
    <filter id="filter0_d_4124_177515" x="26.75" y="22" width="516" height="220" filterUnits="userSpaceOnUse" color-interpolation-filters="sRGB">
      <feFlood flood-opacity="0" result="BackgroundImageFix" />
      <feColorMatrix in="SourceAlpha" type="matrix" values="0 0 0 0 0 0 0 0 0 0 0 0 0 0 0 0 0 0 127 0" result="hardAlpha" />
      <feOffset dy="2" />
      <feGaussianBlur stdDeviation="6" />
      <feColorMatrix type="matrix" values="0 0 0 0 0 0 0 0 0 0 0 0 0 0 0 0 0 0 0.6 0" />
      <feBlend mode="normal" in2="BackgroundImageFix" result="effect1_dropShadow_4124_177515" />
      <feBlend mode="normal" in="SourceGraphic" in2="effect1_dropShadow_4124_177515" result="shape" />
    </filter>
    <filter id="filter1_d_4124_177515" x="242" y="24" width="246" height="238" filterUnits="userSpaceOnUse" color-interpolation-filters="sRGB">
      <feFlood flood-opacity="0" result="BackgroundImageFix" />
      <feColorMatrix in="SourceAlpha" type="matrix" values="0 0 0 0 0 0 0 0 0 0 0 0 0 0 0 0 0 0 127 0" result="hardAlpha" />
      <feOffset dy="2" />
      <feGaussianBlur stdDeviation="8" />
      <feColorMatrix type="matrix" values="0 0 0 0 0 0 0 0 0 0 0 0 0 0 0 0 0 0 0.36 0" />
      <feBlend mode="normal" in2="BackgroundImageFix" result="effect1_dropShadow_4124_177515" />
      <feBlend mode="normal" in="SourceGraphic" in2="effect1_dropShadow_4124_177515" result="shape" />
    </filter>
    <filter id="filter2_d_4124_177515" x="26.75" y="311" width="516" height="220" filterUnits="userSpaceOnUse" color-interpolation-filters="sRGB">
      <feFlood flood-opacity="0" result="BackgroundImageFix" />
      <feColorMatrix in="SourceAlpha" type="matrix" values="0 0 0 0 0 0 0 0 0 0 0 0 0 0 0 0 0 0 127 0" result="hardAlpha" />
      <feOffset dy="2" />
      <feGaussianBlur stdDeviation="6" />
      <feColorMatrix type="matrix" values="0 0 0 0 0 0 0 0 0 0 0 0 0 0 0 0 0 0 0.6 0" />
      <feBlend mode="normal" in2="BackgroundImageFix" result="effect1_dropShadow_4124_177515" />
      <feBlend mode="normal" in="SourceGraphic" in2="effect1_dropShadow_4124_177515" result="shape" />
    </filter>
    <filter id="filter3_d_4124_177515" x="87.75" y="333" width="251" height="205" filterUnits="userSpaceOnUse" color-interpolation-filters="sRGB">
      <feFlood flood-opacity="0" result="BackgroundImageFix" />
      <feColorMatrix in="SourceAlpha" type="matrix" values="0 0 0 0 0 0 0 0 0 0 0 0 0 0 0 0 0 0 127 0" result="hardAlpha" />
      <feOffset dy="2" />
      <feGaussianBlur stdDeviation="8" />
      <feColorMatrix type="matrix" values="0 0 0 0 0 0 0 0 0 0 0 0 0 0 0 0 0 0 0.36 0" />
      <feBlend mode="normal" in2="BackgroundImageFix" result="effect1_dropShadow_4124_177515" />
      <feBlend mode="normal" in="SourceGraphic" in2="effect1_dropShadow_4124_177515" result="shape" />
    </filter>
    <clipPath id="clip0_4124_177515">
      <rect width="526" height="240" fill="var(--vscode-activityBar-activeBorder, #FFFFFF)" transform="translate(21.75)" />
    </clipPath>
    <clipPath id="clip1_4124_177515">
      <rect width="16" height="16" fill="var(--vscode-activityBar-activeBorder, #FFFFFF)" transform="translate(60.374 9.5)" />
    </clipPath>
    <clipPath id="clip2_4124_177515">
      <rect width="245" height="207" fill="var(--vscode-activityBar-activeBorder, #FFFFFF)" transform="translate(242 31)" />
    </clipPath>
    <clipPath id="clip3_4124_177515">
      <rect width="123" height="35" fill="var(--vscode-activityBar-activeBorder, #FFFFFF)" transform="translate(48.374 289)" />
    </clipPath>
    <clipPath id="clip4_4124_177515">
      <rect width="16" height="16" fill="var(--vscode-activityBar-activeBorder, #FFFFFF)" transform="translate(60.374 298.5)" />
    </clipPath>
    <clipPath id="clip5_4124_177515">
      <rect x="103.75" y="347" width="219" height="173" rx="2" fill="var(--vscode-activityBar-activeBorder, #FFFFFF)" />
    </clipPath>
  </defs>
</svg>