<svg width="570" height="560" viewBox="0 0 570 560" fill="none" xmlns="http://www.w3.org/2000/svg">
    <g clip-path="url(#clip0_1322_191470)">
        <g filter="url(#filter0_d_1322_191470)">
            <rect width="301" height="218" transform="translate(247 293)" fill="var(--vscode-editor-background, #1e1e1e)" />
            <g opacity="0.35">
                <rect width="301" height="24" transform="translate(247 372)" fill="#A31515" />
            </g>
            <rect x="287" y="380" width="41.8609" height="8" rx="4" fill="#D7BA7D" />
            <rect x="335" y="380" width="41.8609" height="8" rx="4" fill="#007ACC" />
            <path fill-rule="evenodd" clip-rule="evenodd" d="M260.45 379.75C261.65 379.825 262.775 380.425 263.6 381.25C264.575 382.3 265.1 383.575 265.1 385.075C265.1 386.275 264.65 387.4 263.9 388.375C263.15 389.275 262.1 389.95 260.9 390.175C259.7 390.4 258.5 390.25 257.45 389.65C256.4 389.05 255.575 388.15 255.125 387.025C254.675 385.9 254.6 384.625 254.975 383.5C255.35 382.3 256.025 381.325 257.075 380.65C258.05 379.975 259.25 379.675 260.45 379.75ZM260.825 389.425C261.8 389.2 262.7 388.675 263.375 387.85C263.975 387.025 264.35 386.05 264.275 385C264.275 383.8 263.825 382.6 263 381.775C262.25 381.025 261.35 380.575 260.3 380.5C259.325 380.425 258.275 380.65 257.45 381.25C256.625 381.85 256.025 382.675 255.725 383.725C255.425 384.7 255.425 385.75 255.875 386.725C256.325 387.7 257 388.45 257.9 388.975C258.8 389.5 259.85 389.65 260.825 389.425ZM259.925 384.625L261.725 382.75L262.25 383.275L260.45 385.15L262.25 387.025L261.725 387.55L259.925 385.675L258.125 387.55L257.6 387.025L259.4 385.15L257.6 383.275L258.125 382.75L259.925 384.625Z" fill="#F48771" />
            <path d="M258.702 334.152H259.235L262.655 330.732L262.122 330.2L258.972 333.357L257.533 331.917L257 332.45L258.702 334.152Z" fill="#89D185" />
            <path fill-rule="evenodd" clip-rule="evenodd" d="M260.45 326.75C261.65 326.825 262.775 327.425 263.6 328.25C264.575 329.3 265.1 330.575 265.1 332.075C265.1 333.275 264.65 334.4 263.9 335.375C263.15 336.275 262.1 336.95 260.9 337.175C259.7 337.4 258.5 337.25 257.45 336.65C256.4 336.05 255.575 335.15 255.125 334.025C254.675 332.9 254.6 331.625 254.975 330.5C255.35 329.3 256.025 328.325 257.075 327.65C258.05 326.975 259.25 326.675 260.45 326.75ZM260.825 336.425C261.8 336.2 262.7 335.675 263.375 334.85C263.975 334.025 264.35 333.05 264.275 332C264.275 330.8 263.825 329.6 263 328.775C262.25 328.025 261.35 327.575 260.3 327.5C259.325 327.425 258.275 327.65 257.45 328.25C256.625 328.85 256.025 329.675 255.725 330.725C255.425 331.7 255.425 332.75 255.875 333.725C256.325 334.7 257 335.45 257.9 335.975C258.8 336.5 259.85 336.65 260.825 336.425Z" fill="#89D185" />
            <rect x="268.927" y="328" width="82.7252" height="8" rx="4" fill="#007ACC" />
            <rect x="268.927" y="460" width="64.7848" height="8" rx="4" fill="#007ACC" />
            <rect x="268.927" y="348" width="64.7848" height="8" rx="4" fill="#007ACC" />
            <rect x="268.927" y="480" width="64.7848" height="8" rx="4" fill="#007ACC" />
            <rect x="357.632" y="328" width="41.8609" height="8" rx="4" fill="#D7BA7D" />
            <rect x="339.692" y="460" width="41.8609" height="8" rx="4" fill="#D7BA7D" />
            <rect x="339.692" y="348" width="107.642" height="8" rx="4" fill="#D7BA7D" />
            <rect x="339.692" y="480" width="53.8212" height="8" rx="4" fill="#D7BA7D" />
            <path d="M275.082 424.807C275.082 424.303 274.957 423.9 274.707 423.6C274.457 423.295 274.123 423.143 273.705 423.143C273.287 423.143 272.951 423.295 272.697 423.6C272.447 423.9 272.322 424.303 272.322 424.807C272.322 425.314 272.447 425.721 272.697 426.025C272.951 426.326 273.287 426.477 273.705 426.477C274.123 426.477 274.457 426.326 274.707 426.025C274.957 425.721 275.082 425.314 275.082 424.807ZM275.902 427.209H275.059V426.559C274.914 426.805 274.713 426.994 274.455 427.127C274.201 427.26 273.914 427.326 273.594 427.326C272.965 427.326 272.443 427.09 272.029 426.617C271.619 426.145 271.414 425.541 271.414 424.807C271.414 424.072 271.619 423.469 272.029 422.996C272.443 422.523 272.965 422.287 273.594 422.287C273.906 422.287 274.193 422.355 274.455 422.492C274.717 422.629 274.918 422.816 275.059 423.055V422.686C275.059 422.076 274.887 421.586 274.543 421.215C274.199 420.844 273.744 420.658 273.178 420.658C272.217 420.658 271.451 421.033 270.881 421.783C270.314 422.529 270.031 423.541 270.031 424.818C270.031 426.104 270.354 427.127 270.998 427.889C271.643 428.65 272.525 429.033 273.646 429.037C273.857 429.068 274.154 429.084 274.537 429.084C274.92 429.084 275.262 429.076 275.562 429.061V429.904C275.309 429.924 274.98 429.934 274.578 429.934C274.18 429.938 273.869 429.922 273.646 429.887C272.291 429.875 271.203 429.414 270.383 428.504C269.566 427.594 269.158 426.365 269.158 424.818C269.158 423.295 269.525 422.082 270.26 421.18C270.994 420.277 271.979 419.826 273.213 419.826C274.029 419.826 274.682 420.086 275.17 420.605C275.658 421.125 275.902 421.822 275.902 422.697V427.209ZM339.084 436.309C338.564 437.199 338.176 438.088 337.918 438.975C337.664 439.857 337.537 440.748 337.537 441.646C337.537 442.541 337.664 443.432 337.918 444.318C338.176 445.205 338.564 446.098 339.084 446.996H338.146C337.557 446.066 337.117 445.162 336.828 444.283C336.539 443.4 336.395 442.521 336.395 441.646C336.395 440.775 336.539 439.898 336.828 439.016C337.117 438.133 337.557 437.23 338.146 436.309H339.084ZM343.344 436.309H344.281C344.871 437.23 345.311 438.133 345.6 439.016C345.889 439.898 346.033 440.775 346.033 441.646C346.033 442.525 345.889 443.406 345.6 444.289C345.311 445.172 344.871 446.074 344.281 446.996H343.344C343.863 446.09 344.25 445.193 344.504 444.307C344.762 443.42 344.891 442.533 344.891 441.646C344.891 440.756 344.762 439.867 344.504 438.98C344.25 438.094 343.863 437.203 343.344 436.309ZM361.812 446.299V447.143H361.438C360.465 447.143 359.812 446.998 359.48 446.709C359.152 446.42 358.988 445.844 358.988 444.98V443.809C358.988 443.383 358.867 443.016 358.625 442.707C358.387 442.398 358.016 442.244 357.512 442.244H356.797V441.406H357.512C358.062 441.406 358.445 441.275 358.66 441.014C358.879 440.752 358.988 440.367 358.988 439.859V438.336C358.988 437.473 359.152 436.898 359.48 436.613C359.812 436.324 360.465 436.18 361.438 436.18H361.812V437.018H361.402C360.855 437.018 360.498 437.104 360.33 437.275C360.166 437.443 360.084 437.805 360.084 438.359V439.93C360.084 440.617 359.949 441.08 359.68 441.318C359.41 441.553 358.885 441.723 358.104 441.828C358.861 441.918 359.381 442.092 359.662 442.35C359.943 442.604 360.084 443.064 360.084 443.732V444.957C360.084 445.516 360.166 445.879 360.33 446.047C360.498 446.215 360.855 446.299 361.402 446.299H361.812Z" fill="var(--vscode-foreground, white)" />
            <path d="M276.506 419.252H283.18V420.248H280.443V428H279.254V420.248H276.506V419.252ZM290.023 424.18V424.707H285.354V424.742C285.322 425.637 285.492 426.279 285.863 426.67C286.238 427.061 286.766 427.256 287.445 427.256C287.789 427.256 288.148 427.201 288.523 427.092C288.898 426.982 289.299 426.816 289.725 426.594V427.666C289.314 427.834 288.918 427.959 288.535 428.041C288.156 428.127 287.789 428.17 287.434 428.17C286.414 428.17 285.617 427.865 285.043 427.256C284.469 426.643 284.182 425.799 284.182 424.725C284.182 423.678 284.463 422.842 285.025 422.217C285.588 421.592 286.338 421.279 287.275 421.279C288.111 421.279 288.77 421.562 289.25 422.129C289.734 422.695 289.992 423.379 290.023 424.18ZM288.945 423.863C288.898 423.41 288.732 423.02 288.447 422.691C288.166 422.359 287.76 422.193 287.229 422.193C286.709 422.193 286.281 422.365 285.945 422.709C285.609 423.053 285.426 423.439 285.395 423.869L288.945 423.863ZM296.393 421.666V422.721C296.084 422.541 295.773 422.406 295.461 422.316C295.148 422.227 294.83 422.182 294.506 422.182C294.018 422.182 293.652 422.262 293.41 422.422C293.172 422.578 293.053 422.818 293.053 423.143C293.053 423.436 293.143 423.654 293.322 423.799C293.502 423.943 293.949 424.084 294.664 424.221L295.098 424.303C295.633 424.404 296.037 424.607 296.311 424.912C296.588 425.217 296.727 425.613 296.727 426.102C296.727 426.75 296.496 427.258 296.035 427.625C295.574 427.988 294.934 428.17 294.113 428.17C293.789 428.17 293.449 428.135 293.094 428.064C292.738 427.998 292.354 427.896 291.939 427.76V426.646C292.342 426.854 292.727 427.01 293.094 427.115C293.461 427.217 293.809 427.268 294.137 427.268C294.613 427.268 294.982 427.172 295.244 426.98C295.506 426.785 295.637 426.514 295.637 426.166C295.637 425.666 295.158 425.32 294.201 425.129L294.154 425.117L293.75 425.035C293.129 424.914 292.676 424.711 292.391 424.426C292.105 424.137 291.963 423.744 291.963 423.248C291.963 422.619 292.176 422.135 292.602 421.795C293.027 421.451 293.635 421.279 294.424 421.279C294.775 421.279 295.113 421.312 295.438 421.379C295.762 421.441 296.08 421.537 296.393 421.666ZM301.52 419.574V421.438H303.969V422.275H301.52V425.838C301.52 426.322 301.611 426.66 301.795 426.852C301.979 427.043 302.299 427.139 302.756 427.139H303.969V428H302.65C301.842 428 301.271 427.838 300.939 427.514C300.607 427.189 300.441 426.631 300.441 425.838V422.275H298.689V421.438H300.441V419.574H301.52ZM269.586 439.438H270.705L272.609 444.945L274.52 439.438H275.639L273.307 446H271.918L269.586 439.438ZM279.84 440.193C279.293 440.193 278.879 440.406 278.598 440.832C278.316 441.258 278.176 441.889 278.176 442.725C278.176 443.557 278.316 444.188 278.598 444.617C278.879 445.043 279.293 445.256 279.84 445.256C280.391 445.256 280.807 445.043 281.088 444.617C281.369 444.188 281.51 443.557 281.51 442.725C281.51 441.889 281.369 441.258 281.088 440.832C280.807 440.406 280.391 440.193 279.84 440.193ZM279.84 439.279C280.75 439.279 281.445 439.574 281.926 440.164C282.41 440.754 282.652 441.607 282.652 442.725C282.652 443.846 282.412 444.701 281.932 445.291C281.451 445.877 280.754 446.17 279.84 446.17C278.93 446.17 278.234 445.877 277.754 445.291C277.273 444.701 277.033 443.846 277.033 442.725C277.033 441.607 277.273 440.754 277.754 440.164C278.234 439.574 278.93 439.279 279.84 439.279ZM285.312 439.461H288.072V445.162H290.211V446H284.855V445.162H286.994V440.299H285.312V439.461ZM286.994 436.912H288.072V438.271H286.994V436.912ZM295.719 440.275V436.883H296.797V446H295.719V445.174C295.539 445.498 295.299 445.746 294.998 445.918C294.701 446.086 294.357 446.17 293.967 446.17C293.174 446.17 292.549 445.863 292.092 445.25C291.639 444.633 291.412 443.783 291.412 442.701C291.412 441.635 291.641 440.799 292.098 440.193C292.555 439.584 293.178 439.279 293.967 439.279C294.361 439.279 294.709 439.365 295.01 439.537C295.311 439.705 295.547 439.951 295.719 440.275ZM292.549 442.725C292.549 443.561 292.682 444.191 292.947 444.617C293.213 445.043 293.605 445.256 294.125 445.256C294.645 445.256 295.039 445.041 295.309 444.611C295.582 444.182 295.719 443.553 295.719 442.725C295.719 441.893 295.582 441.264 295.309 440.838C295.039 440.408 294.645 440.193 294.125 440.193C293.605 440.193 293.213 440.406 292.947 440.832C292.682 441.258 292.549 441.889 292.549 442.725Z" fill="#73C991" />
            <path d="M308.75 437.574V439.438H311.199V440.275H308.75V443.838C308.75 444.322 308.842 444.66 309.025 444.852C309.209 445.043 309.529 445.139 309.986 445.139H311.199V446H309.881C309.072 446 308.502 445.838 308.17 445.514C307.838 445.189 307.672 444.631 307.672 443.838V440.275H305.92V439.438H307.672V437.574H308.75ZM318.945 442.18V442.707H314.275V442.742C314.244 443.637 314.414 444.279 314.785 444.67C315.16 445.061 315.688 445.256 316.367 445.256C316.711 445.256 317.07 445.201 317.445 445.092C317.82 444.982 318.221 444.816 318.646 444.594V445.666C318.236 445.834 317.84 445.959 317.457 446.041C317.078 446.127 316.711 446.17 316.355 446.17C315.336 446.17 314.539 445.865 313.965 445.256C313.391 444.643 313.104 443.799 313.104 442.725C313.104 441.678 313.385 440.842 313.947 440.217C314.51 439.592 315.26 439.279 316.197 439.279C317.033 439.279 317.691 439.562 318.172 440.129C318.656 440.695 318.914 441.379 318.945 442.18ZM317.867 441.863C317.82 441.41 317.654 441.02 317.369 440.691C317.088 440.359 316.682 440.193 316.15 440.193C315.631 440.193 315.203 440.365 314.867 440.709C314.531 441.053 314.348 441.439 314.316 441.869L317.867 441.863ZM325.314 439.666V440.721C325.006 440.541 324.695 440.406 324.383 440.316C324.07 440.227 323.752 440.182 323.428 440.182C322.939 440.182 322.574 440.262 322.332 440.422C322.094 440.578 321.975 440.818 321.975 441.143C321.975 441.436 322.064 441.654 322.244 441.799C322.424 441.943 322.871 442.084 323.586 442.221L324.02 442.303C324.555 442.404 324.959 442.607 325.232 442.912C325.51 443.217 325.648 443.613 325.648 444.102C325.648 444.75 325.418 445.258 324.957 445.625C324.496 445.988 323.855 446.17 323.035 446.17C322.711 446.17 322.371 446.135 322.016 446.064C321.66 445.998 321.275 445.896 320.861 445.76V444.646C321.264 444.854 321.648 445.01 322.016 445.115C322.383 445.217 322.73 445.268 323.059 445.268C323.535 445.268 323.904 445.172 324.166 444.98C324.428 444.785 324.559 444.514 324.559 444.166C324.559 443.666 324.08 443.32 323.123 443.129L323.076 443.117L322.672 443.035C322.051 442.914 321.598 442.711 321.312 442.426C321.027 442.137 320.885 441.744 320.885 441.248C320.885 440.619 321.098 440.135 321.523 439.795C321.949 439.451 322.557 439.279 323.346 439.279C323.697 439.279 324.035 439.312 324.359 439.379C324.684 439.441 325.002 439.537 325.314 439.666ZM330.441 437.574V439.438H332.891V440.275H330.441V443.838C330.441 444.322 330.533 444.66 330.717 444.852C330.9 445.043 331.221 445.139 331.678 445.139H332.891V446H331.572C330.764 446 330.193 445.838 329.861 445.514C329.529 445.189 329.363 444.631 329.363 443.838V440.275H327.611V439.438H329.363V437.574H330.441Z" fill="#D7BA7D" />
            <rect x="22" y="278" width="526" height="15" fill="var(--vscode-input-background, #3c3c3c)" />
            <rect x="55" y="293" width="192" height="218" fill="var(--vscode-quickInput-background, #252526)" />
            <path d="M62.9169 309.56V305.065H64.5469V304.128H60.1499V305.065H61.78V309.56H62.9169ZM69.151 308.623H66.689V307.249H69.0117V306.375H66.689V305.065H69.151V304.128H65.5521V309.56H69.151V308.623ZM70.1034 308.058C70.1448 309.063 70.9843 309.7 72.2794 309.7C73.6421 309.7 74.4816 309.029 74.4816 307.945C74.4816 307.106 74.0111 306.635 72.9193 306.402L72.2643 306.262C71.6281 306.123 71.3683 305.924 71.3683 305.581C71.3683 305.156 71.7448 304.881 72.3132 304.881C72.8629 304.881 73.2619 305.171 73.3146 305.615H74.3838C74.3499 304.655 73.5028 303.989 72.3057 303.989C71.0521 303.989 70.2277 304.659 70.2277 305.671C70.2277 306.496 70.7133 307.004 71.7034 307.215L72.4111 307.369C73.0774 307.516 73.3485 307.723 73.3485 308.081C73.3485 308.502 72.9306 308.8 72.3396 308.8C71.6996 308.8 71.2554 308.51 71.2027 308.058H70.1034ZM78.0128 309.56V305.065H79.6429V304.128H75.2458V305.065H76.8759V309.56H78.0128ZM81.7849 309.56V304.128H80.648V309.56H81.7849ZM84.1905 309.56V306.086H84.2582L86.7654 309.56H87.7066V304.128H86.6186V307.588H86.5508L84.0512 304.128H83.1025V309.56H84.1905ZM93.8014 307.354V306.665H91.5201V307.493H92.6984L92.6946 307.595C92.672 308.273 92.1563 308.728 91.4109 308.728C90.5149 308.728 89.9502 308.009 89.9502 306.827C89.9502 305.668 90.4886 304.956 91.3657 304.956C91.9982 304.956 92.4537 305.28 92.6231 305.848H93.7525C93.5943 304.723 92.6494 303.989 91.3657 303.989C89.7846 303.989 88.787 305.092 88.787 306.838C88.787 308.612 89.7771 309.7 91.3921 309.7C92.8753 309.7 93.8014 308.796 93.8014 307.354Z" fill="var(--vscode-foreground, #CCCCCC)" />
            <path d="M166.404 302.729L165.88 303.028V311.439L166.404 311.738L172.721 307.551V306.953L166.404 302.729ZM166.553 310.803V303.701L171.899 307.252L166.553 310.803ZM168.684 311.626L174.814 307.551V306.953L168.684 302.841V303.701L173.992 307.252L168.684 310.803V311.626Z" fill="var(--vscode-foreground, #CCCCCC)" />
            <path d="M188.59 307.663L187.954 308.261C187.855 307.888 187.643 307.576 187.319 307.327C187.02 307.078 186.671 306.953 186.272 306.953C185.874 306.953 185.512 307.078 185.188 307.327C184.889 307.576 184.69 307.888 184.59 308.261L183.955 307.663L183.469 308.149L184.291 308.934L184.179 309.046V309.757H183.469V310.467H184.179V310.504C184.204 310.729 184.266 310.953 184.366 311.177L183.469 312.074L183.955 312.56L184.74 311.775C184.914 312.024 185.138 312.224 185.413 312.373C185.687 312.498 185.973 312.56 186.272 312.56C186.571 312.56 186.858 312.498 187.132 312.373C187.406 312.224 187.63 312.024 187.805 311.775L188.59 312.56L189.076 312.074L188.179 311.14C188.278 310.94 188.341 310.716 188.366 310.467V310.43H189.076V309.757H188.366V309.046L188.291 308.934L189.076 308.149L188.59 307.663ZM186.272 307.663C186.571 307.663 186.821 307.763 187.02 307.962C187.219 308.162 187.319 308.411 187.319 308.71H185.226C185.226 308.411 185.325 308.162 185.525 307.962C185.724 307.763 185.973 307.663 186.272 307.663ZM187.693 310.467C187.643 310.841 187.481 311.165 187.207 311.439C186.958 311.688 186.646 311.825 186.272 311.85C185.898 311.825 185.574 311.688 185.3 311.439C185.051 311.165 184.914 310.841 184.889 310.467V309.42H187.693V310.467ZM194.571 305.832V306.43L189.786 309.458V308.635L193.748 306.131L187.693 302.28V306.691C187.468 306.542 187.232 306.43 186.983 306.355V301.645L187.506 301.346L194.571 305.832Z" fill="var(--vscode-foreground, #CCCCCC)" />
            <path d="M203.898 302.056L203.188 302.729V311.14L203.898 311.85H212.309L212.982 311.14V302.729L212.309 302.056H203.898ZM203.898 311.14V302.729H212.309V311.14H203.898ZM206.515 309.271L207.001 309.794L209.468 307.327V306.916L207.001 304.449L206.515 304.935L208.683 307.14L206.515 309.271Z" fill="var(--vscode-foreground, #CCCCCC)" />
            <path d="M224.29 306.953C224.29 307.152 224.215 307.327 224.066 307.476C223.941 307.601 223.779 307.663 223.58 307.663C223.381 307.663 223.219 307.601 223.094 307.476C222.969 307.327 222.907 307.152 222.907 306.953C222.907 306.754 222.969 306.592 223.094 306.467C223.219 306.318 223.381 306.243 223.58 306.243C223.779 306.243 223.941 306.318 224.066 306.467C224.215 306.592 224.29 306.754 224.29 306.953ZM227.804 306.953C227.804 307.152 227.729 307.327 227.58 307.476C227.455 307.601 227.293 307.663 227.094 307.663C226.894 307.663 226.72 307.601 226.57 307.476C226.446 307.327 226.384 307.152 226.384 306.953C226.384 306.754 226.446 306.592 226.57 306.467C226.72 306.318 226.894 306.243 227.094 306.243C227.293 306.243 227.455 306.318 227.58 306.467C227.729 306.592 227.804 306.754 227.804 306.953ZM231.318 306.953C231.318 307.152 231.243 307.327 231.094 307.476C230.969 307.601 230.807 307.663 230.608 307.663C230.408 307.663 230.234 307.601 230.084 307.476C229.96 307.327 229.897 307.152 229.897 306.953C229.897 306.754 229.96 306.592 230.084 306.467C230.234 306.318 230.408 306.243 230.608 306.243C230.807 306.243 230.969 306.318 231.094 306.467C231.243 306.592 231.318 306.754 231.318 306.953Z" fill="var(--vscode-foreground, #CCCCCC)" />
            <rect width="192" height="218" transform="translate(55 293)" fill="var(--vscode-quickInput-background, #252526)" />
            <path d="M62.9169 314.56V310.065H64.5469V309.128H60.1499V310.065H61.78V314.56H62.9169ZM69.151 313.623H66.689V312.249H69.0117V311.375H66.689V310.065H69.151V309.128H65.5521V314.56H69.151V313.623ZM70.1034 313.058C70.1448 314.063 70.9843 314.7 72.2794 314.7C73.6421 314.7 74.4816 314.029 74.4816 312.945C74.4816 312.106 74.0111 311.635 72.9193 311.402L72.2643 311.262C71.6281 311.123 71.3683 310.924 71.3683 310.581C71.3683 310.156 71.7448 309.881 72.3132 309.881C72.8629 309.881 73.2619 310.171 73.3146 310.615H74.3838C74.3499 309.655 73.5028 308.989 72.3057 308.989C71.0521 308.989 70.2277 309.659 70.2277 310.671C70.2277 311.496 70.7133 312.004 71.7034 312.215L72.4111 312.369C73.0774 312.516 73.3485 312.723 73.3485 313.081C73.3485 313.502 72.9306 313.8 72.3396 313.8C71.6996 313.8 71.2554 313.51 71.2027 313.058H70.1034ZM78.0128 314.56V310.065H79.6429V309.128H75.2458V310.065H76.8759V314.56H78.0128ZM81.7849 314.56V309.128H80.648V314.56H81.7849ZM84.1905 314.56V311.086H84.2582L86.7654 314.56H87.7066V309.128H86.6186V312.588H86.5508L84.0512 309.128H83.1025V314.56H84.1905ZM93.8014 312.354V311.665H91.5201V312.493H92.6984L92.6946 312.595C92.672 313.273 92.1563 313.728 91.4109 313.728C90.5149 313.728 89.9502 313.009 89.9502 311.827C89.9502 310.668 90.4886 309.956 91.3657 309.956C91.9982 309.956 92.4537 310.28 92.6231 310.848H93.7525C93.5943 309.723 92.6494 308.989 91.3657 308.989C89.7846 308.989 88.787 310.092 88.787 311.838C88.787 313.612 89.7771 314.7 91.3921 314.7C92.8753 314.7 93.8014 313.796 93.8014 312.354Z" fill="var(--vscode-foreground, #CCCCCC)" />
            <path d="M167.404 307.729L166.88 308.028V316.439L167.404 316.738L173.721 312.551V311.953L167.404 307.729ZM167.553 315.803V308.701L172.899 312.252L167.553 315.803ZM169.684 316.626L175.814 312.551V311.953L169.684 307.841V308.701L174.992 312.252L169.684 315.803V316.626Z" fill="var(--vscode-foreground, #CCCCCC)" />
            <path d="M189.59 312.663L188.954 313.261C188.855 312.888 188.643 312.576 188.319 312.327C188.02 312.078 187.671 311.953 187.272 311.953C186.874 311.953 186.512 312.078 186.188 312.327C185.889 312.576 185.69 312.888 185.59 313.261L184.955 312.663L184.469 313.149L185.291 313.934L185.179 314.046V314.757H184.469V315.467H185.179V315.504C185.204 315.729 185.266 315.953 185.366 316.177L184.469 317.074L184.955 317.56L185.74 316.775C185.914 317.024 186.138 317.224 186.413 317.373C186.687 317.498 186.973 317.56 187.272 317.56C187.571 317.56 187.858 317.498 188.132 317.373C188.406 317.224 188.63 317.024 188.805 316.775L189.59 317.56L190.076 317.074L189.179 316.14C189.278 315.94 189.341 315.716 189.366 315.467V315.43H190.076V314.757H189.366V314.046L189.291 313.934L190.076 313.149L189.59 312.663ZM187.272 312.663C187.571 312.663 187.821 312.763 188.02 312.962C188.219 313.162 188.319 313.411 188.319 313.71H186.226C186.226 313.411 186.325 313.162 186.525 312.962C186.724 312.763 186.973 312.663 187.272 312.663ZM188.693 315.467C188.643 315.841 188.481 316.165 188.207 316.439C187.958 316.688 187.646 316.825 187.272 316.85C186.898 316.825 186.574 316.688 186.3 316.439C186.051 316.165 185.914 315.841 185.889 315.467V314.42H188.693V315.467ZM195.571 310.832V311.43L190.786 314.458V313.635L194.748 311.131L188.693 307.28V311.691C188.468 311.542 188.232 311.43 187.983 311.355V306.645L188.506 306.346L195.571 310.832Z" fill="var(--vscode-foreground, #CCCCCC)" />
            <path d="M204.898 307.056L204.188 307.729V316.14L204.898 316.85H213.309L213.982 316.14V307.729L213.309 307.056H204.898ZM204.898 316.14V307.729H213.309V316.14H204.898ZM207.515 314.271L208.001 314.794L210.468 312.327V311.916L208.001 309.449L207.515 309.935L209.683 312.14L207.515 314.271Z" fill="var(--vscode-foreground, #CCCCCC)" />
            <path d="M225.29 311.953C225.29 312.152 225.215 312.327 225.066 312.476C224.941 312.601 224.779 312.663 224.58 312.663C224.381 312.663 224.219 312.601 224.094 312.476C223.969 312.327 223.907 312.152 223.907 311.953C223.907 311.754 223.969 311.592 224.094 311.467C224.219 311.318 224.381 311.243 224.58 311.243C224.779 311.243 224.941 311.318 225.066 311.467C225.215 311.592 225.29 311.754 225.29 311.953ZM228.804 311.953C228.804 312.152 228.729 312.327 228.58 312.476C228.455 312.601 228.293 312.663 228.094 312.663C227.894 312.663 227.72 312.601 227.57 312.476C227.446 312.327 227.384 312.152 227.384 311.953C227.384 311.754 227.446 311.592 227.57 311.467C227.72 311.318 227.894 311.243 228.094 311.243C228.293 311.243 228.455 311.318 228.58 311.467C228.729 311.592 228.804 311.754 228.804 311.953ZM232.318 311.953C232.318 312.152 232.243 312.327 232.094 312.476C231.969 312.601 231.807 312.663 231.608 312.663C231.408 312.663 231.234 312.601 231.084 312.476C230.96 312.327 230.897 312.152 230.897 311.953C230.897 311.754 230.96 311.592 231.084 311.467C231.234 311.318 231.408 311.243 231.608 311.243C231.807 311.243 231.969 311.318 232.094 311.467C232.243 311.592 232.318 311.754 232.318 311.953Z" fill="var(--vscode-foreground, #CCCCCC)" />
            <rect x="59" y="321" width="180" height="20" fill="var(--vscode-input-background, #3c3c3c)" />
            <path d="M66.7798 334.42V331.765H69.5044V330.935H66.7798V328.927H69.7549V328.078H65.7954V334.42H66.7798ZM71.4116 328.795C71.7412 328.795 72.0093 328.527 72.0093 328.201C72.0093 327.872 71.7412 327.604 71.4116 327.604C71.082 327.604 70.814 327.872 70.814 328.201C70.814 328.527 71.082 328.795 71.4116 328.795ZM70.9414 334.42H71.8818V329.647H70.9414V334.42ZM73.3145 334.42H74.2593V327.775H73.3145V334.42ZM76.0127 328.443V329.66H75.2524V330.416H76.0127V333.163C76.0127 334.081 76.4302 334.45 77.4805 334.45C77.665 334.45 77.8408 334.428 77.9946 334.402V333.651C77.8628 333.664 77.7793 333.673 77.6343 333.673C77.1641 333.673 76.9575 333.448 76.9575 332.934V330.416H77.9946V329.66H76.9575V328.443H76.0127ZM82.1914 333.141C82.0156 333.528 81.6245 333.739 81.0532 333.739C80.2974 333.739 79.8096 333.194 79.7788 332.328V332.284H83.1582V331.959C83.1582 330.465 82.354 329.555 81.0225 329.555C79.6733 329.555 78.8164 330.526 78.8164 332.042C78.8164 333.567 79.6558 334.512 81.0269 334.512C82.1211 334.512 82.8945 333.985 83.1011 333.141H82.1914ZM81.0181 330.324C81.7168 330.324 82.1738 330.829 82.1958 331.603H79.7788C79.8315 330.834 80.3193 330.324 81.0181 330.324ZM84.292 334.42H85.2368V331.568C85.2368 330.895 85.7422 330.434 86.4585 330.434C86.6255 330.434 86.9067 330.465 86.9858 330.487V329.599C86.8848 329.577 86.7046 329.564 86.564 329.564C85.9399 329.564 85.4082 329.902 85.272 330.372H85.2017V329.647H84.292V334.42Z" fill="var(--vscode-foreground, #CCCCCC)" />
            <path d="M234.367 328.653V329.72L231.267 332.686V336.153H228.767V332.686L225.633 329.72V328.653H234.367ZM229.367 332.42V335.553H230.633V332.42L233.767 329.453V329.286H226.267V329.453L229.367 332.42Z" fill="var(--vscode-foreground, #CCCCCC)" />
            <path d="M67 356.5L71.32 352.126L71.96 352.766L67.2667 357.406H66.68L61.9867 352.766L62.6267 352.126L67 356.5Z" fill="var(--vscode-foreground, #808080)" />
            <path fill-rule="evenodd" clip-rule="evenodd" d="M89.45 349.17C90.65 349.245 91.775 349.845 92.6 350.67C93.575 351.72 94.1 352.995 94.1 354.495C94.1 355.695 93.65 356.82 92.9 357.795C92.15 358.695 91.1 359.37 89.9 359.595C88.7 359.82 87.5 359.67 86.45 359.07C85.4 358.47 84.575 357.57 84.125 356.445C83.675 355.32 83.6 354.045 83.975 352.92C84.35 351.72 85.025 350.745 86.075 350.07C87.05 349.395 88.25 349.095 89.45 349.17ZM89.825 358.845C90.8 358.62 91.7 358.095 92.375 357.27C92.975 356.445 93.35 355.47 93.275 354.42C93.275 353.22 92.825 352.02 92 351.195C91.25 350.445 90.35 349.995 89.3 349.92C88.325 349.845 87.275 350.07 86.45 350.67C85.625 351.27 85.025 352.095 84.725 353.145C84.425 354.12 84.425 355.17 84.875 356.145C85.325 357.12 86 357.87 86.9 358.395C87.8 358.92 88.85 359.07 89.825 358.845ZM88.925 354.045L90.725 352.17L91.25 352.695L89.45 354.57L91.25 356.445L90.725 356.97L88.925 355.095L87.125 356.97L86.6 356.445L88.4 354.57L86.6 352.695L87.125 352.17L88.925 354.045Z" fill="#F48771" />
            <rect x="101" y="350.92" width="70" height="7" rx="3.5" fill="var(--vscode-foreground)" fill-opacity="0.25" />
            <path d="M79.08 378.436L74.712 374.084L75.336 373.46L80.008 378.132V378.756L75.336 383.412L74.712 382.804L79.08 378.452V378.436Z" fill="var(--vscode-foreground, #808080)" />
            <path fill-rule="evenodd" clip-rule="evenodd" d="M99.45 373.17C100.65 373.245 101.775 373.845 102.6 374.67C103.575 375.72 104.1 376.995 104.1 378.495C104.1 379.695 103.65 380.82 102.9 381.795C102.15 382.695 101.1 383.37 99.9 383.595C98.7 383.82 97.5 383.67 96.45 383.07C95.4 382.47 94.575 381.57 94.125 380.445C93.675 379.32 93.6 378.045 93.975 376.92C94.35 375.72 95.025 374.745 96.075 374.07C97.05 373.395 98.25 373.095 99.45 373.17ZM99.825 382.845C100.8 382.62 101.7 382.095 102.375 381.27C102.975 380.445 103.35 379.47 103.275 378.42C103.275 377.22 102.825 376.02 102 375.195C101.25 374.445 100.35 373.995 99.3 373.92C98.325 373.845 97.275 374.07 96.45 374.67C95.625 375.27 95.025 376.095 94.725 377.145C94.425 378.12 94.425 379.17 94.875 380.145C95.325 381.12 96 381.87 96.9 382.395C97.8 382.92 98.85 383.07 99.825 382.845ZM98.925 378.045L100.725 376.17L101.25 376.695L99.45 378.57L101.25 380.445L100.725 380.97L98.925 379.095L97.125 380.97L96.6 380.445L98.4 378.57L96.6 376.695L97.125 376.17L98.925 378.045Z" fill="#F48771" />
            <rect x="111" y="374.92" width="61" height="7" rx="3.5" fill="var(--vscode-foreground)" fill-opacity="0.25" />
            <path d="M79.08 402.42L74.7067 398.1L75.3467 397.46L79.9867 402.153V402.74L75.3467 407.433L74.7067 406.793L79.08 402.42Z" fill="var(--vscode-foreground, #808080)" />
            <path fill-rule="evenodd" clip-rule="evenodd" d="M99.45 397.17C100.65 397.245 101.775 397.845 102.6 398.67C103.575 399.72 104.1 400.995 104.1 402.495C104.1 403.695 103.65 404.82 102.9 405.795C102.15 406.695 101.1 407.37 99.9 407.595C98.7 407.82 97.5 407.67 96.45 407.07C95.4 406.47 94.575 405.57 94.125 404.445C93.675 403.32 93.6 402.045 93.975 400.92C94.35 399.72 95.025 398.745 96.075 398.07C97.05 397.395 98.25 397.095 99.45 397.17ZM99.825 406.845C100.8 406.62 101.7 406.095 102.375 405.27C102.975 404.445 103.35 403.47 103.275 402.42C103.275 401.22 102.825 400.02 102 399.195C101.25 398.445 100.35 397.995 99.3 397.92C98.325 397.845 97.275 398.07 96.45 398.67C95.625 399.27 95.025 400.095 94.725 401.145C94.425 402.12 94.425 403.17 94.875 404.145C95.325 405.12 96 405.87 96.9 406.395C97.8 406.92 98.85 407.07 99.825 406.845ZM98.925 402.045L100.725 400.17L101.25 400.695L99.45 402.57L101.25 404.445L100.725 404.97L98.925 403.095L97.125 404.97L96.6 404.445L98.4 402.57L96.6 400.695L97.125 400.17L98.925 402.045Z" fill="#F48771" />
            <rect x="111" y="398.92" width="34" height="7" rx="3.5" fill="var(--vscode-foreground)" fill-opacity="0.25" />
            <path d="M79.08 426.42L74.7067 422.1L75.3467 421.46L79.9867 426.153V426.74L75.3467 431.433L74.7067 430.793L79.08 426.42Z" fill="var(--vscode-foreground, #808080)" />
            <path d="M97.7024 428.572H98.2349L101.655 425.152L101.122 424.62L97.9724 427.777L96.5325 426.337L96 426.87L97.7024 428.572Z" fill="#89D185" />
            <path fill-rule="evenodd" clip-rule="evenodd" d="M99.45 421.17C100.65 421.245 101.775 421.845 102.6 422.67C103.575 423.72 104.1 424.995 104.1 426.495C104.1 427.695 103.65 428.82 102.9 429.795C102.15 430.695 101.1 431.37 99.9 431.595C98.7 431.82 97.5 431.67 96.45 431.07C95.4 430.47 94.575 429.57 94.125 428.445C93.675 427.32 93.6 426.045 93.975 424.92C94.35 423.72 95.025 422.745 96.075 422.07C97.05 421.395 98.25 421.095 99.45 421.17ZM99.825 430.845C100.8 430.62 101.7 430.095 102.375 429.27C102.975 428.445 103.35 427.47 103.275 426.42C103.275 425.22 102.825 424.02 102 423.195C101.25 422.445 100.35 421.995 99.3 421.92C98.325 421.845 97.275 422.07 96.45 422.67C95.625 423.27 95.025 424.095 94.725 425.145C94.425 426.12 94.425 427.17 94.875 428.145C95.325 429.12 96 429.87 96.9 430.395C97.8 430.92 98.85 431.07 99.825 430.845Z" fill="#89D185" />
            <rect x="111" y="422.92" width="34" height="7" rx="3.5" fill="var(--vscode-foreground)" fill-opacity="0.25" />
            <rect width="192" height="24" transform="translate(55 438.42)" fill="var(--vscode-list-activeSelectionBackground, #062F4A)" />
            <path d="M79.08 450.42L74.7067 446.1L75.3467 445.46L79.9867 450.153V450.74L75.3467 455.433L74.7067 454.793L79.08 450.42Z" fill="var(--vscode-list-activeSelectionForeground, #CCCCCC)" />
            <path d="M97.7024 452.572H98.2349L101.655 449.152L101.122 448.62L97.9724 451.777L96.5325 450.337L96 450.87L97.7024 452.572Z" fill="#89D185" />
            <path fill-rule="evenodd" clip-rule="evenodd" d="M99.45 445.17C100.65 445.245 101.775 445.845 102.6 446.67C103.575 447.72 104.1 448.995 104.1 450.495C104.1 451.695 103.65 452.82 102.9 453.795C102.15 454.695 101.1 455.37 99.9 455.595C98.7 455.82 97.5 455.67 96.45 455.07C95.4 454.47 94.575 453.57 94.125 452.445C93.675 451.32 93.6 450.045 93.975 448.92C94.35 447.72 95.025 446.745 96.075 446.07C97.05 445.395 98.25 445.095 99.45 445.17ZM99.825 454.845C100.8 454.62 101.7 454.095 102.375 453.27C102.975 452.445 103.35 451.47 103.275 450.42C103.275 449.22 102.825 448.02 102 447.195C101.25 446.445 100.35 445.995 99.3 445.92C98.325 445.845 97.275 446.07 96.45 446.67C95.625 447.27 95.025 448.095 94.725 449.145C94.425 450.12 94.425 451.17 94.875 452.145C95.325 453.12 96 453.87 96.9 454.395C97.8 454.92 98.85 455.07 99.825 454.845Z" fill="#89D185" />
            <rect opacity="0.25" x="111" y="446.92" width="73" height="7" rx="3.5" fill="var(--vscode-foreground, white)" />
            <path d="M194.757 446.28L194.196 446.579V454.99L194.757 455.289L201.074 451.103V450.504L194.757 446.28ZM194.906 454.355V447.252L200.252 450.804L194.906 454.355Z" fill="var(--vscode-list-activeSelectionForeground, #CCCCCC)" />
            <path d="M215.447 451.215L214.812 451.813C214.712 451.439 214.5 451.127 214.176 450.878C213.877 450.629 213.528 450.504 213.13 450.504C212.731 450.504 212.369 450.629 212.045 450.878C211.746 451.127 211.547 451.439 211.447 451.813L210.812 451.215L210.326 451.701L211.148 452.486L211.036 452.598V453.308H210.326V454.018H211.036V454.056C211.061 454.28 211.123 454.504 211.223 454.729L210.326 455.626L210.812 456.112L211.597 455.327C211.771 455.576 211.996 455.775 212.27 455.925C212.544 456.049 212.83 456.112 213.13 456.112C213.429 456.112 213.715 456.049 213.989 455.925C214.263 455.775 214.488 455.576 214.662 455.327L215.447 456.112L215.933 455.626L215.036 454.691C215.136 454.492 215.198 454.268 215.223 454.018V453.981H215.933V453.308H215.223V452.598L215.148 452.486L215.933 451.701L215.447 451.215ZM213.13 451.215C213.429 451.215 213.678 451.314 213.877 451.514C214.076 451.713 214.176 451.962 214.176 452.261H212.083C212.083 451.962 212.183 451.713 212.382 451.514C212.581 451.314 212.83 451.215 213.13 451.215ZM214.55 454.018C214.5 454.392 214.338 454.716 214.064 454.99C213.815 455.239 213.503 455.376 213.13 455.401C212.756 455.376 212.432 455.239 212.158 454.99C211.908 454.716 211.771 454.392 211.746 454.018V452.972H214.55V454.018ZM221.428 449.383V449.981L216.643 453.009V452.187L220.606 449.682L214.55 445.832V450.243C214.326 450.093 214.089 449.981 213.84 449.906V445.196L214.363 444.897L221.428 449.383Z" fill="var(--vscode-list-activeSelectionForeground, #CCCCCC)" />
            <path d="M232.772 449.047L234.193 447.589V447.103L232.697 445.608L232.211 446.094L233.108 446.991H231.015C230.517 446.991 230.093 447.165 229.744 447.514C229.42 447.863 229.258 448.287 229.258 448.785C229.258 449.258 229.42 449.67 229.744 450.019C230.093 450.342 230.517 450.504 231.015 450.504H231.352V449.794H231.015C230.716 449.794 230.467 449.695 230.268 449.495C230.068 449.296 229.956 449.047 229.931 448.748C229.931 448.449 230.031 448.199 230.23 448C230.454 447.801 230.716 447.701 231.015 447.701H233.108L232.211 448.598L232.697 449.084L232.772 449.047ZM236.248 446.28H234.379L233.669 445.608H236.959L237.445 445.794L239.575 447.888L239.762 448.411V454.691L239.052 455.401H232.772L232.062 454.691V449.458L232.772 450.056V454.691H239.052V449.084H236.248V446.28ZM236.959 446.28V448.411H239.052L236.959 446.28Z" fill="var(--vscode-list-activeSelectionForeground, #CCCCCC)" />
            <rect x="247" y="293" width="301" height="24" fill="var(--vscode-quickInput-background, #252526)" />
            <rect x="247.337" y="293.149" width="81.9443" height="24.1013" fill="var(--vscode-editor-background, #1e1e1e)" />
            <path fill-rule="evenodd" clip-rule="evenodd" d="M256.188 438.25L257.062 437.782L263.062 441.782V442.718L257.062 446.718L256.188 446.25V438.25ZM257.313 439.301V445.199L261.736 442.25L257.313 439.301Z" fill="#89D185" />
            <rect x="22" y="293" width="33" height="218" fill="var(--vscode-activityBar-background , #333333)" />
            <path d="M44.5862 463.546L40.6198 455.778V451.647H41.6114V450.6H35.4415V451.592H36.4882V455.723L32.4116 463.546C32.2647 463.913 32.2831 464.262 32.4667 464.593C32.6871 464.886 32.9809 465.033 33.3481 465.033H43.7048C44.0721 465.033 44.3475 464.886 44.5311 464.593C44.7515 464.262 44.7698 463.913 44.5862 463.546ZM37.3696 456.164L37.4798 455.944V451.647H39.5732V455.999L41.5563 459.91H35.4966L37.3696 456.164ZM33.3481 464.042L34.9457 460.902H42.1072L43.7048 464.042H33.3481Z" fill="var(--vscode-activityBar-foreground, white)" />
            <rect x="22" y="443.149" width="1.37722" height="29.6101" fill="var(--vscode-activityBar-foreground, white)" />
            <rect x="30" y="408" width="16" height="16" fill="var(--vscode-activityBar-background , #333333)" />
            <rect x="31" y="409" width="14" height="14" stroke="#858585" stroke-opacity="0.4" stroke-width="2" />
            <rect x="30" y="372" width="16" height="16" fill="var(--vscode-activityBar-background , #333333)" />
            <rect x="31" y="373" width="14" height="14" stroke="#858585" stroke-opacity="0.4" stroke-width="2" />
            <rect x="30" y="337" width="16" height="16" fill="var(--vscode-activityBar-background , #333333)" />
            <rect x="31" y="338" width="14" height="14" stroke="#858585" stroke-opacity="0.4" stroke-width="2" />
            <rect x="30" y="301" width="16" height="16" fill="var(--vscode-activityBar-background , #333333)" />
            <rect x="31" y="302" width="14" height="14" stroke="#858585" stroke-opacity="0.4" stroke-width="2" />
        </g>
        <g filter="url(#filter1_d_1322_191470)">
            <g clip-path="url(#clip1_1322_191470)">
                <rect width="302" height="218" transform="translate(247 15)" fill="var(--vscode-editor-background, #1e1e1e)" />
                <rect x="269" y="55" width="83" height="8" rx="4" fill="#007ACC" />
                <rect x="269" y="75" width="65" height="8" rx="4" fill="#007ACC" />
                <rect x="269" y="95" width="83" height="8" rx="4" fill="#007ACC" />
                <g opacity="0.25">
                    <rect width="302" height="24" transform="translate(247 133)" fill="#CCA700" />
                </g>
                <path d="M265.88 144.36L262.68 140.8L262 140.48H258.2L257.24 141.44V148.56L258.2 149.48H262L262.68 149.16L265.88 145.6V144.36ZM262 148.56H258.2V141.44H262L265.16 145L262 148.56Z" fill="#DFD155" />
                <path d="M261 115C261.356 115 261.711 115.053 262.067 115.16C262.742 115.338 263.329 115.676 263.827 116.173C264.324 116.671 264.662 117.258 264.84 117.933C264.947 118.289 265 118.644 265 119C265 119.356 264.947 119.711 264.84 120.067C264.662 120.742 264.324 121.329 263.827 121.827C263.329 122.324 262.742 122.662 262.067 122.84C261.711 122.947 261.356 123 261 123C260.644 123 260.289 122.947 259.933 122.84C259.258 122.662 258.671 122.324 258.173 121.827C257.676 121.329 257.338 120.742 257.16 120.067C257.053 119.711 257 119.356 257 119C257 118.644 257.036 118.307 257.107 117.987C257.213 117.631 257.356 117.293 257.533 116.973C257.889 116.369 258.369 115.889 258.973 115.533C259.293 115.356 259.613 115.231 259.933 115.16C260.289 115.053 260.644 115 261 115Z" fill="#F14C4C" />
                <rect x="269" y="187" width="65" height="8" rx="4" fill="#007ACC" />
                <rect x="269" y="207" width="65" height="8" rx="4" fill="#007ACC" />
                <rect x="269" y="114" width="54" height="8" rx="4" fill="#007ACC" />
                <rect x="358" y="55" width="42" height="8" rx="4" fill="#D7BA7D" />
                <rect x="340" y="75" width="42" height="8" rx="4" fill="#D7BA7D" />
                <rect x="358" y="95" width="42" height="8" rx="4" fill="#D7BA7D" />
                <rect x="340" y="187" width="108" height="8" rx="4" fill="#D7BA7D" />
                <rect x="340" y="207" width="54" height="8" rx="4" fill="#D7BA7D" />
                <rect x="329" y="114" width="163" height="8" rx="4" fill="#D7BA7D" />
                <rect x="268.5" y="20.5" width="169" height="25" fill="var(--vscode-editor-background, #1e1e1e)" />
                <path d="M278.013 27.9867H279.987V30.0133H278.013V27.9867ZM278.013 31.9867H279.987V34.0133H278.013V31.9867ZM278.013 35.9867H279.987V38.0133H278.013V35.9867ZM282.013 27.9867H283.987V30.0133H282.013V27.9867ZM282.013 31.9867H283.987V34.0133H282.013V31.9867ZM282.013 35.9867H283.987V38.0133H282.013V35.9867Z" fill="var(--vscode-foreground, #CCCCCC)" />
                <path fill-rule="evenodd" clip-rule="evenodd" d="M301.25 28L302.416 27.376L310.416 32.7093V33.9574L302.416 39.2907L301.25 38.6667V28ZM302.75 29.4014V37.2653L308.648 33.3333L302.75 29.4014Z" fill="#89D185" />
                <path fill-rule="evenodd" clip-rule="evenodd" d="M335.25 30.75V26.75H333.75V29.2916C332.605 27.933 330.839 27.0833 328.909 27.0833C325.733 27.0833 322.989 29.3904 322.751 32.4807L322.73 32.75H324.231L324.253 32.5241C324.465 30.3293 326.455 28.5833 328.909 28.5833C330.645 28.5833 332.153 29.4593 332.959 30.75H330.13V32.25H334.292L335.253 31.2749V30.75H335.25ZM329 39C330.105 39 331 38.1046 331 37C331 35.8954 330.105 35 329 35C327.895 35 327 35.8954 327 37C327 38.1046 327.895 39 329 39Z" fill="#75BEFF" />
                <path fill-rule="evenodd" clip-rule="evenodd" d="M353 34.532H353.542L357.447 30.627L356.386 29.567L353.749 32.177L353.749 26H353H352.251L352.251 32.177L349.614 29.567L348.553 30.627L352.458 34.532H353ZM354.956 38.013C354.956 39.1176 354.061 40.013 352.956 40.013C351.851 40.013 350.956 39.1176 350.956 38.013C350.956 36.9084 351.851 36.013 352.956 36.013C354.061 36.013 354.956 36.9084 354.956 38.013Z" fill="#75BEFF" />
                <path fill-rule="evenodd" clip-rule="evenodd" d="M377 26H376.458L372.553 29.905L373.614 30.965L376.251 28.355V34.532H377H377.749V28.355L380.386 30.965L381.447 29.905L377.542 26H377ZM378.956 38.013C378.956 39.1176 378.061 40.013 376.956 40.013C375.851 40.013 374.956 39.1176 374.956 38.013C374.956 36.9084 375.851 36.013 376.956 36.013C378.061 36.013 378.956 36.9084 378.956 38.013Z" fill="#75BEFF" />
                <path fill-rule="evenodd" clip-rule="evenodd" d="M405.75 33C405.75 35.4853 403.735 37.5 401.25 37.5C399.418 37.5 397.842 36.4052 397.14 34.8342L395.749 35.399C396.674 37.5186 398.789 39 401.25 39C404.564 39 407.25 36.3137 407.25 33C407.25 29.6863 404.564 27 401.25 27C399.317 27 397.597 27.9142 396.5 29.3338V27.5H395V31.5L395.75 32.25H399.25V30.75H397.352C398.13 29.4049 399.584 28.5 401.25 28.5C403.735 28.5 405.75 30.5147 405.75 33Z" fill="#89D185" />
                <path d="M421.464 29.4645H428.536V36.5355H421.464V29.4645Z" fill="#E51400" />
                <rect x="268.5" y="20.5" width="169" height="25" stroke="var(--vscode-dropdown-border, #3c3c3c)" />
                <path d="M274.93 140.551V141.752C274.57 141.521 274.209 141.348 273.846 141.23C273.486 141.113 273.123 141.055 272.756 141.055C272.197 141.055 271.756 141.186 271.432 141.447C271.107 141.705 270.945 142.055 270.945 142.496C270.945 142.883 271.051 143.178 271.262 143.381C271.477 143.584 271.875 143.754 272.457 143.891L273.078 144.031C273.898 144.223 274.496 144.523 274.871 144.934C275.246 145.344 275.434 145.902 275.434 146.609C275.434 147.441 275.176 148.076 274.66 148.514C274.145 148.951 273.395 149.17 272.41 149.17C272 149.17 271.588 149.125 271.174 149.035C270.76 148.949 270.344 148.818 269.926 148.643V147.383C270.375 147.668 270.799 147.877 271.197 148.01C271.6 148.143 272.004 148.209 272.41 148.209C273.008 148.209 273.473 148.076 273.805 147.811C274.137 147.541 274.303 147.166 274.303 146.686C274.303 146.248 274.188 145.914 273.957 145.684C273.73 145.453 273.334 145.275 272.768 145.15L272.135 145.004C271.322 144.82 270.732 144.543 270.365 144.172C269.998 143.801 269.814 143.303 269.814 142.678C269.814 141.896 270.076 141.271 270.6 140.803C271.127 140.33 271.826 140.094 272.697 140.094C273.033 140.094 273.387 140.133 273.758 140.211C274.129 140.285 274.52 140.398 274.93 140.551ZM281.258 146.891C281.078 147.348 280.85 147.949 280.572 148.695C280.186 149.727 279.926 150.355 279.793 150.582C279.613 150.887 279.389 151.115 279.119 151.268C278.85 151.42 278.535 151.496 278.176 151.496H277.309V150.594H277.947C278.264 150.594 278.512 150.502 278.691 150.318C278.871 150.135 279.1 149.66 279.377 148.895L276.84 142.438H277.982L279.928 147.57L281.844 142.438H282.986L281.258 146.891ZM289.162 142.666V143.721C288.854 143.541 288.543 143.406 288.23 143.316C287.918 143.227 287.6 143.182 287.275 143.182C286.787 143.182 286.422 143.262 286.18 143.422C285.941 143.578 285.822 143.818 285.822 144.143C285.822 144.436 285.912 144.654 286.092 144.799C286.271 144.943 286.719 145.084 287.434 145.221L287.867 145.303C288.402 145.404 288.807 145.607 289.08 145.912C289.357 146.217 289.496 146.613 289.496 147.102C289.496 147.75 289.266 148.258 288.805 148.625C288.344 148.988 287.703 149.17 286.883 149.17C286.559 149.17 286.219 149.135 285.863 149.064C285.508 148.998 285.123 148.896 284.709 148.76V147.646C285.111 147.854 285.496 148.01 285.863 148.115C286.23 148.217 286.578 148.268 286.906 148.268C287.383 148.268 287.752 148.172 288.014 147.98C288.275 147.785 288.406 147.514 288.406 147.166C288.406 146.666 287.928 146.32 286.971 146.129L286.924 146.117L286.52 146.035C285.898 145.914 285.445 145.711 285.16 145.426C284.875 145.137 284.732 144.744 284.732 144.248C284.732 143.619 284.945 143.135 285.371 142.795C285.797 142.451 286.404 142.279 287.193 142.279C287.545 142.279 287.883 142.312 288.207 142.379C288.531 142.441 288.85 142.537 289.162 142.666ZM294.289 140.574V142.438H296.738V143.275H294.289V146.838C294.289 147.322 294.381 147.66 294.564 147.852C294.748 148.043 295.068 148.139 295.525 148.139H296.738V149H295.42C294.611 149 294.041 148.838 293.709 148.514C293.377 148.189 293.211 147.631 293.211 146.838V143.275H291.459V142.438H293.211V140.574H294.289ZM304.484 145.18V145.707H299.814V145.742C299.783 146.637 299.953 147.279 300.324 147.67C300.699 148.061 301.227 148.256 301.906 148.256C302.25 148.256 302.609 148.201 302.984 148.092C303.359 147.982 303.76 147.816 304.186 147.594V148.666C303.775 148.834 303.379 148.959 302.996 149.041C302.617 149.127 302.25 149.17 301.895 149.17C300.875 149.17 300.078 148.865 299.504 148.256C298.93 147.643 298.643 146.799 298.643 145.725C298.643 144.678 298.924 143.842 299.486 143.217C300.049 142.592 300.799 142.279 301.736 142.279C302.572 142.279 303.23 142.562 303.711 143.129C304.195 143.695 304.453 144.379 304.484 145.18ZM303.406 144.863C303.359 144.41 303.193 144.02 302.908 143.691C302.627 143.359 302.221 143.193 301.689 143.193C301.17 143.193 300.742 143.365 300.406 143.709C300.07 144.053 299.887 144.439 299.855 144.869L303.406 144.863ZM309.113 143.105C309.246 142.824 309.414 142.617 309.617 142.484C309.824 142.348 310.072 142.279 310.361 142.279C310.889 142.279 311.26 142.484 311.475 142.895C311.693 143.301 311.803 144.068 311.803 145.197V149H310.818V145.244C310.818 144.318 310.766 143.744 310.66 143.521C310.559 143.295 310.371 143.182 310.098 143.182C309.785 143.182 309.57 143.303 309.453 143.545C309.34 143.783 309.283 144.35 309.283 145.244V149H308.299V145.244C308.299 144.307 308.242 143.729 308.129 143.51C308.02 143.291 307.82 143.182 307.531 143.182C307.246 143.182 307.047 143.303 306.934 143.545C306.824 143.783 306.77 144.35 306.77 145.244V149H305.791V142.438H306.77V143C306.898 142.766 307.059 142.588 307.25 142.467C307.445 142.342 307.666 142.279 307.912 142.279C308.209 142.279 308.455 142.348 308.65 142.484C308.85 142.621 309.004 142.828 309.113 143.105Z" fill="#81B88B" />
                <path d="M314.662 146.633H316.725V149H314.662V146.633ZM343.584 146.633H345.646V149H343.584V146.633ZM350.732 148.174V151.496H349.648V142.438H350.732V143.275C350.912 142.951 351.15 142.705 351.447 142.537C351.748 142.365 352.094 142.279 352.484 142.279C353.277 142.279 353.898 142.586 354.348 143.199C354.801 143.812 355.027 144.662 355.027 145.748C355.027 146.814 354.801 147.652 354.348 148.262C353.895 148.867 353.273 149.17 352.484 149.17C352.086 149.17 351.736 149.086 351.436 148.918C351.139 148.746 350.904 148.498 350.732 148.174ZM353.896 145.725C353.896 144.889 353.764 144.258 353.498 143.832C353.236 143.406 352.846 143.193 352.326 143.193C351.803 143.193 351.406 143.408 351.137 143.838C350.867 144.264 350.732 144.893 350.732 145.725C350.732 146.553 350.867 147.182 351.137 147.611C351.406 148.041 351.803 148.256 352.326 148.256C352.846 148.256 353.236 148.043 353.498 147.617C353.764 147.191 353.896 146.561 353.896 145.725ZM362.533 143.791C362.303 143.611 362.068 143.48 361.83 143.398C361.592 143.316 361.33 143.275 361.045 143.275C360.373 143.275 359.859 143.486 359.504 143.908C359.148 144.33 358.971 144.939 358.971 145.736V149H357.887V142.438H358.971V143.721C359.15 143.256 359.426 142.9 359.797 142.654C360.172 142.404 360.615 142.279 361.127 142.279C361.393 142.279 361.641 142.312 361.871 142.379C362.102 142.445 362.322 142.549 362.533 142.689V143.791ZM364.848 142.461H367.607V148.162H369.746V149H364.391V148.162H366.529V143.299H364.848V142.461ZM366.529 139.912H367.607V141.271H366.529V139.912ZM376.385 144.934V149H375.301V144.934C375.301 144.344 375.197 143.91 374.99 143.633C374.783 143.355 374.459 143.217 374.018 143.217C373.514 143.217 373.125 143.396 372.852 143.756C372.582 144.111 372.447 144.623 372.447 145.291V149H371.369V142.438H372.447V143.422C372.639 143.047 372.898 142.764 373.227 142.572C373.555 142.377 373.943 142.279 374.393 142.279C375.061 142.279 375.559 142.5 375.887 142.941C376.219 143.379 376.385 144.043 376.385 144.934ZM381.055 140.574V142.438H383.504V143.275H381.055V146.838C381.055 147.322 381.146 147.66 381.33 147.852C381.514 148.043 381.834 148.139 382.291 148.139H383.504V149H382.186C381.377 149 380.807 148.838 380.475 148.514C380.143 148.189 379.977 147.631 379.977 146.838V143.275H378.225V142.438H379.977V140.574H381.055ZM388.9 146.627C388.9 147.111 388.988 147.477 389.164 147.723C389.344 147.969 389.607 148.092 389.955 148.092H391.215V149H389.85C389.205 149 388.705 148.795 388.35 148.385C387.998 147.971 387.822 147.385 387.822 146.627V140.691H386.094V139.848H388.9V146.627ZM398.076 144.934V149H396.992V144.934C396.992 144.344 396.889 143.91 396.682 143.633C396.475 143.355 396.15 143.217 395.709 143.217C395.205 143.217 394.816 143.396 394.543 143.756C394.273 144.111 394.139 144.623 394.139 145.291V149H393.061V142.438H394.139V143.422C394.33 143.047 394.59 142.764 394.918 142.572C395.246 142.377 395.635 142.279 396.084 142.279C396.752 142.279 397.25 142.5 397.578 142.941C397.91 143.379 398.076 144.043 398.076 144.934ZM404.158 139.309C403.639 140.199 403.25 141.088 402.992 141.975C402.738 142.857 402.611 143.748 402.611 144.646C402.611 145.541 402.738 146.432 402.992 147.318C403.25 148.205 403.639 149.098 404.158 149.996H403.221C402.631 149.066 402.191 148.162 401.902 147.283C401.613 146.4 401.469 145.521 401.469 144.646C401.469 143.775 401.613 142.898 401.902 142.016C402.191 141.133 402.631 140.23 403.221 139.309H404.158ZM466.262 139.309H467.199C467.789 140.23 468.229 141.133 468.518 142.016C468.807 142.898 468.951 143.775 468.951 144.646C468.951 145.525 468.807 146.406 468.518 147.289C468.229 148.172 467.789 149.074 467.199 149.996H466.262C466.781 149.09 467.168 148.193 467.422 147.307C467.68 146.42 467.809 145.533 467.809 144.646C467.809 143.756 467.68 142.867 467.422 141.98C467.168 141.094 466.781 140.203 466.262 139.309ZM474.043 146.885H475.871V148.438L474.717 150.676H473.463L474.043 148.438V146.885ZM473.967 142.443H475.795V144.559H473.967V142.443Z" fill="#F5FFBB" />
                <path d="M323.223 143.193C322.676 143.193 322.262 143.406 321.98 143.832C321.699 144.258 321.559 144.889 321.559 145.725C321.559 146.557 321.699 147.188 321.98 147.617C322.262 148.043 322.676 148.256 323.223 148.256C323.773 148.256 324.189 148.043 324.471 147.617C324.752 147.188 324.893 146.557 324.893 145.725C324.893 144.889 324.752 144.258 324.471 143.832C324.189 143.406 323.773 143.193 323.223 143.193ZM323.223 142.279C324.133 142.279 324.828 142.574 325.309 143.164C325.793 143.754 326.035 144.607 326.035 145.725C326.035 146.846 325.795 147.701 325.314 148.291C324.834 148.877 324.137 149.17 323.223 149.17C322.312 149.17 321.617 148.877 321.137 148.291C320.656 147.701 320.416 146.846 320.416 145.725C320.416 144.607 320.656 143.754 321.137 143.164C321.617 142.574 322.312 142.279 323.223 142.279ZM327.986 146.516V142.449H329.064V146.516C329.064 147.105 329.168 147.539 329.375 147.816C329.586 148.094 329.91 148.232 330.348 148.232C330.855 148.232 331.244 148.055 331.514 147.699C331.783 147.34 331.918 146.826 331.918 146.158V142.449H333.002V149H331.918V148.016C331.727 148.395 331.465 148.682 331.133 148.877C330.805 149.072 330.42 149.17 329.979 149.17C329.307 149.17 328.807 148.951 328.479 148.514C328.15 148.072 327.986 147.406 327.986 146.516ZM337.672 140.574V142.438H340.121V143.275H337.672V146.838C337.672 147.322 337.764 147.66 337.947 147.852C338.131 148.043 338.451 148.139 338.908 148.139H340.121V149H338.803C337.994 149 337.424 148.838 337.092 148.514C336.76 148.189 336.594 147.631 336.594 146.838V143.275H334.842V142.438H336.594V140.574H337.672Z" fill="#75BEFF" />
                <path d="M411.916 139.936V143.521H410.604V139.936H411.916ZM408.793 139.936V143.521H407.48V139.936H408.793ZM414.412 140.252H415.602V143.604H418.842V140.252H420.031V149H418.842V144.6H415.602V149H414.412V140.252ZM427.402 145.18V145.707H422.732V145.742C422.701 146.637 422.871 147.279 423.242 147.67C423.617 148.061 424.145 148.256 424.824 148.256C425.168 148.256 425.527 148.201 425.902 148.092C426.277 147.982 426.678 147.816 427.104 147.594V148.666C426.693 148.834 426.297 148.959 425.914 149.041C425.535 149.127 425.168 149.17 424.812 149.17C423.793 149.17 422.996 148.865 422.422 148.256C421.848 147.643 421.561 146.799 421.561 145.725C421.561 144.678 421.842 143.842 422.404 143.217C422.967 142.592 423.717 142.279 424.654 142.279C425.49 142.279 426.148 142.562 426.629 143.129C427.113 143.695 427.371 144.379 427.402 145.18ZM426.324 144.863C426.277 144.41 426.111 144.02 425.826 143.691C425.545 143.359 425.139 143.193 424.607 143.193C424.088 143.193 423.66 143.365 423.324 143.709C422.988 144.053 422.805 144.439 422.773 144.869L426.324 144.863ZM432.283 146.627C432.283 147.111 432.371 147.477 432.547 147.723C432.727 147.969 432.99 148.092 433.338 148.092H434.598V149H433.232C432.588 149 432.088 148.795 431.732 148.385C431.381 147.971 431.205 147.385 431.205 146.627V140.691H429.477V139.848H432.283V146.627ZM439.514 146.627C439.514 147.111 439.602 147.477 439.777 147.723C439.957 147.969 440.221 148.092 440.568 148.092H441.828V149H440.463C439.818 149 439.318 148.795 438.963 148.385C438.611 147.971 438.436 147.385 438.436 146.627V140.691H436.707V139.848H439.514V146.627ZM446.141 143.193C445.594 143.193 445.18 143.406 444.898 143.832C444.617 144.258 444.477 144.889 444.477 145.725C444.477 146.557 444.617 147.188 444.898 147.617C445.18 148.043 445.594 148.256 446.141 148.256C446.691 148.256 447.107 148.043 447.389 147.617C447.67 147.188 447.811 146.557 447.811 145.725C447.811 144.889 447.67 144.258 447.389 143.832C447.107 143.406 446.691 143.193 446.141 143.193ZM446.141 142.279C447.051 142.279 447.746 142.574 448.227 143.164C448.711 143.754 448.953 144.607 448.953 145.725C448.953 146.846 448.713 147.701 448.232 148.291C447.752 148.877 447.055 149.17 446.141 149.17C445.23 149.17 444.535 148.877 444.055 148.291C443.574 147.701 443.334 146.846 443.334 145.725C443.334 144.607 443.574 143.754 444.055 143.164C444.535 142.574 445.23 142.279 446.141 142.279ZM452.961 140.252H454.15V144.09L454.027 145.889H453.084L452.961 144.09V140.252ZM452.785 147.512H454.326V149H452.785V147.512ZM462.529 139.936V143.521H461.217V139.936H462.529ZM459.406 139.936V143.521H458.094V139.936H459.406Z" fill="#F88070" />
            </g>
            <rect width="192" height="218" transform="translate(55 15)" fill="var(--vscode-quickInput-background, #252526)" />
            <path d="M60.4624 31.128V36.5602H62.6007C64.2269 36.5602 65.1493 35.5664 65.1493 33.8083C65.1493 32.103 64.2157 31.128 62.6007 31.128H60.4624ZM61.5993 32.0653H62.42C63.4063 32.0653 63.9898 32.7053 63.9898 33.8272C63.9898 34.9904 63.4251 35.6229 62.42 35.6229H61.5993V32.0653ZM69.8286 35.6229H67.3666V34.2488H69.6893V33.3754H67.3666V32.0653H69.8286V31.128H66.2297V36.5602H69.8286V35.6229ZM73.4652 36.5602C74.6247 36.5602 75.3437 35.9617 75.3437 35.0055C75.3437 34.3053 74.8204 33.7669 74.1014 33.7105V33.6427C74.6586 33.5599 75.084 33.0592 75.084 32.4832C75.084 31.6437 74.4553 31.128 73.4012 31.128H71.0258V36.5602H73.4652ZM72.1627 31.9712H73.1113C73.6534 31.9712 73.9659 32.2348 73.9659 32.679C73.9659 33.1307 73.6308 33.3867 73.0172 33.3867H72.1627V31.9712ZM72.1627 35.7132V34.1359H73.149C73.8191 34.1359 74.1842 34.4069 74.1842 34.9151C74.1842 35.4346 73.8304 35.7132 73.1753 35.7132H72.1627ZM77.5046 31.128H76.3677V34.6855C76.3677 35.8864 77.2561 36.6995 78.6452 36.6995C80.0344 36.6995 80.919 35.8864 80.919 34.6855V31.128H79.7821V34.5763C79.7821 35.2728 79.3718 35.7245 78.6452 35.7245C77.9187 35.7245 77.5046 35.2728 77.5046 34.5763V31.128ZM87.0101 34.3542V33.6653H84.7288V34.4935H85.9071L85.9033 34.5951C85.8807 35.2728 85.365 35.7283 84.6196 35.7283C83.7236 35.7283 83.159 35.0092 83.159 33.8272C83.159 32.6677 83.6973 31.9562 84.5744 31.9562C85.2069 31.9562 85.6624 32.2799 85.8318 32.8484H86.9612C86.8031 31.7228 85.8582 30.9887 84.5744 30.9887C82.9933 30.9887 81.9957 32.0917 81.9957 33.8385C81.9957 35.6116 82.9858 36.6995 84.6008 36.6995C86.084 36.6995 87.0101 35.796 87.0101 34.3542Z" fill="var(--vscode-foreground, #CCCCCC)" />
            <path d="M217.87 31.4112L217.496 29.729H216.674L216.3 31.4112L215.814 31.6355L214.431 30.7383L213.795 31.299L214.692 32.6821L214.58 33.1681L212.898 33.5419V34.3643L214.58 34.7381L214.767 35.2988L213.87 36.6819L214.431 37.2426L215.814 36.3455L216.375 36.5324L216.674 38.1398H217.496L217.87 36.4576L218.431 36.2707L219.814 37.1679L220.374 36.6071L219.477 35.224L219.664 34.6633L221.309 34.3643V33.5419L219.627 33.1681L219.402 32.6074L220.3 31.2243L219.739 30.6636L218.356 31.5607L217.87 31.4112ZM218.057 29.0562L218.431 30.7383L219.888 29.8038L221.309 31.2243L220.3 32.6821L221.982 32.9812V34.925L220.3 35.2988L221.309 36.7567L219.888 38.1398L218.431 37.1679L218.057 38.85H216.113L215.739 37.1679L214.281 38.1024L212.898 36.6819L213.87 35.224L212.188 34.925V32.9812L213.87 32.6074L212.935 31.1495L214.356 29.729L215.814 30.7383L216.113 29.0562H218.057ZM218.505 33.9531C218.505 34.3269 218.356 34.6509 218.057 34.925C217.783 35.1991 217.459 35.3362 217.085 35.3362C216.711 35.3362 216.387 35.1991 216.113 34.925C215.839 34.6509 215.702 34.3269 215.702 33.9531C215.702 33.5793 215.839 33.2553 216.113 32.9812C216.387 32.6821 216.711 32.5326 217.085 32.5326C217.459 32.5326 217.783 32.6821 218.057 32.9812C218.356 33.2553 218.505 33.5793 218.505 33.9531ZM217.085 34.6633C217.284 34.6633 217.446 34.601 217.571 34.4764C217.72 34.3269 217.795 34.1525 217.795 33.9531C217.795 33.7537 217.72 33.5917 217.571 33.4671C217.446 33.3176 217.284 33.2428 217.085 33.2428C216.885 33.2428 216.711 33.3176 216.561 33.4671C216.437 33.5917 216.375 33.7537 216.375 33.9531C216.375 34.1525 216.437 34.3269 216.561 34.4764C216.711 34.601 216.885 34.6633 217.085 34.6633Z" fill="var(--vscode-foreground, #CCCCCC)" />
            <path d="M231.907 29.0562L231.197 29.729V38.1398L231.907 38.85H240.318L240.991 38.1398V29.729L240.318 29.0562H231.907ZM231.907 38.1398V29.729H240.318V38.1398H231.907ZM234.524 36.2707L235.01 36.794L237.477 34.3269V33.9157L235.01 31.4486L234.524 31.9345L236.692 34.14L234.524 36.2707Z" fill="var(--vscode-foreground, #CCCCCC)" />
            <path d="M77 55.4997L81.32 51.1263L81.96 51.7663L77.2667 56.4063H76.68L71.9867 51.7663L72.6267 51.1263L77 55.4997Z" fill="var(--vscode-foreground, #808080)" />
            <path d="M97.0649 56.4197L99.1787 50.0784H97.7505L96.3354 54.9695H96.2563L94.8149 50.0784H93.3164L95.4609 56.4197H97.0649ZM103.767 56.4197H105.204L103.002 50.0784H101.442L99.2402 56.4197H100.572L101.06 54.8816H103.288L103.767 56.4197ZM102.141 51.366H102.22L103.006 53.8884H101.345L102.141 51.366ZM107.612 54.0994H108.697L109.879 56.4197H111.382L110.046 53.9016C110.776 53.616 111.198 52.9128 111.198 52.0999C111.198 50.8474 110.341 50.0784 108.948 50.0784H106.285V56.4197H107.612V54.0994ZM107.612 51.1155H108.763C109.422 51.1155 109.835 51.5022 109.835 52.1174C109.835 52.7458 109.444 53.1106 108.776 53.1106H107.612V51.1155ZM113.861 56.4197V50.0784H112.534V56.4197H113.861ZM119.473 56.4197H120.91L118.708 50.0784H117.148L114.946 56.4197H116.278L116.766 54.8816H118.994L119.473 56.4197ZM117.847 51.366H117.926L118.712 53.8884H117.051L117.847 51.366ZM124.838 56.4197C126.192 56.4197 127.031 55.7209 127.031 54.6047C127.031 53.7874 126.42 53.1589 125.581 53.093V53.0139C126.231 52.9172 126.728 52.3328 126.728 51.6604C126.728 50.6804 125.994 50.0784 124.764 50.0784H121.991V56.4197H124.838ZM123.318 51.0627H124.425C125.058 51.0627 125.423 51.3704 125.423 51.8889C125.423 52.4163 125.032 52.7151 124.315 52.7151H123.318V51.0627ZM123.318 55.4309V53.5896H124.469C125.251 53.5896 125.678 53.906 125.678 54.4993C125.678 55.1057 125.265 55.4309 124.5 55.4309H123.318ZM132.379 55.3035H129.558V50.0784H128.231V56.4197H132.379V55.3035ZM137.785 55.3254H134.911V53.7214H137.622V52.7019H134.911V51.1726H137.785V50.0784H133.583V56.4197H137.785V55.3254ZM138.896 54.6663C138.945 55.8396 139.925 56.5823 141.437 56.5823C143.027 56.5823 144.007 55.8 144.007 54.5344C144.007 53.5544 143.458 53.0051 142.184 52.7327L141.419 52.5701C140.676 52.4075 140.373 52.1746 140.373 51.7747C140.373 51.2781 140.812 50.9573 141.476 50.9573C142.118 50.9573 142.583 51.2957 142.645 51.8142H143.893C143.854 50.6936 142.865 49.9158 141.467 49.9158C140.004 49.9158 139.042 50.698 139.042 51.8801C139.042 52.8425 139.608 53.4358 140.764 53.6819L141.59 53.8621C142.368 54.0334 142.685 54.2751 142.685 54.6926C142.685 55.1848 142.197 55.532 141.507 55.532C140.76 55.532 140.241 55.1936 140.18 54.6663H138.896Z" fill="var(--vscode-foreground, #CCCCCC)" />
            <path d="M79.08 77.4357L74.712 73.0837L75.336 72.4597L80.008 77.1317V77.7557L75.336 82.4117L74.712 81.8037L79.08 77.4517V77.4357Z" fill="var(--vscode-foreground, #808080)" />
            <rect x="93" y="73.9197" width="27" height="7" rx="3.5" fill="#B180D7" />
            <rect x="126" y="73.9197" width="70" height="7" rx="3.5" fill="var(--vscode-foreground)" fill-opacity="0.25" />
            <path d="M79.08 101.436L74.712 97.0837L75.336 96.4597L80.008 101.132V101.756L75.336 106.412L74.712 105.804L79.08 101.452V101.436Z" fill="var(--vscode-foreground, #808080)" />
            <rect x="93" y="97.9197" width="27" height="7" rx="3.5" fill="#B180D7" />
            <rect x="126" y="97.9197" width="61" height="7" rx="3.5" fill="var(--vscode-foreground)" fill-opacity="0.25" />
            <path d="M79.08 125.42L74.7067 121.1L75.3467 120.46L79.9867 125.153V125.74L75.3467 130.433L74.7067 129.793L79.08 125.42Z" fill="var(--vscode-foreground, #808080)" />
            <rect x="93" y="121.92" width="40" height="7" rx="3.5" fill="#B180D7" />
            <rect x="139" y="121.92" width="34" height="7" rx="3.5" fill="var(--vscode-foreground)" fill-opacity="0.25" />
            <path d="M79.08 149.436L74.712 145.084L75.336 144.46L80.008 149.132V149.756L75.336 154.412L74.712 153.804L79.08 149.452V149.436Z" fill="var(--vscode-foreground, #808080)" />
            <path d="M97.5044 148.148H97.5747L98.7744 152.42H100.018L101.701 146.078H100.33L99.3501 150.609H99.2798L98.1021 146.078H96.9814L95.8257 150.609H95.7554L94.7666 146.078H93.3867L95.0654 152.42H96.3179L97.5044 148.148ZM106.403 152.42H107.84L105.639 146.078H104.079L101.877 152.42H103.208L103.696 150.882H105.924L106.403 152.42ZM104.777 147.366H104.856L105.643 149.888H103.982L104.777 147.366ZM111.101 152.42V147.173H113.004V146.078H107.871V147.173H109.774V152.42H111.101ZM116.651 152.582C118.181 152.582 119.297 151.655 119.407 150.302H118.115C117.987 151 117.416 151.448 116.656 151.448C115.654 151.448 115.034 150.605 115.034 149.247C115.034 147.889 115.654 147.045 116.651 147.045C117.407 147.045 117.983 147.529 118.11 148.262H119.402C119.306 146.9 118.154 145.916 116.651 145.916C114.81 145.916 113.676 147.186 113.676 149.247C113.676 151.308 114.814 152.582 116.651 152.582ZM126.139 152.42V146.078H124.812V148.654H121.956V146.078H120.628V152.42H121.956V149.748H124.812V152.42H126.139Z" fill="var(--vscode-foreground, #CCCCCC)" />
            <path d="M76.984 175.484L81.336 171.132L81.96 171.756L77.288 176.412H76.664L72.008 171.756L72.616 171.132L76.984 175.484Z" fill="var(--vscode-foreground, #808080)" />
            <path d="M96.4629 176.582C97.9922 176.582 99.1084 175.655 99.2183 174.302H97.9263C97.7988 175 97.2275 175.448 96.4673 175.448C95.4653 175.448 94.8457 174.605 94.8457 173.247C94.8457 171.889 95.4653 171.045 96.4629 171.045C97.2188 171.045 97.7944 171.529 97.9219 172.262H99.2139C99.1172 170.9 97.9658 169.916 96.4629 169.916C94.6216 169.916 93.4878 171.186 93.4878 173.247C93.4878 175.308 94.626 176.582 96.4629 176.582ZM104.312 176.42H105.749L103.547 170.078H101.987L99.7852 176.42H101.117L101.604 174.882H103.833L104.312 176.42ZM102.686 171.366H102.765L103.551 173.888H101.89L102.686 171.366ZM110.978 175.303H108.157V170.078H106.83V176.42H110.978V175.303ZM116.331 175.303H113.509V170.078H112.182V176.42H116.331V175.303ZM119.569 174.666C119.618 175.84 120.598 176.582 122.109 176.582C123.7 176.582 124.68 175.8 124.68 174.534C124.68 173.554 124.131 173.005 122.856 172.733L122.092 172.57C121.349 172.407 121.046 172.175 121.046 171.775C121.046 171.278 121.485 170.957 122.149 170.957C122.791 170.957 123.256 171.296 123.318 171.814H124.566C124.526 170.694 123.538 169.916 122.14 169.916C120.677 169.916 119.714 170.698 119.714 171.88C119.714 172.843 120.281 173.436 121.437 173.682L122.263 173.862C123.041 174.033 123.357 174.275 123.357 174.693C123.357 175.185 122.87 175.532 122.18 175.532C121.433 175.532 120.914 175.194 120.853 174.666H119.569ZM128.802 176.42V171.173H130.705V170.078H125.572V171.173H127.475V176.42H128.802ZM135.267 176.42H136.704L134.502 170.078H132.942L130.74 176.42H132.072L132.56 174.882H134.788L135.267 176.42ZM133.641 171.366H133.72L134.506 173.888H132.845L133.641 171.366ZM140.188 176.582C141.718 176.582 142.834 175.655 142.944 174.302H141.652C141.524 175 140.953 175.448 140.193 175.448C139.191 175.448 138.571 174.605 138.571 173.247C138.571 171.889 139.191 171.045 140.188 171.045C140.944 171.045 141.52 171.529 141.647 172.262H142.939C142.843 170.9 141.691 169.916 140.188 169.916C138.347 169.916 137.213 171.186 137.213 173.247C137.213 175.308 138.352 176.582 140.188 176.582ZM145.493 176.42V174.482L146.121 173.726L147.962 176.42H149.553L147.079 172.856L149.391 170.078H147.914L145.572 172.926H145.493V170.078H144.166V176.42H145.493Z" fill="var(--vscode-foreground, #CCCCCC)" />
            <path d="M79.08 197.436L74.712 193.084L75.336 192.46L80.008 197.132V197.756L75.336 202.412L74.712 201.804L79.08 197.452V197.436Z" fill="var(--vscode-foreground, #808080)" />
            <rect x="93" y="193.92" width="70" height="7" rx="3.5" fill="var(--vscode-foreground)" fill-opacity="0.25" />
            <rect x="22" width="527" height="15" fill="var(--vscode-input-background, #3c3c3c)" />
            <rect x="22" y="15" width="33" height="218" fill="var(--vscode-activityBar-background , #333333)" />
            <path d="M37.8103 139.242L36.8738 140.123C36.7269 139.572 36.4147 139.113 35.9373 138.746C35.4966 138.379 34.9824 138.195 34.3948 138.195C33.8072 138.195 33.2747 138.379 32.7973 138.746C32.3566 139.113 32.0627 139.572 31.9158 140.123L30.9793 139.242L30.2632 139.958L31.4751 141.115L31.3099 141.28V142.327H30.2632V143.373H31.3099V143.428C31.3466 143.759 31.4384 144.089 31.5853 144.42L30.2632 145.742L30.9793 146.458L32.1362 145.301C32.3933 145.669 32.7238 145.962 33.1278 146.183C33.5318 146.366 33.9541 146.458 34.3948 146.458C34.8355 146.458 35.2579 146.366 35.6619 146.183C36.0658 145.962 36.3964 145.669 36.6535 145.301L37.8103 146.458L38.5265 145.742L37.2043 144.365C37.3513 144.071 37.4431 143.741 37.4798 143.373V143.318H38.5265V142.327H37.4798V141.28L37.3696 141.115L38.5265 139.958L37.8103 139.242ZM34.3948 139.242C34.8355 139.242 35.2028 139.389 35.4966 139.682C35.7904 139.976 35.9373 140.343 35.9373 140.784H32.8523C32.8523 140.343 32.9993 139.976 33.2931 139.682C33.5869 139.389 33.9541 139.242 34.3948 139.242ZM36.4882 143.373C36.4147 143.924 36.176 144.402 35.772 144.806C35.4048 145.173 34.9457 145.375 34.3948 145.412C33.8439 145.375 33.3665 145.173 32.9625 144.806C32.5953 144.402 32.3933 143.924 32.3566 143.373V141.831H36.4882V143.373ZM46.6245 136.542V137.424L39.5732 141.886V140.674L45.4125 136.983L36.4882 131.309V137.809C36.1577 137.589 35.8088 137.424 35.4415 137.314V130.372L36.2128 129.932L46.6245 136.542Z" fill="var(--vscode-activityBar-foreground, white)" />
            <rect x="30" y="166" width="16" height="16" fill="var(--vscode-activityBar-background , #333333)" />
            <rect x="31" y="167" width="14" height="14" stroke="#858585" stroke-opacity="0.4" stroke-width="2" />
            <rect x="30" y="94" width="16" height="16" fill="var(--vscode-activityBar-background , #333333)" />
            <rect x="31" y="95" width="14" height="14" stroke="#858585" stroke-opacity="0.4" stroke-width="2" />
            <rect x="30" y="59" width="16" height="16" fill="var(--vscode-activityBar-background , #333333)" />
            <rect x="31" y="60" width="14" height="14" stroke="#858585" stroke-opacity="0.4" stroke-width="2" />
            <rect x="30" y="23" width="16" height="16" fill="var(--vscode-activityBar-background , #333333)" />
            <rect x="31" y="24" width="14" height="14" stroke="#858585" stroke-opacity="0.4" stroke-width="2" />
            <rect x="22" y="124.149" width="1.37722" height="29.6101" fill="var(--vscode-activityBar-foreground, white)" />
            <rect x="92" y="28" width="109" height="11" fill="var(--vscode-input-background, #3" />
        </g>
        <path d="M239.836 257.553H241.652L243.448 261H245.321L243.321 257.306C244.413 256.912 245.048 255.903 245.048 254.69C245.048 252.938 243.842 251.84 241.918 251.84H238.199V261H239.836V257.553ZM239.836 253.167H241.69C242.731 253.167 243.366 253.757 243.366 254.722C243.366 255.706 242.769 256.271 241.728 256.271H239.836V253.167ZM252.913 254.062H251.338V258.105C251.338 259.153 250.78 259.788 249.758 259.788C248.818 259.788 248.38 259.267 248.38 258.188V254.062H246.806V258.569C246.806 260.194 247.695 261.14 249.212 261.14C250.272 261.14 250.951 260.689 251.288 259.896H251.396V261H252.913V254.062ZM254.842 261H256.417V256.957C256.417 255.916 257.007 255.262 257.946 255.262C258.905 255.262 259.349 255.801 259.349 256.88V261H260.923V256.512C260.923 254.862 260.079 253.929 258.53 253.929C257.496 253.929 256.797 254.398 256.467 255.173H256.359V254.062H254.842V261ZM268.166 261.114C269.074 261.114 269.835 260.721 270.223 260.048H270.331V261H271.848V256.258C271.848 254.792 270.845 253.929 269.061 253.929C267.411 253.929 266.262 254.703 266.135 255.916H267.62C267.766 255.439 268.261 255.179 268.985 255.179C269.835 255.179 270.292 255.566 270.292 256.258V256.855L268.502 256.963C266.814 257.058 265.868 257.788 265.868 259.032C265.868 260.302 266.827 261.114 268.166 261.114ZM268.629 259.902C267.931 259.902 267.43 259.553 267.43 258.956C267.43 258.378 267.842 258.055 268.725 257.998L270.292 257.89V258.455C270.292 259.28 269.582 259.902 268.629 259.902ZM273.746 261H275.32V256.957C275.32 255.916 275.91 255.262 276.85 255.262C277.808 255.262 278.252 255.801 278.252 256.88V261H279.827V256.512C279.827 254.862 278.982 253.929 277.434 253.929C276.399 253.929 275.701 254.398 275.371 255.173H275.263V254.062H273.746V261ZM284.207 261.114C285.171 261.114 285.971 260.664 286.365 259.902H286.473V261H287.996V251.377H286.422V255.167H286.314C285.946 254.405 285.159 253.948 284.207 253.948C282.455 253.948 281.35 255.332 281.35 257.528C281.35 259.73 282.448 261.114 284.207 261.114ZM284.695 255.262C285.774 255.262 286.441 256.131 286.441 257.534C286.441 258.943 285.781 259.807 284.695 259.807C283.616 259.807 282.962 258.956 282.962 257.534C282.962 256.119 283.623 255.262 284.695 255.262ZM295.962 261.114C296.927 261.114 297.727 260.664 298.121 259.902H298.229V261H299.752V251.377H298.178V255.167H298.07C297.702 254.405 296.915 253.948 295.962 253.948C294.21 253.948 293.106 255.332 293.106 257.528C293.106 259.73 294.204 261.114 295.962 261.114ZM296.451 255.262C297.53 255.262 298.197 256.131 298.197 257.534C298.197 258.943 297.537 259.807 296.451 259.807C295.372 259.807 294.718 258.956 294.718 257.534C294.718 256.119 295.378 255.262 296.451 255.262ZM306.265 259.102C306.036 259.623 305.497 259.915 304.716 259.915C303.681 259.915 303.015 259.178 302.977 258.004V257.921H307.826V257.42C307.826 255.243 306.639 253.929 304.659 253.929C302.646 253.929 301.396 255.332 301.396 257.56C301.396 259.781 302.627 261.14 304.671 261.14C306.309 261.14 307.471 260.353 307.756 259.102H306.265ZM304.652 255.154C305.598 255.154 306.22 255.82 306.252 256.874H302.983C303.053 255.833 303.713 255.154 304.652 255.154ZM313.266 261.114C315.018 261.114 316.116 259.737 316.116 257.534C316.116 255.319 315.024 253.948 313.266 253.948C312.314 253.948 311.514 254.411 311.152 255.167H311.044V251.377H309.47V261H310.987V259.902H311.095C311.489 260.664 312.295 261.114 313.266 261.114ZM312.771 255.262C313.844 255.262 314.498 256.119 314.498 257.534C314.498 258.95 313.85 259.807 312.771 259.807C311.692 259.807 311.019 258.937 311.019 257.534C311.019 256.131 311.698 255.262 312.771 255.262ZM323.74 254.062H322.166V258.105C322.166 259.153 321.607 259.788 320.585 259.788C319.646 259.788 319.208 259.267 319.208 258.188V254.062H317.633V258.569C317.633 260.194 318.522 261.14 320.039 261.14C321.099 261.14 321.778 260.689 322.115 259.896H322.223V261H323.74V254.062ZM328.653 263.641C330.678 263.641 331.96 262.631 331.96 261.038V254.062H330.443V255.173H330.335C329.954 254.417 329.129 253.948 328.183 253.948C326.412 253.948 325.314 255.332 325.314 257.458C325.314 259.54 326.406 260.898 328.158 260.898C329.123 260.898 329.878 260.492 330.278 259.743H330.386V261.063C330.386 261.946 329.757 262.466 328.678 262.466C327.815 262.466 327.256 262.155 327.155 261.667H325.574C325.701 262.86 326.869 263.641 328.653 263.641ZM328.653 259.648C327.555 259.648 326.933 258.797 326.933 257.452C326.933 256.112 327.555 255.262 328.653 255.262C329.745 255.262 330.411 256.112 330.411 257.458C330.411 258.797 329.751 259.648 328.653 259.648Z" fill="var(--vscode-foreground, #CCCCCC)" />
        <path d="M266.624 539V531.218H269.448V529.84H262.167V531.218H264.986V539H266.624ZM274.292 537.102C274.063 537.623 273.523 537.915 272.743 537.915C271.708 537.915 271.042 537.178 271.003 536.004V535.921H275.853V535.42C275.853 533.243 274.666 531.929 272.686 531.929C270.673 531.929 269.423 533.332 269.423 535.56C269.423 537.781 270.654 539.14 272.698 539.14C274.336 539.14 275.498 538.353 275.783 537.102H274.292ZM272.679 533.154C273.625 533.154 274.247 533.82 274.279 534.874H271.01C271.08 533.833 271.74 533.154 272.679 533.154ZM277.275 534.042C277.275 535.083 277.903 535.693 279.236 535.998L280.468 536.283C281.128 536.436 281.426 536.689 281.426 537.083C281.426 537.61 280.874 537.972 280.081 537.972C279.293 537.972 278.805 537.654 278.652 537.14H277.097C277.218 538.391 278.31 539.14 280.042 539.14C281.775 539.14 283 538.257 283 536.931C283 535.909 282.385 535.344 281.058 535.039L279.833 534.766C279.135 534.601 278.805 534.354 278.805 533.96C278.805 533.446 279.344 533.097 280.062 533.097C280.798 533.097 281.261 533.414 281.375 533.903H282.854C282.74 532.652 281.706 531.929 280.055 531.929C278.417 531.929 277.275 532.798 277.275 534.042ZM285.044 530.361V532.106H283.946V533.332H285.044V537.159C285.044 538.499 285.679 539.032 287.272 539.032C287.577 539.032 287.869 539.006 288.098 538.962V537.756C287.907 537.775 287.787 537.788 287.564 537.788C286.904 537.788 286.612 537.477 286.612 536.785V533.332H288.098V532.106H286.612V530.361H285.044ZM290.472 530.9C290.992 530.9 291.417 530.488 291.417 529.967C291.417 529.453 290.992 529.034 290.472 529.034C289.958 529.034 289.532 529.453 289.532 529.967C289.532 530.488 289.958 530.9 290.472 530.9ZM289.691 539H291.259V532.062H289.691V539ZM293.214 539H294.788V534.957C294.788 533.916 295.378 533.262 296.318 533.262C297.276 533.262 297.721 533.801 297.721 534.88V539H299.295V534.512C299.295 532.862 298.451 531.929 296.902 531.929C295.867 531.929 295.169 532.398 294.839 533.173H294.731V532.062H293.214V539ZM304.145 541.641C306.169 541.641 307.452 540.631 307.452 539.038V532.062H305.935V533.173H305.827C305.446 532.417 304.621 531.948 303.675 531.948C301.904 531.948 300.806 533.332 300.806 535.458C300.806 537.54 301.897 538.898 303.649 538.898C304.614 538.898 305.37 538.492 305.77 537.743H305.877V539.063C305.877 539.946 305.249 540.466 304.17 540.466C303.307 540.466 302.748 540.155 302.646 539.667H301.066C301.193 540.86 302.361 541.641 304.145 541.641ZM304.145 537.648C303.046 537.648 302.424 536.797 302.424 535.452C302.424 534.112 303.046 533.262 304.145 533.262C305.236 533.262 305.903 534.112 305.903 535.458C305.903 536.797 305.243 537.648 304.145 537.648Z" fill="var(--vscode-foreground, #CCCCCC)" />
    </g>
    <defs>
        <filter id="filter0_d_1322_191470" x="10" y="268" width="550" height="257" filterUnits="userSpaceOnUse" color-interpolation-filters="sRGB">
            <feFlood flood-opacity="0" result="BackgroundImageFix" />
            <feColorMatrix in="SourceAlpha" type="matrix" values="0 0 0 0 0 0 0 0 0 0 0 0 0 0 0 0 0 0 127 0" result="hardAlpha" />
            <feOffset dy="2" />
            <feGaussianBlur stdDeviation="6" />
            <feColorMatrix type="matrix" values="0 0 0 0 0 0 0 0 0 0 0 0 0 0 0 0 0 0 0.6 0" />
            <feBlend mode="normal" in2="BackgroundImageFix" result="effect1_dropShadow_1322_191470" />
            <feBlend mode="normal" in="SourceGraphic" in2="effect1_dropShadow_1322_191470" result="shape" />
        </filter>
        <filter id="filter1_d_1322_191470" x="10" y="-10" width="551" height="257" filterUnits="userSpaceOnUse" color-interpolation-filters="sRGB">
            <feFlood flood-opacity="0" result="BackgroundImageFix" />
            <feColorMatrix in="SourceAlpha" type="matrix" values="0 0 0 0 0 0 0 0 0 0 0 0 0 0 0 0 0 0 127 0" result="hardAlpha" />
            <feOffset dy="2" />
            <feGaussianBlur stdDeviation="6" />
            <feColorMatrix type="matrix" values="0 0 0 0 0 0 0 0 0 0 0 0 0 0 0 0 0 0 0.6 0" />
            <feBlend mode="normal" in2="BackgroundImageFix" result="effect1_dropShadow_1322_191470" />
            <feBlend mode="normal" in="SourceGraphic" in2="effect1_dropShadow_1322_191470" result="shape" />
        </filter>
        <clipPath id="clip0_1322_191470">
            <rect width="570" height="560" fill="var(--vscode-foreground, white)" />
        </clipPath>
        <clipPath id="clip1_1322_191470">
            <rect width="302" height="218" fill="var(--vscode-foreground, white)" transform="translate(247 15)" />
        </clipPath>
    </defs>
</svg>