<svg width="512" height="270" viewBox="0 0 512 270" fill="none" xmlns="http://www.w3.org/2000/svg">
  <g>
  <a xlink:href="command:java.welcome" xlink:title="Open Help Center">
    <g filter="url(#filter0_d_2526_366671)">
      <rect x="11" y="14" width="449" height="215" fill="var(--vscode-breadcrumb-background, #1E1E1E)" />
      <g>
        <g>
          <g>
            <path d="M26.52 64.9733H25.5067V69.9867H26.52V64.9733ZM32.6 69.9867H29.4L29.0267 69.4533V68.44L29.4 68.0133H32.6L33.0267 68.4933V69.5067L32.6 69.9867ZM27.5867 72.9733H24.3867L24.0133 72.4933V71.48L24.3867 71H27.5867L28.0133 71.48V72.4933L27.5867 72.9733ZM31.48 64.9733H30.52V67H31.48V64.9733ZM30.52 71H31.48V76.9733H30.52V71ZM26.52 73.9867H25.5067V76.9733H26.52V73.9867ZM34.4133 73.9867H37.6133L37.9867 73.5067V72.5467L37.6133 72.0667H34.4133L33.9867 72.5467V73.5067L34.4133 73.9867ZM36.4933 64.9733H35.48V71H36.4933V64.9733ZM35.48 75H36.4933V76.9733H35.48V75Z" fill="var(--vscode-editorGutter-commentRangeForeground, #C5C5C5)" />
            <g>
              <path d="M56.6172 75.2168C58.6562 75.2168 60.1445 73.9805 60.291 72.1758H58.5684C58.3984 73.1074 57.6367 73.7051 56.623 73.7051C55.2871 73.7051 54.4609 72.5801 54.4609 70.7695C54.4609 68.959 55.2871 67.834 56.6172 67.834C57.625 67.834 58.3926 68.4785 58.5625 69.457H60.2852C60.1562 67.6406 58.6211 66.3281 56.6172 66.3281C54.1621 66.3281 52.6504 68.0215 52.6504 70.7695C52.6504 73.5176 54.168 75.2168 56.6172 75.2168ZM64.6152 75.1348C66.6016 75.1348 67.7969 73.8809 67.7969 71.7715C67.7969 69.6797 66.584 68.4082 64.6152 68.4082C62.6465 68.4082 61.4336 69.6855 61.4336 71.7715C61.4336 73.875 62.6289 75.1348 64.6152 75.1348ZM64.6152 73.7871C63.7012 73.7871 63.1855 73.0488 63.1855 71.7715C63.1855 70.5059 63.707 69.7617 64.6152 69.7617C65.5176 69.7617 66.0449 70.5059 66.0449 71.7715C66.0449 73.0488 65.5234 73.7871 64.6152 73.7871ZM69.1914 75H70.8965V71.2676C70.8965 70.3945 71.3828 69.832 72.1738 69.832C72.9824 69.832 73.3633 70.3066 73.3633 71.2148V75H75.0684V70.8281C75.0684 69.2871 74.2949 68.4082 72.8594 68.4082C71.9043 68.4082 71.248 68.8594 70.9492 69.5859H70.8438V68.5488H69.1914V75ZM77.2246 75H78.9297V69.9023H80.2656V68.6074H78.8945V68.0625C78.8945 67.5 79.1406 67.2246 79.8086 67.2246C80.0312 67.2246 80.207 67.2422 80.3184 67.2598V66.082C80.0723 66.0469 79.7852 66.0176 79.4395 66.0176C77.8809 66.0176 77.2246 66.6621 77.2246 67.9453V68.6074H76.1816V69.9023H77.2246V75ZM82.4922 67.5586C83.0195 67.5586 83.4531 67.1367 83.4531 66.6094C83.4531 66.0762 83.0195 65.6543 82.4922 65.6543C81.9648 65.6543 81.5254 66.0762 81.5254 66.6094C81.5254 67.1367 81.9648 67.5586 82.4922 67.5586ZM81.6367 75H83.3418V68.5488H81.6367V75ZM87.918 77.4434C89.8691 77.4434 91.1055 76.4941 91.1055 74.9883V68.5488H89.4531V69.5801H89.3477C89.002 68.877 88.2578 68.4434 87.3848 68.4434C85.7441 68.4434 84.7363 69.7207 84.7363 71.7188C84.7363 73.6523 85.7383 74.9062 87.3496 74.9062C88.2578 74.9062 88.9375 74.5371 89.2949 73.8574H89.4004V75.0586C89.4004 75.8027 88.8672 76.2363 87.9531 76.2363C87.2148 76.2363 86.7344 75.9785 86.6465 75.5684H84.959C85.0645 76.6992 86.2012 77.4434 87.918 77.4434ZM87.9414 73.5996C87.0156 73.5996 86.4883 72.873 86.4883 71.7129C86.4883 70.5527 87.0215 69.8262 87.9414 69.8262C88.8613 69.8262 89.418 70.5527 89.418 71.7129C89.418 72.873 88.8672 73.5996 87.9414 73.5996ZM98.6641 68.5488H96.959V72.2754C96.959 73.1602 96.502 73.7051 95.6523 73.7051C94.8672 73.7051 94.4629 73.2422 94.4629 72.3281V68.5488H92.7578V72.75C92.7578 74.25 93.625 75.1348 95.0195 75.1348C95.998 75.1348 96.6016 74.7129 96.9062 73.9629H97.0117V75H98.6641V68.5488ZM100.375 75H102.08V71.3906C102.08 70.4824 102.719 69.9258 103.65 69.9258C103.926 69.9258 104.324 69.9727 104.459 70.0195V68.5195C104.312 68.4727 104.025 68.4434 103.791 68.4434C102.971 68.4434 102.303 68.9297 102.133 69.5742H102.027V68.5488H100.375V75ZM109.627 73.1777C109.445 73.6172 108.982 73.8633 108.309 73.8633C107.418 73.8633 106.855 73.248 106.832 72.2637V72.1758H111.268V71.666C111.268 69.627 110.143 68.4082 108.238 68.4082C106.316 68.4082 105.133 69.709 105.133 71.8066C105.133 73.8926 106.293 75.1348 108.262 75.1348C109.844 75.1348 110.963 74.3789 111.215 73.1777H109.627ZM108.244 69.6797C109.041 69.6797 109.557 70.2305 109.592 71.1152H106.838C106.896 70.248 107.453 69.6797 108.244 69.6797ZM115.352 72.5566C115.352 74.1855 116.488 75.2168 118.223 75.2168C120.016 75.2168 121.094 74.1973 121.094 72.3984V66.5449H119.324V72.3867C119.324 73.2363 118.926 73.6875 118.199 73.6875C117.52 73.6875 117.074 73.2422 117.062 72.5566H115.352ZM124.656 75.0996C125.494 75.0996 126.197 74.7422 126.531 74.1445H126.637V75H128.289V70.5938C128.289 69.2168 127.322 68.4082 125.611 68.4082C123.988 68.4082 122.893 69.1523 122.781 70.3359H124.352C124.492 69.9316 124.902 69.7148 125.518 69.7148C126.221 69.7148 126.607 70.0371 126.607 70.5938V71.127L125.043 71.2207C123.438 71.3145 122.541 71.9941 122.541 73.1602C122.541 74.3379 123.414 75.0996 124.656 75.0996ZM125.219 73.8516C124.627 73.8516 124.211 73.5527 124.211 73.0547C124.211 72.5801 124.568 72.3047 125.301 72.2578L126.607 72.1699V72.6504C126.607 73.3301 126.01 73.8516 125.219 73.8516ZM135.631 68.5488H133.832L132.508 73.4004H132.402L131.066 68.5488H129.232L131.477 75H133.398L135.631 68.5488ZM138.344 75.0996C139.182 75.0996 139.885 74.7422 140.219 74.1445H140.324V75H141.977V70.5938C141.977 69.2168 141.01 68.4082 139.299 68.4082C137.676 68.4082 136.58 69.1523 136.469 70.3359H138.039C138.18 69.9316 138.59 69.7148 139.205 69.7148C139.908 69.7148 140.295 70.0371 140.295 70.5938V71.127L138.73 71.2207C137.125 71.3145 136.229 71.9941 136.229 73.1602C136.229 74.3379 137.102 75.0996 138.344 75.0996ZM138.906 73.8516C138.314 73.8516 137.898 73.5527 137.898 73.0547C137.898 72.5801 138.256 72.3047 138.988 72.2578L140.295 72.1699V72.6504C140.295 73.3301 139.697 73.8516 138.906 73.8516ZM148.686 71.9062H150.133L151.709 75H153.713L151.932 71.6426C152.904 71.2617 153.467 70.3242 153.467 69.2402C153.467 67.5703 152.324 66.5449 150.467 66.5449H146.916V75H148.686V71.9062ZM148.686 67.9277H150.221C151.1 67.9277 151.65 68.4434 151.65 69.2637C151.65 70.1016 151.129 70.5879 150.238 70.5879H148.686V67.9277ZM160.926 68.5488H159.221V72.2754C159.221 73.1602 158.764 73.7051 157.914 73.7051C157.129 73.7051 156.725 73.2422 156.725 72.3281V68.5488H155.02V72.75C155.02 74.25 155.887 75.1348 157.281 75.1348C158.26 75.1348 158.863 74.7129 159.168 73.9629H159.273V75H160.926V68.5488ZM162.637 75H164.342V71.2676C164.342 70.3945 164.828 69.832 165.619 69.832C166.428 69.832 166.809 70.3066 166.809 71.2148V75H168.514V70.8281C168.514 69.2871 167.74 68.4082 166.305 68.4082C165.35 68.4082 164.693 68.8594 164.395 69.5859H164.289V68.5488H162.637V75ZM170.658 67.0078V68.6074H169.65V69.9023H170.658V73.2598C170.658 74.5137 171.279 75.0234 172.85 75.0234C173.178 75.0234 173.494 74.9883 173.705 74.9473V73.6875C173.541 73.7051 173.424 73.7168 173.201 73.7168C172.621 73.7168 172.363 73.4473 172.363 72.8672V69.9023H173.705V68.6074H172.363V67.0078H170.658ZM175.996 67.5586C176.523 67.5586 176.957 67.1367 176.957 66.6094C176.957 66.0762 176.523 65.6543 175.996 65.6543C175.469 65.6543 175.029 66.0762 175.029 66.6094C175.029 67.1367 175.469 67.5586 175.996 67.5586ZM175.141 75H176.846V68.5488H175.141V75ZM178.574 75H180.279V71.1094C180.279 70.3711 180.754 69.832 181.422 69.832C182.09 69.832 182.488 70.2305 182.488 70.9219V75H184.129V71.0332C184.129 70.3359 184.574 69.832 185.266 69.832C185.986 69.832 186.344 70.2188 186.344 70.998V75H188.049V70.5703C188.049 69.2402 187.246 68.4082 185.957 68.4082C185.055 68.4082 184.311 68.8828 184.012 69.5977H183.906C183.648 68.8594 183.027 68.4082 182.119 68.4082C181.27 68.4082 180.596 68.8594 180.332 69.5977H180.227V68.5488H178.574V75ZM193.885 73.1777C193.703 73.6172 193.24 73.8633 192.566 73.8633C191.676 73.8633 191.113 73.248 191.09 72.2637V72.1758H195.525V71.666C195.525 69.627 194.4 68.4082 192.496 68.4082C190.574 68.4082 189.391 69.709 189.391 71.8066C189.391 73.8926 190.551 75.1348 192.52 75.1348C194.102 75.1348 195.221 74.3789 195.473 73.1777H193.885ZM192.502 69.6797C193.299 69.6797 193.814 70.2305 193.85 71.1152H191.096C191.154 70.248 191.711 69.6797 192.502 69.6797Z" fill="var(--vscode-editor-foreground, #D4D4D4)" />
            </g>
          </g>
          <g>
            <g>
              <path d="M27 90.9733H35V94.9733C35.3556 95.0089 35.6933 95.0978 36.0133 95.24V90.0133H25.9867V98.4933L27 96.7333V90.9733ZM29.1333 98.9733L28.0133 97L24.0133 103.987H32.0133L29.1333 98.9733ZM25.72 102.973L27.4267 99.9867L28.0133 98.9733L30.3067 102.973H25.72ZM32.5467 96.5733C33.08 96.2178 33.6489 96.0222 34.2533 95.9867C34.8933 95.9511 35.4978 96.0756 36.0667 96.36C36.6356 96.6089 37.0978 97 37.4533 97.5333C37.8089 98.0667 38.0044 98.6533 38.04 99.2933C38.0756 99.8978 37.9511 100.484 37.6667 101.053C37.3822 101.622 36.9733 102.084 36.44 102.44C35.9067 102.76 35.3378 102.938 34.7333 102.973C34.1289 103.009 33.5422 102.884 32.9733 102.6C32.44 102.316 31.9956 101.924 31.64 101.427C31.2844 100.893 31.0889 100.324 31.0533 99.72C31.0178 99.1156 31.1244 98.5289 31.3733 97.96C31.6578 97.3911 32.0489 96.9289 32.5467 96.5733ZM33.1333 101.587C33.4889 101.836 33.88 101.978 34.3067 102.013C34.7689 102.049 35.1956 101.978 35.5867 101.8C36.0133 101.587 36.3511 101.302 36.6 100.947C36.8489 100.556 36.9911 100.129 37.0267 99.6667C37.0622 99.2044 36.9733 98.7778 36.76 98.3867C36.5467 97.9956 36.2622 97.6756 35.9067 97.4267C35.3378 97.0356 34.7156 96.9111 34.04 97.0533C33.3644 97.1956 32.8311 97.5511 32.44 98.12C32.0489 98.6889 31.9244 99.3111 32.0667 99.9867C32.2089 100.662 32.5644 101.196 33.1333 101.587Z" fill="var(--vscode-editorGutter-commentRangeForeground, #C5C5C5)" />
              <g>
                <path d="M56.6172 101.217C58.6562 101.217 60.1445 99.9805 60.291 98.1758H58.5684C58.3984 99.1074 57.6367 99.7051 56.623 99.7051C55.2871 99.7051 54.4609 98.5801 54.4609 96.7695C54.4609 94.959 55.2871 93.834 56.6172 93.834C57.625 93.834 58.3926 94.4785 58.5625 95.457H60.2852C60.1562 93.6406 58.6211 92.3281 56.6172 92.3281C54.1621 92.3281 52.6504 94.0215 52.6504 96.7695C52.6504 99.5176 54.168 101.217 56.6172 101.217ZM64.6152 101.135C66.6016 101.135 67.7969 99.8809 67.7969 97.7715C67.7969 95.6797 66.584 94.4082 64.6152 94.4082C62.6465 94.4082 61.4336 95.6855 61.4336 97.7715C61.4336 99.875 62.6289 101.135 64.6152 101.135ZM64.6152 99.7871C63.7012 99.7871 63.1855 99.0488 63.1855 97.7715C63.1855 96.5059 63.707 95.7617 64.6152 95.7617C65.5176 95.7617 66.0449 96.5059 66.0449 97.7715C66.0449 99.0488 65.5234 99.7871 64.6152 99.7871ZM69.1914 101H70.8965V97.2676C70.8965 96.3945 71.3828 95.832 72.1738 95.832C72.9824 95.832 73.3633 96.3066 73.3633 97.2148V101H75.0684V96.8281C75.0684 95.2871 74.2949 94.4082 72.8594 94.4082C71.9043 94.4082 71.248 94.8594 70.9492 95.5859H70.8438V94.5488H69.1914V101ZM77.2246 101H78.9297V95.9023H80.2656V94.6074H78.8945V94.0625C78.8945 93.5 79.1406 93.2246 79.8086 93.2246C80.0312 93.2246 80.207 93.2422 80.3184 93.2598V92.082C80.0723 92.0469 79.7852 92.0176 79.4395 92.0176C77.8809 92.0176 77.2246 92.6621 77.2246 93.9453V94.6074H76.1816V95.9023H77.2246V101ZM82.4922 93.5586C83.0195 93.5586 83.4531 93.1367 83.4531 92.6094C83.4531 92.0762 83.0195 91.6543 82.4922 91.6543C81.9648 91.6543 81.5254 92.0762 81.5254 92.6094C81.5254 93.1367 81.9648 93.5586 82.4922 93.5586ZM81.6367 101H83.3418V94.5488H81.6367V101ZM87.918 103.443C89.8691 103.443 91.1055 102.494 91.1055 100.988V94.5488H89.4531V95.5801H89.3477C89.002 94.877 88.2578 94.4434 87.3848 94.4434C85.7441 94.4434 84.7363 95.7207 84.7363 97.7188C84.7363 99.6523 85.7383 100.906 87.3496 100.906C88.2578 100.906 88.9375 100.537 89.2949 99.8574H89.4004V101.059C89.4004 101.803 88.8672 102.236 87.9531 102.236C87.2148 102.236 86.7344 101.979 86.6465 101.568H84.959C85.0645 102.699 86.2012 103.443 87.918 103.443ZM87.9414 99.5996C87.0156 99.5996 86.4883 98.873 86.4883 97.7129C86.4883 96.5527 87.0215 95.8262 87.9414 95.8262C88.8613 95.8262 89.418 96.5527 89.418 97.7129C89.418 98.873 88.8672 99.5996 87.9414 99.5996ZM98.6641 94.5488H96.959V98.2754C96.959 99.1602 96.502 99.7051 95.6523 99.7051C94.8672 99.7051 94.4629 99.2422 94.4629 98.3281V94.5488H92.7578V98.75C92.7578 100.25 93.625 101.135 95.0195 101.135C95.998 101.135 96.6016 100.713 96.9062 99.9629H97.0117V101H98.6641V94.5488ZM100.375 101H102.08V97.3906C102.08 96.4824 102.719 95.9258 103.65 95.9258C103.926 95.9258 104.324 95.9727 104.459 96.0195V94.5195C104.312 94.4727 104.025 94.4434 103.791 94.4434C102.971 94.4434 102.303 94.9297 102.133 95.5742H102.027V94.5488H100.375V101ZM109.627 99.1777C109.445 99.6172 108.982 99.8633 108.309 99.8633C107.418 99.8633 106.855 99.248 106.832 98.2637V98.1758H111.268V97.666C111.268 95.627 110.143 94.4082 108.238 94.4082C106.316 94.4082 105.133 95.709 105.133 97.8066C105.133 99.8926 106.293 101.135 108.262 101.135C109.844 101.135 110.963 100.379 111.215 99.1777H109.627ZM108.244 95.6797C109.041 95.6797 109.557 96.2305 109.592 97.1152H106.838C106.896 96.248 107.453 95.6797 108.244 95.6797ZM117.701 101V97.6719H121.141V96.2715H117.701V94.0039H121.469V92.5449H115.932V101H117.701ZM125.799 101.135C127.785 101.135 128.98 99.8809 128.98 97.7715C128.98 95.6797 127.768 94.4082 125.799 94.4082C123.83 94.4082 122.617 95.6855 122.617 97.7715C122.617 99.875 123.812 101.135 125.799 101.135ZM125.799 99.7871C124.885 99.7871 124.369 99.0488 124.369 97.7715C124.369 96.5059 124.891 95.7617 125.799 95.7617C126.701 95.7617 127.229 96.5059 127.229 97.7715C127.229 99.0488 126.707 99.7871 125.799 99.7871ZM130.375 101H132.08V97.3906C132.08 96.4824 132.719 95.9258 133.65 95.9258C133.926 95.9258 134.324 95.9727 134.459 96.0195V94.5195C134.312 94.4727 134.025 94.4434 133.791 94.4434C132.971 94.4434 132.303 94.9297 132.133 95.5742H132.027V94.5488H130.375V101ZM135.66 101H137.365V97.1094C137.365 96.3711 137.84 95.832 138.508 95.832C139.176 95.832 139.574 96.2305 139.574 96.9219V101H141.215V97.0332C141.215 96.3359 141.66 95.832 142.352 95.832C143.072 95.832 143.43 96.2188 143.43 96.998V101H145.135V96.5703C145.135 95.2402 144.332 94.4082 143.043 94.4082C142.141 94.4082 141.396 94.8828 141.098 95.5977H140.992C140.734 94.8594 140.113 94.4082 139.205 94.4082C138.355 94.4082 137.682 94.8594 137.418 95.5977H137.312V94.5488H135.66V101ZM148.562 101.1C149.4 101.1 150.104 100.742 150.438 100.145H150.543V101H152.195V96.5938C152.195 95.2168 151.229 94.4082 149.518 94.4082C147.895 94.4082 146.799 95.1523 146.688 96.3359H148.258C148.398 95.9316 148.809 95.7148 149.424 95.7148C150.127 95.7148 150.514 96.0371 150.514 96.5938V97.127L148.949 97.2207C147.344 97.3145 146.447 97.9941 146.447 99.1602C146.447 100.338 147.32 101.1 148.562 101.1ZM149.125 99.8516C148.533 99.8516 148.117 99.5527 148.117 99.0547C148.117 98.5801 148.475 98.3047 149.207 98.2578L150.514 98.1699V98.6504C150.514 99.3301 149.916 99.8516 149.125 99.8516ZM154.357 93.0078V94.6074H153.35V95.9023H154.357V99.2598C154.357 100.514 154.979 101.023 156.549 101.023C156.877 101.023 157.193 100.988 157.404 100.947V99.6875C157.24 99.7051 157.123 99.7168 156.9 99.7168C156.32 99.7168 156.062 99.4473 156.062 98.8672V95.9023H157.404V94.6074H156.062V93.0078H154.357ZM159.373 93.0078V94.6074H158.365V95.9023H159.373V99.2598C159.373 100.514 159.994 101.023 161.564 101.023C161.893 101.023 162.209 100.988 162.42 100.947V99.6875C162.256 99.7051 162.139 99.7168 161.916 99.7168C161.336 99.7168 161.078 99.4473 161.078 98.8672V95.9023H162.42V94.6074H161.078V93.0078H159.373ZM167.975 99.1777C167.793 99.6172 167.33 99.8633 166.656 99.8633C165.766 99.8633 165.203 99.248 165.18 98.2637V98.1758H169.615V97.666C169.615 95.627 168.49 94.4082 166.586 94.4082C164.664 94.4082 163.48 95.709 163.48 97.8066C163.48 99.8926 164.641 101.135 166.609 101.135C168.191 101.135 169.311 100.379 169.562 99.1777H167.975ZM166.592 95.6797C167.389 95.6797 167.904 96.2305 167.939 97.1152H165.186C165.244 96.248 165.801 95.6797 166.592 95.6797ZM171.016 101H172.721V97.3906C172.721 96.4824 173.359 95.9258 174.291 95.9258C174.566 95.9258 174.965 95.9727 175.1 96.0195V94.5195C174.953 94.4727 174.666 94.4434 174.432 94.4434C173.611 94.4434 172.943 94.9297 172.773 95.5742H172.668V94.5488H171.016V101ZM179.125 98.6621C179.189 100.227 180.496 101.217 182.512 101.217C184.633 101.217 185.939 100.174 185.939 98.4863C185.939 97.1797 185.207 96.4473 183.508 96.084L182.488 95.8672C181.498 95.6504 181.094 95.3398 181.094 94.8066C181.094 94.1445 181.68 93.7168 182.564 93.7168C183.42 93.7168 184.041 94.168 184.123 94.8594H185.787C185.734 93.3652 184.416 92.3281 182.553 92.3281C180.602 92.3281 179.318 93.3711 179.318 94.9473C179.318 96.2305 180.074 97.0215 181.615 97.3496L182.717 97.5898C183.754 97.8184 184.176 98.1406 184.176 98.6973C184.176 99.3535 183.525 99.8164 182.605 99.8164C181.609 99.8164 180.918 99.3652 180.836 98.6621H179.125ZM191.623 99.1777C191.441 99.6172 190.979 99.8633 190.305 99.8633C189.414 99.8633 188.852 99.248 188.828 98.2637V98.1758H193.264V97.666C193.264 95.627 192.139 94.4082 190.234 94.4082C188.312 94.4082 187.129 95.709 187.129 97.8066C187.129 99.8926 188.289 101.135 190.258 101.135C191.84 101.135 192.959 100.379 193.211 99.1777H191.623ZM190.24 95.6797C191.037 95.6797 191.553 96.2305 191.588 97.1152H188.834C188.893 96.248 189.449 95.6797 190.24 95.6797ZM195.15 93.0078V94.6074H194.143V95.9023H195.15V99.2598C195.15 100.514 195.771 101.023 197.342 101.023C197.67 101.023 197.986 100.988 198.197 100.947V99.6875C198.033 99.7051 197.916 99.7168 197.693 99.7168C197.113 99.7168 196.855 99.4473 196.855 98.8672V95.9023H198.197V94.6074H196.855V93.0078H195.15ZM200.166 93.0078V94.6074H199.158V95.9023H200.166V99.2598C200.166 100.514 200.787 101.023 202.357 101.023C202.686 101.023 203.002 100.988 203.213 100.947V99.6875C203.049 99.7051 202.932 99.7168 202.709 99.7168C202.129 99.7168 201.871 99.4473 201.871 98.8672V95.9023H203.213V94.6074H201.871V93.0078H200.166ZM205.504 93.5586C206.031 93.5586 206.465 93.1367 206.465 92.6094C206.465 92.0762 206.031 91.6543 205.504 91.6543C204.977 91.6543 204.537 92.0762 204.537 92.6094C204.537 93.1367 204.977 93.5586 205.504 93.5586ZM204.648 101H206.354V94.5488H204.648V101ZM208.082 101H209.787V97.2676C209.787 96.3945 210.273 95.832 211.064 95.832C211.873 95.832 212.254 96.3066 212.254 97.2148V101H213.959V96.8281C213.959 95.2871 213.186 94.4082 211.75 94.4082C210.795 94.4082 210.139 94.8594 209.84 95.5859H209.734V94.5488H208.082V101ZM218.465 103.443C220.416 103.443 221.652 102.494 221.652 100.988V94.5488H220V95.5801H219.895C219.549 94.877 218.805 94.4434 217.932 94.4434C216.291 94.4434 215.283 95.7207 215.283 97.7188C215.283 99.6523 216.285 100.906 217.896 100.906C218.805 100.906 219.484 100.537 219.842 99.8574H219.947V101.059C219.947 101.803 219.414 102.236 218.5 102.236C217.762 102.236 217.281 101.979 217.193 101.568H215.506C215.611 102.699 216.748 103.443 218.465 103.443ZM218.488 99.5996C217.562 99.5996 217.035 98.873 217.035 97.7129C217.035 96.5527 217.568 95.8262 218.488 95.8262C219.408 95.8262 219.965 96.5527 219.965 97.7129C219.965 98.873 219.414 99.5996 218.488 99.5996ZM223.217 96.4297C223.217 97.4199 223.826 98.0117 225.08 98.2871L226.252 98.5508C226.82 98.6797 227.066 98.8789 227.066 99.207C227.066 99.6348 226.609 99.9277 225.947 99.9277C225.268 99.9277 224.852 99.6641 224.723 99.2188H223.059C223.176 100.438 224.207 101.135 225.912 101.135C227.605 101.135 228.76 100.303 228.76 99.0254C228.76 98.0645 228.197 97.5371 226.943 97.2617L225.73 96.998C225.133 96.8633 224.857 96.6582 224.857 96.3301C224.857 95.9082 225.309 95.6211 225.918 95.6211C226.551 95.6211 226.943 95.8848 227.031 96.3125H228.607C228.514 95.0938 227.547 94.4082 225.906 94.4082C224.295 94.4082 223.217 95.2227 223.217 96.4297Z" fill="var(--vscode-editor-foreground, #D4D4D4)" />
              </g>
            </g>
            <g>
              <path d="M26.52 118.973H25.5067V123.987H26.52V118.973ZM32.6 123.987H29.4L29.0267 123.453V122.44L29.4 122.013H32.6L33.0267 122.493V123.507L32.6 123.987ZM27.5867 126.973H24.3867L24.0133 126.493V125.48L24.3867 125H27.5867L28.0133 125.48V126.493L27.5867 126.973ZM31.48 118.973H30.52V121H31.48V118.973ZM30.52 125H31.48V130.973H30.52V125ZM26.52 127.987H25.5067V130.973H26.52V127.987ZM34.4133 127.987H37.6133L37.9867 127.507V126.547L37.6133 126.067H34.4133L33.9867 126.547V127.507L34.4133 127.987ZM36.4933 118.973H35.48V125H36.4933V118.973ZM35.48 129H36.4933V130.973H35.48V129Z" fill="var(--vscode-editorGutter-commentRangeForeground, #C5C5C5)" />
              <g>
                <path d="M56.7227 120.328C54.2324 120.328 52.6504 122.027 52.6504 124.77C52.6504 127.506 54.209 129.217 56.7227 129.217C59.2188 129.217 60.7891 127.506 60.7891 124.77C60.7891 122.033 59.2129 120.328 56.7227 120.328ZM56.7227 121.828C58.0938 121.828 58.9785 122.971 58.9785 124.77C58.9785 126.562 58.0996 127.717 56.7227 127.717C55.3281 127.717 54.4609 126.562 54.4609 124.77C54.4609 122.971 55.3457 121.828 56.7227 121.828ZM66.0332 122.443C65.1426 122.443 64.4102 122.883 64.0586 123.609H63.9531V122.549H62.3008V131.139H64.0059V128.016H64.1113C64.4277 128.695 65.1367 129.1 66.0625 129.1C67.6797 129.1 68.6699 127.846 68.6699 125.771C68.6699 123.691 67.668 122.443 66.0332 122.443ZM65.4531 127.723C64.5508 127.723 63.9883 126.984 63.9883 125.777C63.9883 124.57 64.5508 123.826 65.459 123.826C66.3672 123.826 66.918 124.559 66.918 125.771C66.918 126.99 66.373 127.723 65.4531 127.723ZM74.2363 127.178C74.0547 127.617 73.5918 127.863 72.918 127.863C72.0273 127.863 71.4648 127.248 71.4414 126.264V126.176H75.877V125.666C75.877 123.627 74.752 122.408 72.8477 122.408C70.9258 122.408 69.7422 123.709 69.7422 125.807C69.7422 127.893 70.9023 129.135 72.8711 129.135C74.4531 129.135 75.5723 128.379 75.8242 127.178H74.2363ZM72.8535 123.68C73.6504 123.68 74.166 124.23 74.2012 125.115H71.4473C71.5059 124.248 72.0625 123.68 72.8535 123.68ZM77.2773 129H78.9824V125.268C78.9824 124.395 79.4688 123.832 80.2598 123.832C81.0684 123.832 81.4492 124.307 81.4492 125.215V129H83.1543V124.828C83.1543 123.287 82.3809 122.408 80.9453 122.408C79.9902 122.408 79.334 122.859 79.0352 123.586H78.9297V122.549H77.2773V129ZM87.4961 126.557C87.4961 128.186 88.6328 129.217 90.3672 129.217C92.1602 129.217 93.2383 128.197 93.2383 126.398V120.545H91.4688V126.387C91.4688 127.236 91.0703 127.688 90.3438 127.688C89.6641 127.688 89.2188 127.242 89.207 126.557H87.4961ZM96.8008 129.1C97.6387 129.1 98.3418 128.742 98.6758 128.145H98.7812V129H100.434V124.594C100.434 123.217 99.4668 122.408 97.7559 122.408C96.1328 122.408 95.0371 123.152 94.9258 124.336H96.4961C96.6367 123.932 97.0469 123.715 97.6621 123.715C98.3652 123.715 98.752 124.037 98.752 124.594V125.127L97.1875 125.221C95.582 125.314 94.6855 125.994 94.6855 127.16C94.6855 128.338 95.5586 129.1 96.8008 129.1ZM97.3633 127.852C96.7715 127.852 96.3555 127.553 96.3555 127.055C96.3555 126.58 96.7129 126.305 97.4453 126.258L98.752 126.17V126.65C98.752 127.33 98.1543 127.852 97.3633 127.852ZM107.775 122.549H105.977L104.652 127.4H104.547L103.211 122.549H101.377L103.621 129H105.543L107.775 122.549ZM110.488 129.1C111.326 129.1 112.029 128.742 112.363 128.145H112.469V129H114.121V124.594C114.121 123.217 113.154 122.408 111.443 122.408C109.82 122.408 108.725 123.152 108.613 124.336H110.184C110.324 123.932 110.734 123.715 111.35 123.715C112.053 123.715 112.439 124.037 112.439 124.594V125.127L110.875 125.221C109.27 125.314 108.373 125.994 108.373 127.16C108.373 128.338 109.246 129.1 110.488 129.1ZM111.051 127.852C110.459 127.852 110.043 127.553 110.043 127.055C110.043 126.58 110.4 126.305 111.133 126.258L112.439 126.17V126.65C112.439 127.33 111.842 127.852 111.051 127.852ZM118.68 126.662C118.744 128.227 120.051 129.217 122.066 129.217C124.188 129.217 125.494 128.174 125.494 126.486C125.494 125.18 124.762 124.447 123.062 124.084L122.043 123.867C121.053 123.65 120.648 123.34 120.648 122.807C120.648 122.145 121.234 121.717 122.119 121.717C122.975 121.717 123.596 122.168 123.678 122.859H125.342C125.289 121.365 123.971 120.328 122.107 120.328C120.156 120.328 118.873 121.371 118.873 122.947C118.873 124.23 119.629 125.021 121.17 125.35L122.271 125.59C123.309 125.818 123.73 126.141 123.73 126.697C123.73 127.354 123.08 127.816 122.16 127.816C121.164 127.816 120.473 127.365 120.391 126.662H118.68ZM131.178 127.178C130.996 127.617 130.533 127.863 129.859 127.863C128.969 127.863 128.406 127.248 128.383 126.264V126.176H132.818V125.666C132.818 123.627 131.693 122.408 129.789 122.408C127.867 122.408 126.684 123.709 126.684 125.807C126.684 127.893 127.844 129.135 129.812 129.135C131.395 129.135 132.514 128.379 132.766 127.178H131.178ZM129.795 123.68C130.592 123.68 131.107 124.23 131.143 125.115H128.389C128.447 124.248 129.004 123.68 129.795 123.68ZM134.705 121.008V122.607H133.697V123.902H134.705V127.26C134.705 128.514 135.326 129.023 136.896 129.023C137.225 129.023 137.541 128.988 137.752 128.947V127.688C137.588 127.705 137.471 127.717 137.248 127.717C136.668 127.717 136.41 127.447 136.41 126.867V123.902H137.752V122.607H136.41V121.008H134.705ZM139.721 121.008V122.607H138.713V123.902H139.721V127.26C139.721 128.514 140.342 129.023 141.912 129.023C142.24 129.023 142.557 128.988 142.768 128.947V127.688C142.604 127.705 142.486 127.717 142.264 127.717C141.684 127.717 141.426 127.447 141.426 126.867V123.902H142.768V122.607H141.426V121.008H139.721ZM145.059 121.559C145.586 121.559 146.02 121.137 146.02 120.609C146.02 120.076 145.586 119.654 145.059 119.654C144.531 119.654 144.092 120.076 144.092 120.609C144.092 121.137 144.531 121.559 145.059 121.559ZM144.203 129H145.908V122.549H144.203V129ZM147.637 129H149.342V125.268C149.342 124.395 149.828 123.832 150.619 123.832C151.428 123.832 151.809 124.307 151.809 125.215V129H153.514V124.828C153.514 123.287 152.74 122.408 151.305 122.408C150.35 122.408 149.693 122.859 149.395 123.586H149.289V122.549H147.637V129ZM158.02 131.443C159.971 131.443 161.207 130.494 161.207 128.988V122.549H159.555V123.58H159.449C159.104 122.877 158.359 122.443 157.486 122.443C155.846 122.443 154.838 123.721 154.838 125.719C154.838 127.652 155.84 128.906 157.451 128.906C158.359 128.906 159.039 128.537 159.396 127.857H159.502V129.059C159.502 129.803 158.969 130.236 158.055 130.236C157.316 130.236 156.836 129.979 156.748 129.568H155.061C155.166 130.699 156.303 131.443 158.02 131.443ZM158.043 127.6C157.117 127.6 156.59 126.873 156.59 125.713C156.59 124.553 157.123 123.826 158.043 123.826C158.963 123.826 159.52 124.553 159.52 125.713C159.52 126.873 158.969 127.6 158.043 127.6ZM162.771 124.43C162.771 125.42 163.381 126.012 164.635 126.287L165.807 126.551C166.375 126.68 166.621 126.879 166.621 127.207C166.621 127.635 166.164 127.928 165.502 127.928C164.822 127.928 164.406 127.664 164.277 127.219H162.613C162.73 128.438 163.762 129.135 165.467 129.135C167.16 129.135 168.314 128.303 168.314 127.025C168.314 126.064 167.752 125.537 166.498 125.262L165.285 124.998C164.688 124.863 164.412 124.658 164.412 124.33C164.412 123.908 164.863 123.621 165.473 123.621C166.105 123.621 166.498 123.885 166.586 124.312H168.162C168.068 123.094 167.102 122.408 165.461 122.408C163.85 122.408 162.771 123.223 162.771 124.43Z" fill="var(--vscode-editor-foreground, #D4D4D4)" />
              </g>
            </g>
          </g>
        </g>
        <g>
          <g>
            <rect x="25" y="149" width="14" height="6" rx="3" fill="var(--vscode-activityBar-activeBorder, #FFFFFF)" fill-opacity="0.16" />
            <rect x="52" y="149" width="205" height="6" rx="3" fill="var(--vscode-activityBar-activeBorder, #FFFFFF)" fill-opacity="0.16" />
          </g>
        </g>
        <g>
          <g>
            <rect x="25" y="171" width="14" height="6" rx="3" fill="var(--vscode-activityBar-activeBorder, #FFFFFF)" fill-opacity="0.16" />
            <rect x="52" y="171" width="135" height="6" rx="3" fill="var(--vscode-activityBar-activeBorder, #FFFFFF)" fill-opacity="0.16" />
          </g>
        </g>
        <g>
          <g>
            <rect x="25" y="193" width="14" height="6" rx="3" fill="var(--vscode-activityBar-activeBorder, #FFFFFF)" fill-opacity="0.16" />
            <rect x="52" y="193" width="173" height="6" rx="3" fill="var(--vscode-activityBar-activeBorder, #FFFFFF)" fill-opacity="0.16" />
          </g>
        </g>
      </g>
      <g>
        <g>
          <g clip-path="url(#clip0_2526_366671)">
            <g>
              <path d="M33.4746 36.9492V35.9878H30.2949V36.96H32.293V37.1318C32.2822 38.3188 31.4121 39.1191 30.1445 39.1191C28.689 39.1191 27.7759 37.9751 27.7759 36.1167C27.7759 34.2852 28.6836 33.1304 30.1177 33.1304C31.1758 33.1304 31.9116 33.6514 32.2124 34.6128H33.4209C33.1577 33.0498 31.8794 32.0615 30.1177 32.0615C27.9478 32.0615 26.5459 33.6567 26.5459 36.1221C26.5459 38.6196 27.9316 40.188 30.1284 40.188C32.1587 40.188 33.4746 38.915 33.4746 36.9492ZM40.0542 38.9634H36.3374V36.5518H39.8555V35.5527H36.3374V33.2861H40.0542V32.2495H35.1343V40H40.0542V38.9634ZM42.9653 40V34.3711H43.0513L47.0312 40H48.1162V32.2495H46.9453V37.8892H46.8594L42.8794 32.2495H41.7944V40H42.9653ZM54.9858 38.9634H51.269V36.5518H54.7871V35.5527H51.269V33.2861H54.9858V32.2495H50.0659V40H54.9858V38.9634ZM57.9292 37.019H59.6265L61.2056 40H62.5967L60.8564 36.8311C61.8018 36.5142 62.3604 35.6655 62.3604 34.6182C62.3604 33.1733 61.356 32.2495 59.793 32.2495H56.7261V40H57.9292V37.019ZM57.9292 33.2593H59.6265C60.5557 33.2593 61.125 33.7803 61.125 34.645C61.125 35.5312 60.5879 36.0308 59.6587 36.0308H57.9292V33.2593ZM69.0903 40H70.3687L67.5703 32.2495H66.2759L63.4775 40H64.7129L65.4272 37.9053H68.3813L69.0903 40ZM66.8613 33.6191H66.9526L68.0752 36.9385H65.7334L66.8613 33.6191ZM76.5562 38.9526H72.9253V32.2495H71.7222V40H76.5562V38.9526Z" fill="var(--vscode-panel-dropBorder, #E7E7E7)" />
            </g>
            <rect x="25.5" y="52" width="52" height="1" fill="var(--vscode-panel-dropBorder, #E7E7E7)" />
          </g>
        </g>
        <g>
          <g>
            <g>
              <path d="M106.837 37.9321C106.923 39.3071 108.078 40.188 109.796 40.188C111.633 40.188 112.783 39.2642 112.783 37.7979C112.783 36.6377 112.127 35.9985 110.538 35.6172L109.684 35.4077C108.674 35.1606 108.266 34.8384 108.266 34.2744C108.266 33.5493 108.899 33.082 109.85 33.082C110.752 33.082 111.375 33.5332 111.488 34.269H112.659C112.589 32.9746 111.44 32.0615 109.866 32.0615C108.174 32.0615 107.046 32.9746 107.046 34.3389C107.046 35.4668 107.686 36.1328 109.087 36.4712L110.086 36.7129C111.112 36.96 111.563 37.3359 111.563 37.9429C111.563 38.6519 110.854 39.1621 109.888 39.1621C108.851 39.1621 108.131 38.6841 108.029 37.9321H106.837ZM117.536 40V33.2861H119.969V32.2495H113.895V33.2861H116.333V40H117.536ZM122.639 32.2495H121.436V37.3306C121.436 39.0063 122.633 40.188 124.572 40.188C126.522 40.188 127.714 39.0063 127.714 37.3306V32.2495H126.511V37.2339C126.511 38.3403 125.808 39.1191 124.572 39.1191C123.342 39.1191 122.639 38.3403 122.639 37.2339V32.2495ZM129.653 32.2495V40H132.452C134.761 40 136.099 38.5713 136.099 36.106C136.099 33.6675 134.75 32.2495 132.452 32.2495H129.653ZM130.856 33.2861H132.317C133.923 33.2861 134.874 34.3335 134.874 36.1221C134.874 37.9268 133.939 38.9634 132.317 38.9634H130.856V33.2861ZM142.651 38.9634H138.935V36.5518H142.453V35.5527H138.935V33.2861H142.651V32.2495H137.731V40H142.651V38.9634ZM145.562 40V34.3711H145.648L149.628 40H150.713V32.2495H149.542V37.8892H149.457L145.477 32.2495H144.392V40H145.562ZM155.832 40V33.2861H158.265V32.2495H152.19V33.2861H154.629V40H155.832Z" fill="var(--vscode-panel-dropBorder, #E7E7E7)" fill-opacity="0.6" />
            </g>
          </g>
        </g>
        <g>
          <g clip-path="url(#clip1_2526_366671)">
            <g>
              <path d="M193.434 37.9321C193.52 39.3071 194.674 40.188 196.393 40.188C198.23 40.188 199.379 39.2642 199.379 37.7979C199.379 36.6377 198.724 35.9985 197.134 35.6172L196.28 35.4077C195.271 35.1606 194.862 34.8384 194.862 34.2744C194.862 33.5493 195.496 33.082 196.447 33.082C197.349 33.082 197.972 33.5332 198.085 34.269H199.256C199.186 32.9746 198.037 32.0615 196.463 32.0615C194.771 32.0615 193.643 32.9746 193.643 34.3389C193.643 35.4668 194.282 36.1328 195.684 36.4712L196.683 36.7129C197.709 36.96 198.16 37.3359 198.16 37.9429C198.16 38.6519 197.451 39.1621 196.484 39.1621C195.448 39.1621 194.728 38.6841 194.626 37.9321H193.434ZM200.964 32.2495V40H202.167V37.3521H203.961C205.481 37.3521 206.555 36.3101 206.555 34.8169C206.555 33.2915 205.513 32.2495 203.999 32.2495H200.964ZM202.167 33.2646H203.682C204.74 33.2646 205.325 33.8125 205.325 34.8169C205.325 35.7891 204.718 36.3423 203.682 36.3423H202.167V33.2646ZM209.311 37.019H211.008L212.587 40H213.978L212.238 36.8311C213.183 36.5142 213.742 35.6655 213.742 34.6182C213.742 33.1733 212.737 32.2495 211.174 32.2495H208.107V40H209.311V37.019ZM209.311 33.2593H211.008C211.937 33.2593 212.506 33.7803 212.506 34.645C212.506 35.5312 211.969 36.0308 211.04 36.0308H209.311V33.2593ZM216.658 40V32.2495H215.455V40H216.658ZM219.773 40V34.3711H219.859L223.839 40H224.924V32.2495H223.753V37.8892H223.667L219.688 32.2495H218.603V40H219.773ZM233.486 36.9492V35.9878H230.306V36.96H232.304V37.1318C232.293 38.3188 231.423 39.1191 230.156 39.1191C228.7 39.1191 227.787 37.9751 227.787 36.1167C227.787 34.2852 228.695 33.1304 230.129 33.1304C231.187 33.1304 231.923 33.6514 232.224 34.6128H233.432C233.169 33.0498 231.891 32.0615 230.129 32.0615C227.959 32.0615 226.557 33.6567 226.557 36.1221C226.557 38.6196 227.943 40.188 230.14 40.188C232.17 40.188 233.486 38.915 233.486 36.9492Z" fill="var(--vscode-panel-dropBorder, #E7E7E7)" fill-opacity="0.6" />
            </g>
          </g>
        </g>
      </g>
    </g>
    <g filter="url(#filter1_d_2526_366671)">
      <path d="M290 176C290 171.582 293.582 168 298 168H494C498.418 168 502 171.582 502 176V248C502 252.418 498.418 256 494 256H298C293.582 256 290 252.418 290 248V176Z" fill="var(--vscode-breadcrumbPicker-background, #252526)" />
      <path d="M316.188 218.363C316.441 223.461 320.719 226.703 327.184 226.703C334.02 226.703 338.258 223.305 338.258 217.836C338.258 213.559 335.855 211.176 330.133 209.867L326.891 209.125C323.395 208.305 321.969 207.191 321.969 205.258C321.969 202.816 324.117 201.215 327.359 201.215C330.445 201.215 332.633 202.797 332.984 205.316H337.809C337.574 200.492 333.297 197.113 327.379 197.113C321.07 197.113 316.891 200.512 316.891 205.59C316.891 209.77 319.293 212.289 324.41 213.461L328.062 214.301C331.676 215.141 333.219 216.391 333.219 218.441C333.219 220.844 330.816 222.582 327.496 222.582C323.922 222.582 321.422 220.941 321.109 218.363H316.188ZM343.609 226H348.453V213.598C348.453 210.473 350.23 208.383 353.414 208.383C356.227 208.383 357.711 210.062 357.711 213.363V226H362.555V212.23C362.555 207.152 359.781 204.262 355.211 204.262C352.027 204.262 349.742 205.707 348.727 208.109H348.375V196.391H343.609V226ZM370.758 201.078C372.359 201.078 373.668 199.809 373.668 198.207C373.668 196.625 372.359 195.336 370.758 195.336C369.176 195.336 367.867 196.625 367.867 198.207C367.867 199.809 369.176 201.078 370.758 201.078ZM368.355 226H373.18V204.652H368.355V226ZM380.758 226H385.582V208.559H390.172V204.789H385.523V202.816C385.523 200.785 386.422 199.77 388.707 199.77C389.391 199.77 389.977 199.828 390.367 199.887V196.391C389.586 196.254 388.707 196.195 387.672 196.195C382.926 196.195 380.758 198.285 380.758 202.543V204.789H377.262V208.559H380.758V226ZM396.52 199.418V204.789H393.141V208.559H396.52V220.336C396.52 224.457 398.473 226.098 403.375 226.098C404.312 226.098 405.211 226.02 405.914 225.883V222.172C405.328 222.23 404.957 222.27 404.273 222.27C402.242 222.27 401.344 221.312 401.344 219.184V208.559H405.914V204.789H401.344V199.418H396.52ZM422.945 216.938H430.641V212.602H422.945V204.535H418.551V212.602H410.875V216.938H418.551V225.004H422.945V216.938ZM442.789 226V214.496H454.605V210.395H442.789V202.055H455.719V197.816H437.75V226H442.789ZM467.574 226H472.613V197.816H467.594L460.23 202.992V207.738L467.242 202.777H467.574V226Z" fill="var(--vscode-breadcrumb-foreground, #CCCCCC)" />
    </g>
  
  
  </a>
  </g>
  <defs>
    <filter id="filter0_d_2526_366671" x="-5" y="0" width="481" height="247" filterUnits="userSpaceOnUse" color-interpolation-filters="sRGB">
      <feFlood flood-opacity="0" result="BackgroundImageFix" />
      <feColorMatrix in="SourceAlpha" type="matrix" values="0 0 0 0 0 0 0 0 0 0 0 0 0 0 0 0 0 0 127 0" result="hardAlpha" />
      <feOffset dy="2" />
      <feGaussianBlur stdDeviation="8" />
      <feColorMatrix type="matrix" values="0 0 0 0 0 0 0 0 0 0 0 0 0 0 0 0 0 0 0.36 0" />
      <feBlend mode="normal" in2="BackgroundImageFix" result="effect1_dropShadow_2526_366671" />
      <feBlend mode="normal" in="SourceGraphic" in2="effect1_dropShadow_2526_366671" result="shape" />
    </filter>
    <filter id="filter1_d_2526_366671" x="278" y="158" width="236" height="112" filterUnits="userSpaceOnUse" color-interpolation-filters="sRGB">
      <feFlood flood-opacity="0" result="BackgroundImageFix" />
      <feColorMatrix in="SourceAlpha" type="matrix" values="0 0 0 0 0 0 0 0 0 0 0 0 0 0 0 0 0 0 127 0" result="hardAlpha" />
      <feOffset dy="2" />
      <feGaussianBlur stdDeviation="6" />
      <feColorMatrix type="matrix" values="0 0 0 0 0 0 0 0 0 0 0 0 0 0 0 0 0 0 0.6 0" />
      <feBlend mode="normal" in2="BackgroundImageFix" result="effect1_dropShadow_2526_366671" />
      <feBlend mode="normal" in="SourceGraphic" in2="effect1_dropShadow_2526_366671" result="shape" />
    </filter>
    <clipPath id="clip0_2526_366671">
      <rect width="52" height="23" fill="var(--vscode-activityBar-activeBorder, #FFFFFF)" transform="translate(25.5 30)" />
    </clipPath>
    <clipPath id="clip1_2526_366671">
      <rect width="42" height="23" fill="var(--vscode-activityBar-activeBorder, #FFFFFF)" transform="translate(192.5 30)" />
    </clipPath>
  </defs>
</svg>