<svg width="380" height="139" viewBox="0 0 380 139" fill="none" xmlns="http://www.w3.org/2000/svg">
<path d="M181.9 50.925H185.2L206.575 29.55L203.275 26.25L183.55 45.975L174.55 36.975L171.25 40.275L181.9 50.925ZM192.85 4.65C196.45 4.9 200 5.9 203.5 7.65C206.8 9.25 209.8 11.375 212.5 14.025C218.75 20.775 221.875 28.75 221.875 37.95C221.875 41.65 221.2 45.275 219.85 48.825C218.6 52.225 216.775 55.475 214.375 58.575C211.975 61.475 209.2 63.875 206.05 65.775C202.75 67.775 199.275 69.125 195.625 69.825C191.775 70.575 188.075 70.675 184.525 70.125C180.775 69.575 177.3 68.4 174.1 66.6C170.75 64.65 167.825 62.3 165.325 59.55C162.875 56.75 160.925 53.6 159.475 50.1C158.075 46.6 157.275 42.925 157.075 39.075C156.925 35.225 157.425 31.575 158.575 28.125C161.025 20.325 165.4 14.375 171.7 10.275C174.7 8.225 178.025 6.725 181.675 5.775C185.325 4.825 189.05 4.45 192.85 4.65ZM195.175 65.175C198.275 64.425 201.15 63.25 203.8 61.65C206.6 59.95 209.025 57.825 211.075 55.275C213.075 52.575 214.55 49.8 215.5 46.95C216.55 43.8 216.95 40.65 216.7 37.5C216.7 33.7 216 30.025 214.6 26.475C213.25 22.925 211.3 19.875 208.75 17.325C203.9 12.475 198.275 9.825 191.875 9.375C188.725 9.125 185.65 9.375 182.65 10.125C179.4 10.925 176.525 12.225 174.025 14.025C168.675 17.925 165.1 23.1 163.3 29.55C162.3 32.7 161.875 35.825 162.025 38.925C162.125 42.225 162.85 45.35 164.2 48.3C167.05 54.4 171.275 59.075 176.875 62.325C179.675 63.975 182.65 65.05 185.8 65.55C188.95 66 192.075 65.875 195.175 65.175Z" fill="#007ACC"/>
<path d="M75.5801 105V97.2207L82.498 85.2715H78.6289L73.9395 93.7344H73.707L69.0039 85.2715H65.1348L72.0527 97.2207V105H75.5801ZM89.457 105.301C93.9277 105.301 96.6484 102.375 96.6484 97.5215C96.6484 92.6953 93.9141 89.7695 89.457 89.7695C85.0137 89.7695 82.2656 92.709 82.2656 97.5215C82.2656 102.375 84.9727 105.301 89.457 105.301ZM89.457 102.525C87.0918 102.525 85.7383 100.693 85.7383 97.5352C85.7383 94.377 87.0918 92.5449 89.457 92.5449C91.8086 92.5449 93.1621 94.377 93.1621 97.5352C93.1621 100.693 91.8223 102.525 89.457 102.525ZM113.082 90.0566H109.691V98.7656C109.691 101.021 108.488 102.389 106.287 102.389C104.264 102.389 103.32 101.268 103.32 98.9434V90.0566H99.9297V99.7637C99.9297 103.264 101.844 105.301 105.111 105.301C107.395 105.301 108.857 104.33 109.582 102.621H109.814V105H113.082V90.0566ZM119.316 93.2148L121.9 85.2715H118.428L116.924 93.2148H119.316ZM125.77 105H129.16V96.3184C129.16 94.2129 130.691 92.8457 132.893 92.8457C133.467 92.8457 134.369 92.9414 134.629 93.0371V89.9473C134.314 89.8652 133.713 89.8105 133.221 89.8105C131.293 89.8105 129.68 90.9043 129.27 92.3809H129.037V90.0566H125.77V105ZM146.783 100.912C146.291 102.033 145.129 102.662 143.447 102.662C141.219 102.662 139.783 101.076 139.701 98.5469V98.3691H150.146V97.2891C150.146 92.5996 147.59 89.7695 143.324 89.7695C138.99 89.7695 136.297 92.791 136.297 97.5898C136.297 102.375 138.949 105.301 143.352 105.301C146.879 105.301 149.381 103.605 149.996 100.912H146.783ZM143.311 92.4082C145.348 92.4082 146.688 93.8438 146.756 96.1133H139.715C139.865 93.8711 141.287 92.4082 143.311 92.4082ZM167.441 110.688C171.803 110.688 174.564 108.514 174.564 105.082V90.0566H171.297V92.4492H171.064C170.244 90.8223 168.467 89.8105 166.43 89.8105C162.615 89.8105 160.25 92.791 160.25 97.3711C160.25 101.855 162.602 104.781 166.375 104.781C168.453 104.781 170.08 103.906 170.941 102.293H171.174V105.137C171.174 107.037 169.82 108.158 167.496 108.158C165.637 108.158 164.434 107.488 164.215 106.436H160.811C161.084 109.006 163.6 110.688 167.441 110.688ZM167.441 102.088C165.076 102.088 163.736 100.256 163.736 97.3574C163.736 94.4727 165.076 92.6406 167.441 92.6406C169.793 92.6406 171.229 94.4727 171.229 97.3711C171.229 100.256 169.807 102.088 167.441 102.088ZM185.188 105.301C189.658 105.301 192.379 102.375 192.379 97.5215C192.379 92.6953 189.645 89.7695 185.188 89.7695C180.744 89.7695 177.996 92.709 177.996 97.5215C177.996 102.375 180.703 105.301 185.188 105.301ZM185.188 102.525C182.822 102.525 181.469 100.693 181.469 97.5352C181.469 94.377 182.822 92.5449 185.188 92.5449C187.539 92.5449 188.893 94.377 188.893 97.5352C188.893 100.693 187.553 102.525 185.188 102.525ZM202.25 105.301C206.721 105.301 209.441 102.375 209.441 97.5215C209.441 92.6953 206.707 89.7695 202.25 89.7695C197.807 89.7695 195.059 92.709 195.059 97.5215C195.059 102.375 197.766 105.301 202.25 105.301ZM202.25 102.525C199.885 102.525 198.531 100.693 198.531 97.5352C198.531 94.377 199.885 92.5449 202.25 92.5449C204.602 92.5449 205.955 94.377 205.955 97.5352C205.955 100.693 204.615 102.525 202.25 102.525ZM218.273 105.246C220.352 105.246 222.074 104.275 222.922 102.635H223.154V105H226.436V84.2734H223.045V92.4355H222.812C222.02 90.7949 220.324 89.8105 218.273 89.8105C214.5 89.8105 212.121 92.791 212.121 97.5215C212.121 102.266 214.486 105.246 218.273 105.246ZM219.326 92.6406C221.65 92.6406 223.086 94.5137 223.086 97.5352C223.086 100.57 221.664 102.43 219.326 102.43C217.002 102.43 215.594 100.598 215.594 97.5352C215.594 94.4863 217.016 92.6406 219.326 92.6406ZM239.26 86.3926V90.1523H236.895V92.791H239.26V101.035C239.26 103.92 240.627 105.068 244.059 105.068C244.715 105.068 245.344 105.014 245.836 104.918V102.32C245.426 102.361 245.166 102.389 244.688 102.389C243.266 102.389 242.637 101.719 242.637 100.229V92.791H245.836V90.1523H242.637V86.3926H239.26ZM255.543 105.301C260.014 105.301 262.734 102.375 262.734 97.5215C262.734 92.6953 260 89.7695 255.543 89.7695C251.1 89.7695 248.352 92.709 248.352 97.5215C248.352 102.375 251.059 105.301 255.543 105.301ZM255.543 102.525C253.178 102.525 251.824 100.693 251.824 97.5352C251.824 94.377 253.178 92.5449 255.543 92.5449C257.895 92.5449 259.248 94.377 259.248 97.5352C259.248 100.693 257.908 102.525 255.543 102.525ZM280.043 110.688C284.404 110.688 287.166 108.514 287.166 105.082V90.0566H283.898V92.4492H283.666C282.846 90.8223 281.068 89.8105 279.031 89.8105C275.217 89.8105 272.852 92.791 272.852 97.3711C272.852 101.855 275.203 104.781 278.977 104.781C281.055 104.781 282.682 103.906 283.543 102.293H283.775V105.137C283.775 107.037 282.422 108.158 280.098 108.158C278.238 108.158 277.035 107.488 276.816 106.436H273.412C273.686 109.006 276.201 110.688 280.043 110.688ZM280.043 102.088C277.678 102.088 276.338 100.256 276.338 97.3574C276.338 94.4727 277.678 92.6406 280.043 92.6406C282.395 92.6406 283.83 94.4727 283.83 97.3711C283.83 100.256 282.408 102.088 280.043 102.088ZM297.789 105.301C302.26 105.301 304.98 102.375 304.98 97.5215C304.98 92.6953 302.246 89.7695 297.789 89.7695C293.346 89.7695 290.598 92.709 290.598 97.5215C290.598 102.375 293.305 105.301 297.789 105.301ZM297.789 102.525C295.424 102.525 294.07 100.693 294.07 97.5352C294.07 94.377 295.424 92.5449 297.789 92.5449C300.141 92.5449 301.494 94.377 301.494 97.5352C301.494 100.693 300.154 102.525 297.789 102.525ZM309.178 85.2578L309.492 98.4785H312.65L312.965 85.2578H309.178ZM311.078 105.342C312.459 105.342 313.348 104.494 313.348 103.195C313.348 101.883 312.459 101.035 311.078 101.035C309.697 101.035 308.809 101.883 308.809 103.195C308.809 104.494 309.697 105.342 311.078 105.342Z" fill="var(--vscode-foreground, white)"/>
</svg>
