<svg width="380" height="139" viewBox="0 0 380 139" fill="none" xmlns="http://www.w3.org/2000/svg">
<path d="M181.9 50.925H185.2L206.575 29.55L203.275 26.25L183.55 45.975L174.55 36.975L171.25 40.275L181.9 50.925ZM192.85 4.65C196.45 4.9 200 5.9 203.5 7.65C206.8 9.25 209.8 11.375 212.5 14.025C218.75 20.775 221.875 28.75 221.875 37.95C221.875 41.65 221.2 45.275 219.85 48.825C218.6 52.225 216.775 55.475 214.375 58.575C211.975 61.475 209.2 63.875 206.05 65.775C202.75 67.775 199.275 69.125 195.625 69.825C191.775 70.575 188.075 70.675 184.525 70.125C180.775 69.575 177.3 68.4 174.1 66.6C170.75 64.65 167.825 62.3 165.325 59.55C162.875 56.75 160.925 53.6 159.475 50.1C158.075 46.6 157.275 42.925 157.075 39.075C156.925 35.225 157.425 31.575 158.575 28.125C161.025 20.325 165.4 14.375 171.7 10.275C174.7 8.225 178.025 6.725 181.675 5.775C185.325 4.825 189.05 4.45 192.85 4.65ZM195.175 65.175C198.275 64.425 201.15 63.25 203.8 61.65C206.6 59.95 209.025 57.825 211.075 55.275C213.075 52.575 214.55 49.8 215.5 46.95C216.55 43.8 216.95 40.65 216.7 37.5C216.7 33.7 216 30.025 214.6 26.475C213.25 22.925 211.3 19.875 208.75 17.325C203.9 12.475 198.275 9.825 191.875 9.375C188.725 9.125 185.65 9.375 182.65 10.125C179.4 10.925 176.525 12.225 174.025 14.025C168.675 17.925 165.1 23.1 163.3 29.55C162.3 32.7 161.875 35.825 162.025 38.925C162.125 42.225 162.85 45.35 164.2 48.3C167.05 54.4 171.275 59.075 176.875 62.325C179.675 63.975 182.65 65.05 185.8 65.55C188.95 66 192.075 65.875 195.175 65.175Z" fill="#007ACC"/>
<path d="M75.5801 105V97.2207L82.498 85.2715H78.6289L73.9395 93.7344H73.707L69.0039 85.2715H65.1348L72.0527 97.2207V105H75.5801ZM89.457 105.301C93.9277 105.301 96.6484 102.375 96.6484 97.5215C96.6484 92.6953 93.9141 89.7695 89.457 89.7695C85.0137 89.7695 82.2656 92.709 82.2656 97.5215C82.2656 102.375 84.9727 105.301 89.457 105.301ZM89.457 102.525C87.0918 102.525 85.7383 100.693 85.7383 97.5352C85.7383 94.377 87.0918 92.5449 89.457 92.5449C91.8086 92.5449 93.1621 94.377 93.1621 97.5352C93.1621 100.693 91.8223 102.525 89.457 102.525ZM113.082 90.0566H109.691V98.7656C109.691 101.021 108.488 102.389 106.287 102.389C104.264 102.389 103.32 101.268 103.32 98.9434V90.0566H99.9297V99.7637C99.9297 103.264 101.844 105.301 105.111 105.301C107.395 105.301 108.857 104.33 109.582 102.621H109.814V105H113.082V90.0566ZM119.316 93.2148L121.9 85.2715H118.428L116.924 93.2148H119.316ZM125.77 105H129.16V96.3184C129.16 94.2129 130.691 92.8457 132.893 92.8457C133.467 92.8457 134.369 92.9414 134.629 93.0371V89.9473C134.314 89.8652 133.713 89.8105 133.221 89.8105C131.293 89.8105 129.68 90.9043 129.27 92.3809H129.037V90.0566H125.77V105ZM146.783 100.912C146.291 102.033 145.129 102.662 143.447 102.662C141.219 102.662 139.783 101.076 139.701 98.5469V98.3691H150.146V97.2891C150.146 92.5996 147.59 89.7695 143.324 89.7695C138.99 89.7695 136.297 92.791 136.297 97.5898C136.297 102.375 138.949 105.301 143.352 105.301C146.879 105.301 149.381 103.605 149.996 100.912H146.783ZM143.311 92.4082C145.348 92.4082 146.688 93.8438 146.756 96.1133H139.715C139.865 93.8711 141.287 92.4082 143.311 92.4082ZM167.441 110.688C171.803 110.688 174.564 108.514 174.564 105.082V90.0566H171.297V92.4492H171.064C170.244 90.8223 168.467 89.8105 166.43 89.8105C162.615 89.8105 160.25 92.791 160.25 97.3711C160.25 101.855 162.602 104.781 166.375 104.781C168.453 104.781 170.08 103.906 170.941 102.293H171.174V105.137C171.174 107.037 169.82 108.158 167.496 108.158C165.637 108.158 164.434 107.488 164.215 106.436H160.811C161.084 109.006 163.6 110.688 167.441 110.688ZM167.441 102.088C165.076 102.088 163.736 100.256 163.736 97.3574C163.736 94.4727 165.076 92.6406 167.441 92.6406C169.793 92.6406 171.229 94.4727 171.229 97.3711C171.229 100.256 169.807 102.088 167.441 102.088ZM185.188 105.301C189.658 105.301 192.379 102.375 192.379 97.5215C192.379 92.6953 189.645 89.7695 185.188 89.7695C180.744 89.7695 177.996 92.709 177.996 97.5215C177.996 102.375 180.703 105.301 185.188 105.301ZM185.188 102.525C182.822 102.525 181.469 100.693 181.469 97.5352C181.469 94.377 182.822 92.5449 185.188 92.5449C187.539 92.5449 188.893 94.377 188.893 97.5352C188.893 100.693 187.553 102.525 185.188 102.525ZM202.25 105.301C206.721 105.301 209.441 102.375 209.441 97.5215C209.441 92.6953 206.707 89.7695 202.25 89.7695C197.807 89.7695 195.059 92.709 195.059 97.5215C195.059 102.375 197.766 105.301 202.25 105.301ZM202.25 102.525C199.885 102.525 198.531 100.693 198.531 97.5352C198.531 94.377 199.885 92.5449 202.25 92.5449C204.602 92.5449 205.955 94.377 205.955 97.5352C205.955 100.693 204.615 102.525 202.25 102.525ZM218.273 105.246C220.352 105.246 222.074 104.275 222.922 102.635H223.154V105H226.436V84.2734H223.045V92.4355H222.812C222.02 90.7949 220.324 89.8105 218.273 89.8105C214.5 89.8105 212.121 92.791 212.121 97.5215C212.121 102.266 214.486 105.246 218.273 105.246ZM219.326 92.6406C221.65 92.6406 223.086 94.5137 223.086 97.5352C223.086 100.57 221.664 102.43 219.326 102.43C217.002 102.43 215.594 100.598 215.594 97.5352C215.594 94.4863 217.016 92.6406 219.326 92.6406ZM239.26 86.3926V90.1523H236.895V92.791H239.26V101.035C239.26 103.92 240.627 105.068 244.059 105.068C244.715 105.068 245.344 105.014 245.836 104.918V102.32C245.426 102.361 245.166 102.389 244.688 102.389C243.266 102.389 242.637 101.719 242.637 100.229V92.791H245.836V90.1523H242.637V86.3926H239.26ZM255.543 105.301C260.014 105.301 262.734 102.375 262.734 97.5215C262.734 92.6953 260 89.7695 255.543 89.7695C251.1 89.7695 248.352 92.709 248.352 97.5215C248.352 102.375 251.059 105.301 255.543 105.301ZM255.543 102.525C253.178 102.525 251.824 100.693 251.824 97.5352C251.824 94.377 253.178 92.5449 255.543 92.5449C257.895 92.5449 259.248 94.377 259.248 97.5352C259.248 100.693 257.908 102.525 255.543 102.525ZM280.043 110.688C284.404 110.688 287.166 108.514 287.166 105.082V90.0566H283.898V92.4492H283.666C282.846 90.8223 281.068 89.8105 279.031 89.8105C275.217 89.8105 272.852 92.791 272.852 97.3711C272.852 101.855 275.203 104.781 278.977 104.781C281.055 104.781 282.682 103.906 283.543 102.293H283.775V105.137C283.775 107.037 282.422 108.158 280.098 108.158C278.238 108.158 277.035 107.488 276.816 106.436H273.412C273.686 109.006 276.201 110.688 280.043 110.688ZM280.043 102.088C277.678 102.088 276.338 100.256 276.338 97.3574C276.338 94.4727 277.678 92.6406 280.043 92.6406C282.395 92.6406 283.83 94.4727 283.83 97.3711C283.83 100.256 282.408 102.088 280.043 102.088ZM297.789 105.301C302.26 105.301 304.98 102.375 304.98 97.5215C304.98 92.6953 302.246 89.7695 297.789 89.7695C293.346 89.7695 290.598 92.709 290.598 97.5215C290.598 102.375 293.305 105.301 297.789 105.301ZM297.789 102.525C295.424 102.525 294.07 100.693 294.07 97.5352C294.07 94.377 295.424 92.5449 297.789 92.5449C300.141 92.5449 301.494 94.377 301.494 97.5352C301.494 100.693 300.154 102.525 297.789 102.525ZM309.178 85.2578L309.492 98.4785H312.65L312.965 85.2578H309.178ZM311.078 105.342C312.459 105.342 313.348 104.494 313.348 103.195C313.348 101.883 312.459 101.035 311.078 101.035C309.697 101.035 308.809 101.883 308.809 103.195C308.809 104.494 309.697 105.342 311.078 105.342Z" fill="white"/>
<path d="M10.1562 135V126.812H10.2812L16.0703 135H17.6484V123.727H15.9453V131.93H15.8203L10.0312 123.727H8.45312V135H10.1562ZM25.8672 132.727C25.5547 133.414 24.8594 133.789 23.8438 133.789C22.5 133.789 21.6328 132.82 21.5781 131.281V131.203H27.5859V130.625C27.5859 127.969 26.1562 126.352 23.7891 126.352C21.3906 126.352 19.8672 128.078 19.8672 130.773C19.8672 133.484 21.3594 135.164 23.7969 135.164C25.7422 135.164 27.1172 134.227 27.4844 132.727H25.8672ZM23.7812 127.719C25.0234 127.719 25.8359 128.617 25.875 129.992H21.5781C21.6719 128.625 22.5391 127.719 23.7812 127.719ZM32.4453 131.961L34.3047 135.016H36.2344L33.3984 130.727L36.2031 126.531H34.3281L32.5156 129.562H32.3828L30.5547 126.531H28.5938L31.4375 130.789L28.6172 135.016H30.4609L32.3203 131.961H32.4453ZM38.5859 124.375V126.539H37.2344V127.883H38.5859V132.766C38.5859 134.398 39.3281 135.055 41.1953 135.055C41.5234 135.055 41.8359 135.016 42.1094 134.969V133.633C41.875 133.656 41.7266 133.672 41.4688 133.672C40.6328 133.672 40.2656 133.273 40.2656 132.359V127.883H42.1094V126.539H40.2656V124.375H38.5859ZM45.1641 137.93L46.4609 133.344H44.7031L43.9766 137.93H45.1641ZM59.0859 132.727C58.7734 133.414 58.0781 133.789 57.0625 133.789C55.7188 133.789 54.8516 132.82 54.7969 131.281V131.203H60.8047V130.625C60.8047 127.969 59.375 126.352 57.0078 126.352C54.6094 126.352 53.0859 128.078 53.0859 130.773C53.0859 133.484 54.5781 135.164 57.0156 135.164C58.9609 135.164 60.3359 134.227 60.7031 132.727H59.0859ZM57 127.719C58.2422 127.719 59.0547 128.617 59.0938 129.992H54.7969C54.8906 128.625 55.7578 127.719 57 127.719ZM65.6641 131.961L67.5234 135.016H69.4531L66.6172 130.727L69.4219 126.531H67.5469L65.7344 129.562H65.6016L63.7734 126.531H61.8125L64.6562 130.789L61.8359 135.016H63.6797L65.5391 131.961H65.6641ZM75.625 126.367C74.4688 126.367 73.4688 126.953 72.9531 127.922H72.8281V126.516H71.2109V137.828H72.8906V133.719H73.0234C73.4688 134.617 74.4297 135.141 75.6406 135.141C77.7891 135.141 79.1562 133.438 79.1562 130.758C79.1562 128.062 77.7891 126.367 75.625 126.367ZM75.1484 133.703C73.7422 133.703 72.8594 132.57 72.8594 130.758C72.8594 128.938 73.7422 127.805 75.1562 127.805C76.5781 127.805 77.4297 128.914 77.4297 130.758C77.4297 132.602 76.5781 133.703 75.1484 133.703ZM81.2578 135H82.9375V123.188H81.2578V135ZM89.0547 135.164C91.5391 135.164 93.0625 133.5 93.0625 130.758C93.0625 128.016 91.5312 126.352 89.0547 126.352C86.5703 126.352 85.0391 128.023 85.0391 130.758C85.0391 133.5 86.5625 135.164 89.0547 135.164ZM89.0547 133.734C87.5938 133.734 86.7734 132.648 86.7734 130.758C86.7734 128.867 87.5938 127.773 89.0547 127.773C90.5078 127.773 91.3359 128.867 91.3359 130.758C91.3359 132.641 90.5078 133.734 89.0547 133.734ZM95.0859 135H96.7656V129.93C96.7656 128.734 97.6641 127.914 98.9375 127.914C99.2344 127.914 99.7344 127.969 99.875 128.008V126.43C99.6953 126.391 99.375 126.367 99.125 126.367C98.0156 126.367 97.0703 126.969 96.8281 127.805H96.7031V126.516H95.0859V135ZM106.852 132.727C106.539 133.414 105.844 133.789 104.828 133.789C103.484 133.789 102.617 132.82 102.562 131.281V131.203H108.57V130.625C108.57 127.969 107.141 126.352 104.773 126.352C102.375 126.352 100.852 128.078 100.852 130.773C100.852 133.484 102.344 135.164 104.781 135.164C106.727 135.164 108.102 134.227 108.469 132.727H106.852ZM104.766 127.719C106.008 127.719 106.82 128.617 106.859 129.992H102.562C102.656 128.625 103.523 127.719 104.766 127.719ZM115.562 135H117.242V127.883H119.117V126.539H117.219V125.703C117.219 124.844 117.602 124.414 118.539 124.414C118.805 124.414 119.031 124.43 119.188 124.453V123.188C118.898 123.141 118.57 123.109 118.188 123.109C116.422 123.109 115.562 123.938 115.562 125.625V126.539H114.164V127.883H115.562V135ZM126.273 132.727C125.961 133.414 125.266 133.789 124.25 133.789C122.906 133.789 122.039 132.82 121.984 131.281V131.203H127.992V130.625C127.992 127.969 126.562 126.352 124.195 126.352C121.797 126.352 120.273 128.078 120.273 130.773C120.273 133.484 121.766 135.164 124.203 135.164C126.148 135.164 127.523 134.227 127.891 132.727H126.273ZM124.188 127.719C125.43 127.719 126.242 128.617 126.281 129.992H121.984C122.078 128.625 122.945 127.719 124.188 127.719ZM132.359 135.141C133.477 135.141 134.406 134.656 134.914 133.797H135.047V135H136.664V129.195C136.664 127.414 135.461 126.352 133.328 126.352C131.398 126.352 130.023 127.281 129.852 128.711H131.477C131.664 128.094 132.312 127.742 133.25 127.742C134.398 127.742 134.992 128.266 134.992 129.195V129.938L132.688 130.078C130.664 130.203 129.523 131.086 129.523 132.609C129.523 134.156 130.719 135.141 132.359 135.141ZM132.789 133.789C131.875 133.789 131.211 133.328 131.211 132.539C131.211 131.766 131.742 131.352 132.914 131.273L134.992 131.133V131.867C134.992 132.961 134.055 133.789 132.789 133.789ZM139.648 124.375V126.539H138.297V127.883H139.648V132.766C139.648 134.398 140.391 135.055 142.258 135.055C142.586 135.055 142.898 135.016 143.172 134.969V133.633C142.938 133.656 142.789 133.672 142.531 133.672C141.695 133.672 141.328 133.273 141.328 132.359V127.883H143.172V126.539H141.328V124.375H139.648ZM152.32 126.516H150.641V131.492C150.641 132.859 149.898 133.688 148.539 133.688C147.305 133.688 146.75 133.016 146.75 131.609V126.516H145.07V132.023C145.07 134.016 146.117 135.164 148 135.164C149.289 135.164 150.156 134.617 150.57 133.656H150.703V135H152.32V126.516ZM154.758 135H156.438V129.93C156.438 128.734 157.336 127.914 158.609 127.914C158.906 127.914 159.406 127.969 159.547 128.008V126.43C159.367 126.391 159.047 126.367 158.797 126.367C157.688 126.367 156.742 126.969 156.5 127.805H156.375V126.516H154.758V135ZM166.523 132.727C166.211 133.414 165.516 133.789 164.5 133.789C163.156 133.789 162.289 132.82 162.234 131.281V131.203H168.242V130.625C168.242 127.969 166.812 126.352 164.445 126.352C162.047 126.352 160.523 128.078 160.523 130.773C160.523 133.484 162.016 135.164 164.453 135.164C166.398 135.164 167.773 134.227 168.141 132.727H166.523ZM164.438 127.719C165.68 127.719 166.492 128.617 166.531 129.992H162.234C162.328 128.625 163.195 127.719 164.438 127.719ZM170.062 128.891C170.062 130.148 170.812 130.867 172.43 131.242L173.914 131.594C174.766 131.797 175.164 132.141 175.164 132.672C175.164 133.367 174.422 133.852 173.375 133.852C172.359 133.852 171.734 133.438 171.523 132.773H169.844C169.992 134.25 171.312 135.164 173.336 135.164C175.367 135.164 176.859 134.094 176.859 132.516C176.859 131.281 176.102 130.586 174.484 130.211L173.07 129.883C172.148 129.664 171.719 129.336 171.719 128.812C171.719 128.125 172.43 127.664 173.367 127.664C174.32 127.664 174.93 128.078 175.086 128.711H176.695C176.531 127.242 175.281 126.352 173.367 126.352C171.445 126.352 170.062 127.414 170.062 128.891ZM187.766 135.141C189.914 135.141 191.281 133.43 191.281 130.758C191.281 128.062 189.922 126.367 187.766 126.367C186.602 126.367 185.602 126.938 185.148 127.859H185.016V123.188H183.336V135H184.953V133.656H185.078C185.586 134.594 186.578 135.141 187.766 135.141ZM187.281 127.805C188.703 127.805 189.555 128.922 189.555 130.758C189.555 132.594 188.703 133.703 187.281 133.703C185.867 133.703 184.992 132.578 184.984 130.758C184.992 128.938 185.875 127.805 187.281 127.805ZM193.82 138.078C195.555 138.078 196.359 137.43 197.086 135.391L200.258 126.516H198.477L196.352 133.312H196.219L194.086 126.516H192.258L195.336 135.023L195.211 135.461C194.922 136.359 194.469 136.695 193.672 136.695C193.516 136.695 193.258 136.688 193.125 136.664V138.039C193.281 138.062 193.68 138.078 193.82 138.078ZM206.945 124.375V126.539H205.594V127.883H206.945V132.766C206.945 134.398 207.688 135.055 209.555 135.055C209.883 135.055 210.195 135.016 210.469 134.969V133.633C210.234 133.656 210.086 133.672 209.828 133.672C208.992 133.672 208.625 133.273 208.625 132.359V127.883H210.469V126.539H208.625V124.375H206.945ZM214.797 135.141C215.914 135.141 216.844 134.656 217.352 133.797H217.484V135H219.102V129.195C219.102 127.414 217.898 126.352 215.766 126.352C213.836 126.352 212.461 127.281 212.289 128.711H213.914C214.102 128.094 214.75 127.742 215.688 127.742C216.836 127.742 217.43 128.266 217.43 129.195V129.938L215.125 130.078C213.102 130.203 211.961 131.086 211.961 132.609C211.961 134.156 213.156 135.141 214.797 135.141ZM215.227 133.789C214.312 133.789 213.648 133.328 213.648 132.539C213.648 131.766 214.18 131.352 215.352 131.273L217.43 131.133V131.867C217.43 132.961 216.492 133.789 215.227 133.789ZM223.383 130.094H223.25V123.188H221.57V135H223.25V131.914L223.992 131.203L226.914 135H228.977L225.242 130.148L228.742 126.516H226.758L223.383 130.094ZM231.391 125C231.977 125 232.453 124.523 232.453 123.945C232.453 123.359 231.977 122.883 231.391 122.883C230.805 122.883 230.328 123.359 230.328 123.945C230.328 124.523 230.805 125 231.391 125ZM230.555 135H232.227V126.516H230.555V135ZM234.695 135H236.375V130.023C236.375 128.656 237.164 127.812 238.406 127.812C239.648 127.812 240.242 128.5 240.242 129.906V135H241.922V129.508C241.922 127.484 240.875 126.352 238.977 126.352C237.695 126.352 236.852 126.922 236.438 127.859H236.312V126.516H234.695V135ZM247.875 138.242C250.281 138.242 251.805 137.016 251.805 135.086V126.516H250.195V127.867H250.062C249.586 126.945 248.562 126.367 247.391 126.367C245.219 126.367 243.859 128.078 243.859 130.648C243.859 133.195 245.203 134.875 247.375 134.875C248.547 134.875 249.484 134.367 250 133.445H250.125V135.078C250.125 136.227 249.297 136.914 247.898 136.914C246.766 136.914 246.055 136.508 245.914 135.867H244.195C244.375 137.297 245.75 138.242 247.875 138.242ZM247.852 133.484C246.406 133.484 245.594 132.383 245.594 130.648C245.594 128.914 246.406 127.805 247.852 127.805C249.281 127.805 250.156 128.914 250.156 130.648C250.156 132.383 249.289 133.484 247.852 133.484ZM260.969 135.141C262.086 135.141 263.016 134.656 263.523 133.797H263.656V135H265.273V129.195C265.273 127.414 264.07 126.352 261.938 126.352C260.008 126.352 258.633 127.281 258.461 128.711H260.086C260.273 128.094 260.922 127.742 261.859 127.742C263.008 127.742 263.602 128.266 263.602 129.195V129.938L261.297 130.078C259.273 130.203 258.133 131.086 258.133 132.609C258.133 134.156 259.328 135.141 260.969 135.141ZM261.398 133.789C260.484 133.789 259.82 133.328 259.82 132.539C259.82 131.766 260.352 131.352 261.523 131.273L263.602 131.133V131.867C263.602 132.961 262.664 133.789 261.398 133.789ZM272.633 124.375V126.539H271.281V127.883H272.633V132.766C272.633 134.398 273.375 135.055 275.242 135.055C275.57 135.055 275.883 135.016 276.156 134.969V133.633C275.922 133.656 275.773 133.672 275.516 133.672C274.68 133.672 274.312 133.273 274.312 132.359V127.883H276.156V126.539H274.312V124.375H272.633ZM281.633 135.164C284.117 135.164 285.641 133.5 285.641 130.758C285.641 128.016 284.109 126.352 281.633 126.352C279.148 126.352 277.617 128.023 277.617 130.758C277.617 133.5 279.141 135.164 281.633 135.164ZM281.633 133.734C280.172 133.734 279.352 132.648 279.352 130.758C279.352 128.867 280.172 127.773 281.633 127.773C283.086 127.773 283.914 128.867 283.914 130.758C283.914 132.641 283.086 133.734 281.633 133.734ZM294.836 126.516H293.156V131.492C293.156 132.859 292.414 133.688 291.055 133.688C289.82 133.688 289.266 133.016 289.266 131.609V126.516H287.586V132.023C287.586 134.016 288.633 135.164 290.516 135.164C291.805 135.164 292.672 134.617 293.086 133.656H293.219V135H294.836V126.516ZM297.273 135H298.953V129.93C298.953 128.734 299.852 127.914 301.125 127.914C301.422 127.914 301.922 127.969 302.062 128.008V126.43C301.883 126.391 301.562 126.367 301.312 126.367C300.203 126.367 299.258 126.969 299.016 127.805H298.891V126.516H297.273V135ZM311.648 135.164C314.133 135.164 315.656 133.5 315.656 130.758C315.656 128.016 314.125 126.352 311.648 126.352C309.164 126.352 307.633 128.023 307.633 130.758C307.633 133.5 309.156 135.164 311.648 135.164ZM311.648 133.734C310.188 133.734 309.367 132.648 309.367 130.758C309.367 128.867 310.188 127.773 311.648 127.773C313.102 127.773 313.93 128.867 313.93 130.758C313.93 132.641 313.102 133.734 311.648 133.734ZM318.281 135H319.961V127.883H321.836V126.539H319.938V125.703C319.938 124.844 320.32 124.414 321.258 124.414C321.523 124.414 321.75 124.43 321.906 124.453V123.188C321.617 123.141 321.289 123.109 320.906 123.109C319.141 123.109 318.281 123.938 318.281 125.625V126.539H316.883V127.883H318.281V135ZM328.711 124.375V126.539H327.359V127.883H328.711V132.766C328.711 134.398 329.453 135.055 331.32 135.055C331.648 135.055 331.961 135.016 332.234 134.969V133.633C332 133.656 331.852 133.672 331.594 133.672C330.758 133.672 330.391 133.273 330.391 132.359V127.883H332.234V126.539H330.391V124.375H328.711ZM334.289 135H335.969V130.031C335.969 128.703 336.734 127.82 338.109 127.82C339.297 127.82 339.93 128.516 339.93 129.914V135H341.609V129.516C341.609 127.508 340.492 126.359 338.68 126.359C337.398 126.359 336.5 126.922 336.086 127.867H335.953V123.188H334.289V135ZM349.555 132.727C349.242 133.414 348.547 133.789 347.531 133.789C346.188 133.789 345.32 132.82 345.266 131.281V131.203H351.273V130.625C351.273 127.969 349.844 126.352 347.477 126.352C345.078 126.352 343.555 128.078 343.555 130.773C343.555 133.484 345.047 135.164 347.484 135.164C349.43 135.164 350.805 134.227 351.172 132.727H349.555ZM347.469 127.719C348.711 127.719 349.523 128.617 349.562 129.992H345.266C345.359 128.625 346.227 127.719 347.469 127.719ZM359.594 123.727H357.844V131.117C357.844 133.555 359.586 135.273 362.406 135.273C365.242 135.273 366.977 133.555 366.977 131.117V123.727H365.227V130.977C365.227 132.586 364.203 133.719 362.406 133.719C360.617 133.719 359.594 132.586 359.594 130.977V123.727ZM371.547 135V123.727H369.797V135H371.547Z" fill="#CCCCCC"/>
</svg>
