<svg width="512" height="408" viewBox="0 0 512 408" fill="none" xmlns="http://www.w3.org/2000/svg">
<g filter="url(#filter0_d_1322_191201)">
<rect width="198" height="318" transform="translate(286.683 41)" fill="var(--vscode-editor-background, #1E1E1E)"/>
<rect width="198" height="35" transform="translate(287 41)" fill="var(--vscode-editorGroupHeader-tabsBackground, #252526)"/>
<rect width="103" height="35" transform="translate(287 41)" fill="var(--vscode-editor-background, #1E1E1E)"/>
<rect x="299" y="55" width="79" height="7" rx="3.5" fill="var(--vscode-foreground, white)" fill-opacity="0.25"/>
<rect x="329.683" y="94" width="55" height="7" rx="3.5" fill="var(--vscode-foreground, white)" fill-opacity="0.25"/>
<rect x="329.683" y="113" width="55" height="7" rx="3.5" fill="var(--vscode-foreground, white)" fill-opacity="0.25"/>
<rect x="329.683" y="170" width="72" height="7" rx="3.5" fill="var(--vscode-foreground, white)" fill-opacity="0.25"/>
<rect x="407.683" y="170" width="26" height="7" rx="3.5" fill="var(--vscode-foreground, white)" fill-opacity="0.25"/>
<rect x="329.683" y="290" width="72" height="7" rx="3.5" fill="var(--vscode-foreground, white)" fill-opacity="0.25"/>
<rect x="407.683" y="290" width="26" height="7" rx="3.5" fill="var(--vscode-foreground, white)" fill-opacity="0.25"/>
<rect x="346.683" y="189" width="30" height="7" rx="3.5" fill="var(--vscode-foreground, white)" fill-opacity="0.25"/>
<rect x="356.683" y="208" width="30" height="7" rx="3.5" fill="var(--vscode-foreground, white)" fill-opacity="0.25"/>
<rect x="392.683" y="208" width="41" height="7" rx="3.5" fill="var(--vscode-foreground, white)" fill-opacity="0.25"/>
<rect x="346.683" y="227" width="30" height="7" rx="3.5" fill="var(--vscode-foreground, white)" fill-opacity="0.25"/>
<rect x="337.683" y="246" width="31" height="7" rx="3.5" fill="var(--vscode-foreground, white)" fill-opacity="0.25"/>
<rect x="390.683" y="94" width="52" height="7" rx="3.5" fill="var(--vscode-foreground, white)" fill-opacity="0.25"/>
<rect x="390.683" y="113" width="74" height="7" rx="3.5" fill="var(--vscode-foreground, white)" fill-opacity="0.25"/>
<rect x="383.683" y="189" width="59" height="7" rx="3.5" fill="var(--vscode-foreground, white)" fill-opacity="0.25"/>
</g>
<g filter="url(#filter1_d_1322_191201)">
<rect x="26.6829" y="29" width="278" height="342" fill="var(--vscode-editorGroupHeader-tabsBackground, #292929)"/>
<path d="M43.0477 55.9788C43.0477 57.0555 43.8441 57.7629 45.0053 57.7629C46.2421 57.7629 46.9895 57.0288 46.9895 55.7519V51.1872H45.9929V55.7475C45.9929 56.4816 45.6326 56.8731 44.9964 56.8731C44.4269 56.8731 44.0398 56.5127 44.0265 55.9788H43.0477ZM52.6087 57.6072H53.6675L51.3496 51.1872H50.2774L47.9594 57.6072H48.9827L49.5744 55.8721H52.0214L52.6087 57.6072ZM50.7623 52.3217H50.8379L51.7678 55.0712H49.828L50.7623 52.3217ZM57.1066 57.6072L59.389 51.1872H58.3301L56.6083 56.4148H56.5327L54.802 51.1872H53.7165L56.0122 57.6072H57.1066ZM64.0872 57.6072H65.146L62.8281 51.1872H61.7559L59.4379 57.6072H60.4612L61.0529 55.8721H63.4999L64.0872 57.6072ZM62.2408 52.3217H62.3165L63.2463 55.0712H61.3065L62.2408 52.3217ZM68.7587 51.1872V57.6072H69.7552V55.4138H71.2412C72.5003 55.4138 73.3901 54.5507 73.3901 53.3139C73.3901 52.0503 72.527 51.1872 71.2724 51.1872H68.7587ZM69.7552 52.0281H71.0099C71.8863 52.0281 72.3713 52.4819 72.3713 53.3139C72.3713 54.1191 71.8685 54.5774 71.0099 54.5774H69.7552V52.0281ZM75.6725 55.138H77.0784L78.3864 57.6072H79.5387L78.0972 54.9822C78.8802 54.7198 79.3429 54.0168 79.3429 53.1492C79.3429 51.9525 78.5109 51.1872 77.2163 51.1872H74.6759V57.6072H75.6725V55.138ZM75.6725 52.0236H77.0784C77.848 52.0236 78.3196 52.4552 78.3196 53.1715C78.3196 53.9056 77.8747 54.3193 77.1051 54.3193H75.6725V52.0236ZM83.4983 51.0315C81.6564 51.0315 80.4997 52.3262 80.4997 54.395C80.4997 56.4593 81.6297 57.7629 83.4983 57.7629C85.3536 57.7629 86.4925 56.4549 86.4925 54.395C86.4925 52.3306 85.3447 51.0315 83.4983 51.0315ZM83.4983 51.9124C84.7129 51.9124 85.4737 52.8734 85.4737 54.395C85.4737 55.9032 84.7174 56.882 83.4983 56.882C82.2615 56.882 81.5185 55.9032 81.5185 54.395C81.5185 52.8734 82.2837 51.9124 83.4983 51.9124ZM87.4046 55.9788C87.4046 57.0555 88.2009 57.7629 89.3621 57.7629C90.599 57.7629 91.3464 57.0288 91.3464 55.7519V51.1872H90.3498V55.7475C90.3498 56.4816 89.9895 56.8731 89.3532 56.8731C88.7838 56.8731 88.3967 56.5127 88.3834 55.9788H87.4046ZM97.0278 56.7485H93.9491V54.7509H96.8632V53.9234H93.9491V52.0459H97.0278V51.1872H92.9525V57.6072H97.0278V56.7485ZM101.103 57.7629C102.536 57.7629 103.59 56.9398 103.768 55.6896H102.776C102.598 56.4193 101.953 56.8775 101.103 56.8775C99.9464 56.8775 99.2257 55.9254 99.2257 54.3994C99.2257 52.8734 99.9464 51.9169 101.099 51.9169C101.944 51.9169 102.589 52.4241 102.776 53.2204H103.768C103.608 51.9347 102.513 51.0315 101.099 51.0315C99.3146 51.0315 98.2068 52.3217 98.2068 54.3994C98.2068 56.4727 99.3191 57.7629 101.103 57.7629ZM107.51 57.6072V52.0459H109.525V51.1872H104.493V52.0459H106.513V57.6072H107.51ZM110.446 55.8943C110.517 57.0333 111.474 57.7629 112.898 57.7629C114.419 57.7629 115.371 56.9977 115.371 55.7831C115.371 54.8221 114.828 54.2926 113.512 53.9768L112.804 53.8033C111.968 53.5986 111.63 53.3317 111.63 52.8645C111.63 52.2639 112.155 51.8768 112.942 51.8768C113.689 51.8768 114.206 52.2505 114.299 52.8601H115.269C115.211 51.7878 114.259 51.0315 112.955 51.0315C111.554 51.0315 110.62 51.7878 110.62 52.9179C110.62 53.8522 111.149 54.4039 112.31 54.6842L113.138 54.8844C113.988 55.089 114.361 55.4005 114.361 55.9032C114.361 56.4905 113.774 56.9131 112.973 56.9131C112.115 56.9131 111.518 56.5172 111.434 55.8943H110.446Z" fill="var(--vscode-foreground, #CCCCCC)"/>
<path d="M219.893 53.3745V54.0847H215.669V58.2714H214.959V54.0847H210.772V53.3745H214.959V49.1878H215.669V53.3745H219.893Z" fill="var(--vscode-foreground, #CCCCCC)"/>
<path d="M237.444 53.3745L235.799 51.6924L236.285 51.2064L238.789 53.7483L236.285 56.2528L235.799 55.7669L237.444 54.0847H230.379V53.3745H237.444ZM228.996 51.2812H229.706V56.1781H228.996V51.2812Z" fill="var(--vscode-foreground, #CCCCCC)"/>
<path d="M249.798 50.5709H247.929V49.8607H250.359L250.733 50.2345V52.6643H250.022V51.2812C249.375 51.7547 248.938 52.3901 248.714 53.1876C248.515 53.9601 248.577 54.7202 248.901 55.4678C249.225 56.2155 249.736 56.7886 250.434 57.1874C251.156 57.5612 251.916 57.6858 252.714 57.5612C253.511 57.4117 254.172 57.0378 254.695 56.4397C255.243 55.8416 255.542 55.1439 255.592 54.3464C255.667 53.524 255.48 52.7889 255.032 52.1409C254.583 51.4681 253.972 51.007 253.2 50.7578L253.387 50.085C254.01 50.2843 254.546 50.6083 254.994 51.0569C255.468 51.4805 255.817 51.9914 256.041 52.5895C256.265 53.1876 256.352 53.8106 256.302 54.4586C256.253 55.0816 256.066 55.6672 255.742 56.2155C255.418 56.7637 254.982 57.2247 254.433 57.5986C253.91 57.9474 253.324 58.1717 252.677 58.2714C252.054 58.3462 251.431 58.2839 250.807 58.0845C250.209 57.8851 249.674 57.5736 249.2 57.15C248.752 56.7014 248.415 56.1781 248.191 55.58C247.967 54.9819 247.879 54.3713 247.929 53.7483C247.979 53.1004 248.166 52.5023 248.49 51.954C248.814 51.4058 249.25 50.9447 249.798 50.5709Z" fill="var(--vscode-foreground, #CCCCCC)"/>
<path d="M271.049 54.795H267.536V55.4678H271.049V54.795ZM268.246 50.5709L268.956 49.8607H273.853L274.563 50.5709V55.4678L273.853 56.1781H272.432V57.5986L271.76 58.2714H266.825L266.152 57.5986V52.6643L266.825 51.9914H268.246V50.5709ZM268.956 51.9914H271.76L272.432 52.6643V55.4678H273.853V50.5709H268.956V51.9914ZM271.76 52.6643H266.825V57.5986H271.76V52.6643Z" fill="var(--vscode-foreground, #CCCCCC)"/>
<path d="M285.759 54.0847C285.759 54.2841 285.684 54.4586 285.534 54.6081C285.41 54.7327 285.248 54.795 285.049 54.795C284.849 54.795 284.687 54.7327 284.563 54.6081C284.438 54.4586 284.376 54.2841 284.376 54.0847C284.376 53.8854 284.438 53.7234 284.563 53.5988C284.687 53.4493 284.849 53.3745 285.049 53.3745C285.248 53.3745 285.41 53.4493 285.534 53.5988C285.684 53.7234 285.759 53.8854 285.759 54.0847ZM289.273 54.0847C289.273 54.2841 289.198 54.4586 289.048 54.6081C288.924 54.7327 288.762 54.795 288.562 54.795C288.363 54.795 288.189 54.7327 288.039 54.6081C287.914 54.4586 287.852 54.2841 287.852 54.0847C287.852 53.8854 287.914 53.7234 288.039 53.5988C288.189 53.4493 288.363 53.3745 288.562 53.3745C288.762 53.3745 288.924 53.4493 289.048 53.5988C289.198 53.7234 289.273 53.8854 289.273 54.0847ZM292.786 54.0847C292.786 54.2841 292.712 54.4586 292.562 54.6081C292.438 54.7327 292.276 54.795 292.076 54.795C291.877 54.795 291.702 54.7327 291.553 54.6081C291.428 54.4586 291.366 54.2841 291.366 54.0847C291.366 53.8854 291.428 53.7234 291.553 53.5988C291.702 53.4493 291.877 53.3745 292.076 53.3745C292.276 53.3745 292.438 53.4493 292.562 53.5988C292.712 53.7234 292.786 53.8854 292.786 54.0847Z" fill="var(--vscode-foreground, #CCCCCC)"/>
<rect width="278" height="24" transform="translate(26.6829 68)" fill="var(--vscode-list-activeSelectionBackground, #094771)"/>
<path d="M48.6829 82.08L53.0029 77.7067L53.6429 78.3467L48.9495 82.9867H48.3629L43.6695 78.3467L44.3095 77.7067L48.6829 82.08Z" fill="var(--vscode-list-activeSelectionForeground, white)"/>
<path d="M65.9895 73.8867H77.3762L77.7962 74.3067V85.6933L77.3762 86.1133H65.9895L65.5695 85.6933V74.3067L65.9895 73.8867ZM66.4562 85.2267H76.9562V74.7267H66.4562V85.2267ZM67.2962 75.6133H69.0695V84.3867H67.2962V75.6133ZM72.5695 75.6133H70.7962V80.8867H72.5695V75.6133ZM74.2962 75.6133H76.0695V82.6133H74.2962V75.6133Z" fill="var(--vscode-list-activeSelectionForeground, white)"/>
<path d="M85.6731 84H87.0378V79.7661C87.0378 78.8647 87.6663 78.1602 88.4978 78.1602C89.3103 78.1602 89.8308 78.6489 89.8308 79.436V84H91.1702V79.6392C91.1702 78.8076 91.7478 78.1602 92.6301 78.1602C93.5251 78.1602 93.9695 78.6235 93.9695 79.5757V84H95.3342V79.2456C95.3342 77.811 94.5217 76.9731 93.1252 76.9731C92.1667 76.9731 91.3733 77.4619 91.0242 78.2046H90.9163C90.6116 77.4619 89.9578 76.9731 89.012 76.9731C88.0916 76.9731 87.3933 77.4302 87.0886 78.2046H86.9871V77.1064H85.6731V84ZM97.7083 86.501C99.1174 86.501 99.7712 85.9741 100.362 84.3174L102.939 77.1064H101.491L99.7649 82.6289H99.657L97.9241 77.1064H96.4387L98.9397 84.019L98.8381 84.3745C98.6033 85.1045 98.2351 85.3774 97.5876 85.3774C97.4607 85.3774 97.2512 85.3711 97.1433 85.3521V86.4692C97.2703 86.4883 97.594 86.501 97.7083 86.501ZM106.005 84.1143C106.912 84.1143 107.668 83.7207 108.08 83.0225H108.188V84H109.502V79.2837C109.502 77.8364 108.525 76.9731 106.792 76.9731C105.224 76.9731 104.107 77.7285 103.967 78.8901H105.287C105.44 78.3887 105.967 78.103 106.728 78.103C107.661 78.103 108.144 78.5283 108.144 79.2837V79.8867L106.271 80.001C104.627 80.1025 103.7 80.8198 103.7 82.0576C103.7 83.3145 104.672 84.1143 106.005 84.1143ZM106.354 83.0161C105.611 83.0161 105.072 82.6416 105.072 82.0005C105.072 81.3721 105.503 81.0356 106.455 80.9722L108.144 80.8579V81.4546C108.144 82.3433 107.382 83.0161 106.354 83.0161ZM115.031 76.9858C114.092 76.9858 113.279 77.4619 112.86 78.249H112.759V77.1064H111.445V86.2979H112.809V82.959H112.917C113.279 83.689 114.06 84.1143 115.044 84.1143C116.789 84.1143 117.9 82.7305 117.9 80.5532C117.9 78.3633 116.789 76.9858 115.031 76.9858ZM114.644 82.9463C113.501 82.9463 112.784 82.0259 112.784 80.5532C112.784 79.0742 113.501 78.1538 114.65 78.1538C115.805 78.1538 116.497 79.0552 116.497 80.5532C116.497 82.0513 115.805 82.9463 114.644 82.9463ZM123.131 76.9858C122.191 76.9858 121.379 77.4619 120.96 78.249H120.858V77.1064H119.544V86.2979H120.909V82.959H121.017C121.379 83.689 122.159 84.1143 123.143 84.1143C124.889 84.1143 126 82.7305 126 80.5532C126 78.3633 124.889 76.9858 123.131 76.9858ZM122.743 82.9463C121.601 82.9463 120.884 82.0259 120.884 80.5532C120.884 79.0742 121.601 78.1538 122.75 78.1538C123.905 78.1538 124.597 79.0552 124.597 80.5532C124.597 82.0513 123.905 82.9463 122.743 82.9463Z" fill="var(--vscode-list-activeSelectionForeground, white)"/>
<path d="M278.974 79.3745V80.0847H274.75V84.2714H274.039V80.0847H269.853V79.3745H274.039V75.1878H274.75V79.3745H278.974Z" fill="var(--vscode-foreground, #CCCCCC)"/>
<path d="M290.019 75.8607L289.459 76.1597V84.5705L290.019 84.8695L296.337 80.6828V80.0847L290.019 75.8607ZM290.169 83.935V76.8326L295.514 80.3838L290.169 83.935Z" fill="var(--vscode-foreground, #CCCCCC)"/>
<path d="M60.6829 106.08L65.0029 101.707L65.6429 102.347L60.9495 106.987H60.3629L55.6695 102.347L56.3095 101.707L60.6829 106.08Z" fill="var(--vscode-foreground, #808080)"/>
<path d="M78.4562 106.613H79.2962V103.113H78.4562V106.613ZM79.2962 102.227V101.807L79.7629 101.387H83.6362L84.0095 101.573L84.3829 102.227H89.3762L89.7962 102.693V109.693L89.3762 110.113H79.7629L79.2962 109.693V107.5H77.9895L77.5695 107.08V99.1933L77.9895 98.7267H81.8629L82.2362 98.96L82.6095 99.6133H87.6029L88.0695 100.08V102.227H87.1829V100.5H82.3762L82.0029 100.267L81.6295 99.6133H78.4562V102.227H79.2962ZM83.7295 102.927L83.3562 102.227H80.1829V104.887H82.9362L83.3095 104.233L83.6829 104H88.9562V103.113H84.1029L83.7295 102.927ZM83.2162 105.727H80.1829V109.227H88.9562V104.887H83.9629L83.5895 105.54L83.2162 105.727Z" fill="var(--vscode-foreground, #A0A0A0)"/>
<path d="M97.5144 103.036C97.5144 104.058 98.1238 104.642 99.4377 104.947L100.644 105.232C101.336 105.397 101.659 105.677 101.659 106.108C101.659 106.673 101.056 107.067 100.206 107.067C99.3806 107.067 98.8728 106.73 98.7014 106.191H97.3367C97.4573 107.391 98.53 108.133 100.174 108.133C101.824 108.133 103.037 107.264 103.037 105.981C103.037 104.979 102.421 104.414 101.107 104.109L99.9583 103.842C99.2092 103.665 98.8601 103.398 98.8601 102.973C98.8601 102.414 99.4377 102.04 100.199 102.04C100.974 102.04 101.469 102.376 101.596 102.89H102.904C102.77 101.697 101.755 100.973 100.199 100.973C98.6379 100.973 97.5144 101.836 97.5144 103.036ZM104.681 108H106.046V103.88C106.046 102.909 106.776 102.243 107.81 102.243C108.052 102.243 108.458 102.287 108.572 102.319V101.037C108.426 101.005 108.166 100.986 107.963 100.986C107.061 100.986 106.293 101.475 106.096 102.154H105.995V101.106H104.681V108ZM115.561 103.322C115.383 101.982 114.336 100.973 112.603 100.973C110.591 100.973 109.365 102.338 109.365 104.528C109.365 106.762 110.597 108.133 112.609 108.133C114.317 108.133 115.383 107.175 115.561 105.816H114.234C114.056 106.565 113.466 106.972 112.603 106.972C111.467 106.972 110.762 106.051 110.762 104.528C110.762 103.036 111.46 102.135 112.603 102.135C113.517 102.135 114.075 102.649 114.234 103.322H115.561ZM117.376 109.955L120.671 98.4023H119.465L116.177 109.955H117.376ZM121.705 108H123.07V103.766C123.07 102.865 123.698 102.16 124.53 102.16C125.343 102.16 125.863 102.649 125.863 103.436V108H127.202V103.639C127.202 102.808 127.78 102.16 128.662 102.16C129.557 102.16 130.002 102.624 130.002 103.576V108H131.366V103.246C131.366 101.811 130.554 100.973 129.157 100.973C128.199 100.973 127.406 101.462 127.056 102.205H126.948C126.644 101.462 125.99 100.973 125.044 100.973C124.124 100.973 123.426 101.43 123.121 102.205H123.019V101.106H121.705V108ZM135.194 108.114C136.102 108.114 136.857 107.721 137.27 107.022H137.378V108H138.692V103.284C138.692 101.836 137.714 100.973 135.981 100.973C134.413 100.973 133.296 101.729 133.156 102.89H134.477C134.629 102.389 135.156 102.103 135.918 102.103C136.851 102.103 137.333 102.528 137.333 103.284V103.887L135.461 104.001C133.817 104.103 132.89 104.82 132.89 106.058C132.89 107.314 133.861 108.114 135.194 108.114ZM135.543 107.016C134.801 107.016 134.261 106.642 134.261 106C134.261 105.372 134.693 105.036 135.645 104.972L137.333 104.858V105.455C137.333 106.343 136.572 107.016 135.543 107.016ZM141.339 99.875C141.815 99.875 142.202 99.4878 142.202 99.0181C142.202 98.542 141.815 98.1548 141.339 98.1548C140.863 98.1548 140.475 98.542 140.475 99.0181C140.475 99.4878 140.863 99.875 141.339 99.875ZM140.659 108H142.018V101.106H140.659V108ZM144.024 108H145.388V103.957C145.388 102.846 146.03 102.16 147.039 102.16C148.048 102.16 148.531 102.719 148.531 103.861V108H149.895V103.538C149.895 101.894 149.045 100.973 147.502 100.973C146.461 100.973 145.776 101.437 145.439 102.198H145.338V101.106H144.024V108ZM152.098 109.955L155.392 98.4023H154.186L150.898 109.955H152.098ZM157.144 99.875C157.614 99.875 158.008 99.4878 158.008 99.0181C158.008 98.542 157.614 98.1548 157.144 98.1548C156.668 98.1548 156.281 98.542 156.281 99.0181C156.281 99.4878 156.668 99.875 157.144 99.875ZM157.811 101.106H156.452V108.292C156.452 108.984 156.198 109.263 155.469 109.263C155.449 109.263 155.297 109.263 155.278 109.263V110.355C155.31 110.355 155.532 110.361 155.583 110.361C157.081 110.361 157.811 109.714 157.811 108.298V101.106ZM161.727 108.114C162.635 108.114 163.39 107.721 163.803 107.022H163.911V108H165.225V103.284C165.225 101.836 164.247 100.973 162.514 100.973C160.947 100.973 159.829 101.729 159.69 102.89H161.01C161.162 102.389 161.689 102.103 162.451 102.103C163.384 102.103 163.866 102.528 163.866 103.284V103.887L161.994 104.001C160.35 104.103 159.423 104.82 159.423 106.058C159.423 107.314 160.394 108.114 161.727 108.114ZM162.076 107.016C161.334 107.016 160.794 106.642 160.794 106C160.794 105.372 161.226 105.036 162.178 104.972L163.866 104.858V105.455C163.866 106.343 163.105 107.016 162.076 107.016ZM172.791 101.106H171.344L169.63 106.604H169.522L167.802 101.106H166.342L168.837 108H170.303L172.791 101.106ZM175.844 108.114C176.752 108.114 177.508 107.721 177.92 107.022H178.028V108H179.342V103.284C179.342 101.836 178.365 100.973 176.632 100.973C175.064 100.973 173.947 101.729 173.807 102.89H175.127C175.28 102.389 175.806 102.103 176.568 102.103C177.501 102.103 177.984 102.528 177.984 103.284V103.887L176.111 104.001C174.467 104.103 173.54 104.82 173.54 106.058C173.54 107.314 174.511 108.114 175.844 108.114ZM176.194 107.016C175.451 107.016 174.911 106.642 174.911 106C174.911 105.372 175.343 105.036 176.295 104.972L177.984 104.858V105.455C177.984 106.343 177.222 107.016 176.194 107.016Z" fill="var(--vscode-foreground, #A0A0A0)"/>
<path d="M74.7629 128L70.3895 123.68L71.0295 123.04L75.6695 127.733V128.32L71.0295 133.013L70.3895 132.373L74.7629 128Z" fill="var(--vscode-foreground, #808080)"/>
<path d="M93.9562 123.613V122.727H93.8629C93.5829 122.727 93.3029 122.789 93.0229 122.913C92.774 123.007 92.5562 123.162 92.3695 123.38C92.1829 123.567 92.0429 123.784 91.9495 124.033C91.8562 124.282 91.794 124.531 91.7629 124.78C91.7318 125.029 91.7318 125.278 91.7629 125.527V126.273C91.7629 126.46 91.7318 126.631 91.6695 126.787C91.5451 127.098 91.3273 127.331 91.0162 127.487C90.8606 127.549 90.6895 127.58 90.5029 127.58H90.4562V128.42H90.5029C90.6895 128.42 90.8606 128.451 91.0162 128.513V128.56C91.1718 128.622 91.2962 128.7 91.3895 128.793V128.84C91.514 128.933 91.6073 129.058 91.6695 129.213C91.7318 129.369 91.7629 129.54 91.7629 129.727V130.473C91.7318 130.722 91.7318 130.971 91.7629 131.22V131.267C91.794 131.484 91.8562 131.718 91.9495 131.967C92.0429 132.216 92.1829 132.449 92.3695 132.667C92.5873 132.853 92.8206 132.993 93.0695 133.087C93.3184 133.18 93.5829 133.242 93.8629 133.273H93.9562V132.387H93.8629C93.6762 132.387 93.5051 132.356 93.3495 132.293C93.194 132.231 93.054 132.138 92.9295 132.013C92.8362 131.889 92.7584 131.749 92.6962 131.593C92.634 131.438 92.6029 131.267 92.6029 131.08V129.913C92.6029 129.727 92.5873 129.54 92.5562 129.353C92.5251 129.167 92.4784 128.996 92.4162 128.84C92.2606 128.498 92.0429 128.218 91.7629 128C92.0429 127.782 92.2606 127.502 92.4162 127.16C92.4784 127.004 92.5251 126.833 92.5562 126.647C92.5873 126.46 92.6029 126.273 92.6029 126.087V124.92C92.6029 124.64 92.6651 124.407 92.7895 124.22C92.9451 124.002 93.1318 123.831 93.3495 123.707C93.5051 123.644 93.6762 123.613 93.8629 123.613H93.9562ZM97.4562 132.387V133.227H97.5029C97.7829 133.227 98.0473 133.18 98.2962 133.087C98.5451 132.993 98.7629 132.853 98.9495 132.667C99.1673 132.449 99.3229 132.216 99.4162 131.967C99.5095 131.749 99.5718 131.5 99.6029 131.22C99.634 130.971 99.634 130.722 99.6029 130.473V129.727C99.6029 129.54 99.634 129.369 99.6962 129.213C99.8206 128.902 100.038 128.669 100.35 128.513C100.505 128.451 100.676 128.42 100.863 128.42H100.956V127.58H100.863C100.676 127.58 100.505 127.549 100.35 127.487V127.44C100.194 127.378 100.07 127.3 99.9762 127.207V127.16C99.8518 127.067 99.7584 126.942 99.6962 126.787C99.634 126.631 99.6029 126.46 99.6029 126.273V125.527C99.634 125.278 99.634 125.029 99.6029 124.78V124.733C99.5718 124.516 99.5095 124.282 99.4162 124.033C99.3229 123.784 99.1673 123.567 98.9495 123.38C98.7629 123.162 98.5451 123.007 98.2962 122.913C98.0473 122.789 97.7829 122.742 97.5029 122.773H97.4562V123.613H97.5029C97.6895 123.613 97.8606 123.644 98.0162 123.707C98.1718 123.769 98.2962 123.862 98.3895 123.987C98.514 124.111 98.6073 124.251 98.6695 124.407C98.7318 124.562 98.7629 124.733 98.7629 124.92V126.087C98.7629 126.273 98.7784 126.46 98.8095 126.647C98.8406 126.833 98.8873 127.004 98.9495 127.16C99.1051 127.502 99.3229 127.782 99.6029 128C99.3229 128.218 99.1051 128.498 98.9495 128.84C98.8873 128.996 98.8406 129.167 98.8095 129.353C98.7784 129.54 98.7629 129.727 98.7629 129.913V131.08C98.7629 131.36 98.6851 131.609 98.5295 131.827C98.4051 132.013 98.234 132.169 98.0162 132.293C97.8606 132.356 97.6895 132.387 97.5029 132.387H97.4562Z" fill="var(--vscode-foreground, #A0A0A0)"/>
<path d="M115.526 127.322C115.348 125.982 114.301 124.973 112.568 124.973C110.555 124.973 109.33 126.338 109.33 128.528C109.33 130.762 110.562 132.133 112.574 132.133C114.281 132.133 115.348 131.175 115.526 129.816H114.199C114.021 130.565 113.431 130.972 112.568 130.972C111.431 130.972 110.727 130.051 110.727 128.528C110.727 127.036 111.425 126.135 112.568 126.135C113.482 126.135 114.04 126.649 114.199 127.322H115.526ZM120.007 132.133C122.026 132.133 123.263 130.781 123.263 128.553C123.263 126.325 122.019 124.973 120.007 124.973C117.989 124.973 116.744 126.332 116.744 128.553C116.744 130.781 117.982 132.133 120.007 132.133ZM120.007 130.972C118.82 130.972 118.154 130.089 118.154 128.553C118.154 127.017 118.82 126.128 120.007 126.128C121.188 126.128 121.861 127.017 121.861 128.553C121.861 130.083 121.188 130.972 120.007 130.972ZM124.907 132H126.272V127.766C126.272 126.865 126.901 126.16 127.732 126.16C128.545 126.16 129.065 126.649 129.065 127.436V132H130.405V127.639C130.405 126.808 130.982 126.16 131.865 126.16C132.76 126.16 133.204 126.624 133.204 127.576V132H134.569V127.246C134.569 125.811 133.756 124.973 132.36 124.973C131.401 124.973 130.608 125.462 130.259 126.205H130.151C129.846 125.462 129.192 124.973 128.246 124.973C127.326 124.973 126.628 125.43 126.323 126.205H126.221V125.106H124.907V132ZM137.546 132.095C138.085 132.095 138.479 131.695 138.479 131.181C138.479 130.667 138.085 130.267 137.546 130.267C137.012 130.267 136.613 130.667 136.613 131.181C136.613 131.695 137.012 132.095 137.546 132.095ZM144.865 130.153C144.611 130.711 144.046 131.016 143.22 131.016C142.129 131.016 141.424 130.229 141.38 128.979V128.915H146.261V128.445C146.261 126.287 145.099 124.973 143.176 124.973C141.227 124.973 139.99 126.376 139.99 128.566C139.99 130.769 141.202 132.133 143.182 132.133C144.763 132.133 145.88 131.372 146.178 130.153H144.865ZM143.17 126.084C144.179 126.084 144.839 126.814 144.871 127.931H141.38C141.456 126.82 142.16 126.084 143.17 126.084ZM150.209 129.531L151.72 132.013H153.288L150.984 128.528L153.262 125.119H151.739L150.266 127.582H150.158L148.673 125.119H147.08L149.39 128.579L147.099 132.013H148.597L150.108 129.531H150.209ZM156.589 132.114C157.496 132.114 158.252 131.721 158.664 131.022H158.772V132H160.086V127.284C160.086 125.836 159.109 124.973 157.376 124.973C155.808 124.973 154.691 125.729 154.551 126.89H155.871C156.024 126.389 156.551 126.103 157.312 126.103C158.245 126.103 158.728 126.528 158.728 127.284V127.887L156.855 128.001C155.211 128.103 154.284 128.82 154.284 130.058C154.284 131.314 155.256 132.114 156.589 132.114ZM156.938 131.016C156.195 131.016 155.656 130.642 155.656 130C155.656 129.372 156.087 129.036 157.039 128.972L158.728 128.858V129.455C158.728 130.343 157.966 131.016 156.938 131.016ZM162.029 132H163.393V127.766C163.393 126.865 164.022 126.16 164.853 126.16C165.666 126.16 166.186 126.649 166.186 127.436V132H167.526V127.639C167.526 126.808 168.103 126.16 168.986 126.16C169.881 126.16 170.325 126.624 170.325 127.576V132H171.69V127.246C171.69 125.811 170.877 124.973 169.481 124.973C168.522 124.973 167.729 125.462 167.38 126.205H167.272C166.967 125.462 166.313 124.973 165.367 124.973C164.447 124.973 163.749 125.43 163.444 126.205H163.343V125.106H162.029V132ZM177.193 124.986C176.254 124.986 175.441 125.462 175.022 126.249H174.921V125.106H173.607V134.298H174.971V130.959H175.079C175.441 131.689 176.222 132.114 177.206 132.114C178.951 132.114 180.062 130.73 180.062 128.553C180.062 126.363 178.951 124.986 177.193 124.986ZM176.806 130.946C175.663 130.946 174.946 130.026 174.946 128.553C174.946 127.074 175.663 126.154 176.812 126.154C177.968 126.154 178.659 127.055 178.659 128.553C178.659 130.051 177.968 130.946 176.806 130.946ZM181.77 132H183.135V122.402H181.77V132ZM189.717 130.153C189.463 130.711 188.898 131.016 188.073 131.016C186.981 131.016 186.277 130.229 186.232 128.979V128.915H191.114V128.445C191.114 126.287 189.952 124.973 188.029 124.973C186.08 124.973 184.842 126.376 184.842 128.566C184.842 130.769 186.054 132.133 188.035 132.133C189.615 132.133 190.733 131.372 191.031 130.153H189.717ZM188.022 126.084C189.031 126.084 189.692 126.814 189.723 127.931H186.232C186.308 126.82 187.013 126.084 188.022 126.084Z" fill="var(--vscode-foreground, #A0A0A0)"/>
<path d="M108.623 152.493H109.23L111.563 150.16V149.553L110.396 148.387H109.79L108.203 149.973H103.816V148.853L105.45 147.267V146.613L103.676 144.887H103.07L99.5695 148.387V148.993L101.296 150.767H101.95L102.93 149.74V154.827L103.35 155.247H107.456V155.713L108.576 156.88H109.23L111.563 154.547V153.893L110.396 152.727H109.79L108.156 154.36H103.77V150.86H107.456V151.28L108.623 152.493ZM110.07 149.32L110.63 149.833L108.903 151.607L108.343 151.047L110.07 149.32ZM110.07 153.66L110.63 154.22L108.903 155.993L108.343 155.433L110.07 153.66ZM101.623 149.833L100.503 148.667L103.35 145.82L104.516 146.94L101.623 149.833Z" fill="var(--vscode-foreground, #A0A0A0)"/>
<path d="M125.76 155H127.271L123.964 145.84H122.434L119.127 155H120.587L121.431 152.524H124.923L125.76 155ZM123.126 147.459H123.234L124.561 151.382H121.793L123.126 147.459ZM132.299 147.986C131.359 147.986 130.547 148.462 130.128 149.249H130.026V148.106H128.712V157.298H130.077V153.959H130.185C130.547 154.689 131.327 155.114 132.311 155.114C134.057 155.114 135.168 153.73 135.168 151.553C135.168 149.363 134.057 147.986 132.299 147.986ZM131.911 153.946C130.769 153.946 130.052 153.026 130.052 151.553C130.052 150.074 130.769 149.154 131.918 149.154C133.073 149.154 133.765 150.055 133.765 151.553C133.765 153.051 133.073 153.946 131.911 153.946ZM140.398 147.986C139.459 147.986 138.646 148.462 138.227 149.249H138.126V148.106H136.812V157.298H138.177V153.959H138.284C138.646 154.689 139.427 155.114 140.411 155.114C142.156 155.114 143.267 153.73 143.267 151.553C143.267 149.363 142.156 147.986 140.398 147.986ZM140.011 153.946C138.868 153.946 138.151 153.026 138.151 151.553C138.151 150.074 138.868 149.154 140.017 149.154C141.173 149.154 141.865 150.055 141.865 151.553C141.865 153.051 141.173 153.946 140.011 153.946Z" fill="var(--vscode-foreground, #A0A0A0)"/>
<path d="M62.7629 174L58.3895 169.68L59.0295 169.04L63.6695 173.733V174.32L59.0295 179.013L58.3895 178.373L62.7629 174Z" fill="var(--vscode-foreground, #808080)"/>
<path d="M78.4562 176.613H79.2962V173.113H78.4562V176.613ZM79.2962 172.227V171.807L79.7629 171.387H83.6362L84.0095 171.573L84.3829 172.227H89.3762L89.7962 172.693V179.693L89.3762 180.113H79.7629L79.2962 179.693V177.5H77.9895L77.5695 177.08V169.193L77.9895 168.727H81.8629L82.2362 168.96L82.6095 169.613H87.6029L88.0695 170.08V172.227H87.1829V170.5H82.3762L82.0029 170.267L81.6295 169.613H78.4562V172.227H79.2962ZM83.7295 172.927L83.3562 172.227H80.1829V174.887H82.9362L83.3095 174.233L83.6829 174H88.9562V173.113H84.1029L83.7295 172.927ZM83.2162 175.727H80.1829V179.227H88.9562V174.887H83.9629L83.5895 175.54L83.2162 175.727Z" fill="var(--vscode-foreground, #A0A0A0)"/>
<path d="M97.5144 173.036C97.5144 174.058 98.1238 174.642 99.4377 174.947L100.644 175.232C101.336 175.397 101.659 175.677 101.659 176.108C101.659 176.673 101.056 177.067 100.206 177.067C99.3806 177.067 98.8728 176.73 98.7014 176.191H97.3367C97.4573 177.391 98.53 178.133 100.174 178.133C101.824 178.133 103.037 177.264 103.037 175.981C103.037 174.979 102.421 174.414 101.107 174.109L99.9583 173.842C99.2092 173.665 98.8601 173.398 98.8601 172.973C98.8601 172.414 99.4377 172.04 100.199 172.04C100.974 172.04 101.469 172.376 101.596 172.89H102.904C102.77 171.697 101.755 170.973 100.199 170.973C98.6379 170.973 97.5144 171.836 97.5144 173.036ZM104.681 178H106.046V173.88C106.046 172.909 106.776 172.243 107.81 172.243C108.052 172.243 108.458 172.287 108.572 172.319V171.037C108.426 171.005 108.166 170.986 107.963 170.986C107.061 170.986 106.293 171.475 106.096 172.154H105.995V171.106H104.681V178ZM115.561 173.322C115.383 171.982 114.336 170.973 112.603 170.973C110.591 170.973 109.365 172.338 109.365 174.528C109.365 176.762 110.597 178.133 112.609 178.133C114.317 178.133 115.383 177.175 115.561 175.816H114.234C114.056 176.565 113.466 176.972 112.603 176.972C111.467 176.972 110.762 176.051 110.762 174.528C110.762 173.036 111.46 172.135 112.603 172.135C113.517 172.135 114.075 172.649 114.234 173.322H115.561ZM117.376 179.955L120.671 168.402H119.465L116.177 179.955H117.376ZM122.188 169.367V171.125H121.09V172.217H122.188V176.185C122.188 177.511 122.791 178.044 124.308 178.044C124.574 178.044 124.828 178.013 125.051 177.975V176.889C124.86 176.908 124.74 176.921 124.53 176.921C123.851 176.921 123.552 176.597 123.552 175.854V172.217H125.051V171.125H123.552V169.367H122.188ZM131.113 176.153C130.859 176.711 130.294 177.016 129.469 177.016C128.377 177.016 127.672 176.229 127.628 174.979V174.915H132.509V174.445C132.509 172.287 131.347 170.973 129.424 170.973C127.475 170.973 126.238 172.376 126.238 174.566C126.238 176.769 127.45 178.133 129.43 178.133C131.011 178.133 132.128 177.372 132.427 176.153H131.113ZM129.418 172.084C130.427 172.084 131.087 172.814 131.119 173.931H127.628C127.704 172.82 128.408 172.084 129.418 172.084ZM133.988 173.036C133.988 174.058 134.597 174.642 135.911 174.947L137.117 175.232C137.809 175.397 138.133 175.677 138.133 176.108C138.133 176.673 137.53 177.067 136.679 177.067C135.854 177.067 135.346 176.73 135.175 176.191H133.81C133.931 177.391 135.004 178.133 136.648 178.133C138.298 178.133 139.51 177.264 139.51 175.981C139.51 174.979 138.895 174.414 137.581 174.109L136.432 173.842C135.683 173.665 135.334 173.398 135.334 172.973C135.334 172.414 135.911 172.04 136.673 172.04C137.448 172.04 137.943 172.376 138.07 172.89H139.377C139.244 171.697 138.228 170.973 136.673 170.973C135.112 170.973 133.988 171.836 133.988 173.036ZM141.586 169.367V171.125H140.488V172.217H141.586V176.185C141.586 177.511 142.189 178.044 143.706 178.044C143.973 178.044 144.227 178.013 144.449 177.975V176.889C144.259 176.908 144.138 176.921 143.928 176.921C143.249 176.921 142.951 176.597 142.951 175.854V172.217H144.449V171.125H142.951V169.367H141.586ZM146.309 179.955L149.603 168.402H148.397L145.109 179.955H146.309ZM151.355 169.875C151.825 169.875 152.219 169.488 152.219 169.018C152.219 168.542 151.825 168.155 151.355 168.155C150.879 168.155 150.492 168.542 150.492 169.018C150.492 169.488 150.879 169.875 151.355 169.875ZM152.022 171.106H150.663V178.292C150.663 178.984 150.409 179.263 149.679 179.263C149.66 179.263 149.508 179.263 149.489 179.263V180.355C149.521 180.355 149.743 180.361 149.794 180.361C151.292 180.361 152.022 179.714 152.022 178.298V171.106ZM155.938 178.114C156.846 178.114 157.601 177.721 158.014 177.022H158.122V178H159.436V173.284C159.436 171.836 158.458 170.973 156.725 170.973C155.157 170.973 154.04 171.729 153.901 172.89H155.221C155.373 172.389 155.9 172.103 156.662 172.103C157.595 172.103 158.077 172.528 158.077 173.284V173.887L156.205 174.001C154.561 174.103 153.634 174.82 153.634 176.058C153.634 177.314 154.605 178.114 155.938 178.114ZM156.287 177.016C155.545 177.016 155.005 176.642 155.005 176C155.005 175.372 155.437 175.036 156.389 174.972L158.077 174.858V175.455C158.077 176.343 157.316 177.016 156.287 177.016ZM167.002 171.106H165.555L163.841 176.604H163.733L162.013 171.106H160.553L163.048 178H164.514L167.002 171.106ZM170.055 178.114C170.963 178.114 171.719 177.721 172.131 177.022H172.239V178H173.553V173.284C173.553 171.836 172.575 170.973 170.843 170.973C169.275 170.973 168.157 171.729 168.018 172.89H169.338C169.49 172.389 170.017 172.103 170.779 172.103C171.712 172.103 172.195 172.528 172.195 173.284V173.887L170.322 174.001C168.678 174.103 167.751 174.82 167.751 176.058C167.751 177.314 168.722 178.114 170.055 178.114ZM170.405 177.016C169.662 177.016 169.122 176.642 169.122 176C169.122 175.372 169.554 175.036 170.506 174.972L172.195 174.858V175.455C172.195 176.343 171.433 177.016 170.405 177.016Z" fill="var(--vscode-foreground, #A0A0A0)"/>
<path d="M62.7629 198L58.3895 193.68L59.0295 193.04L63.6695 197.733V198.32L59.0295 203.013L58.3895 202.373L62.7629 198Z" fill="var(--vscode-foreground, #808080)"/>
<path fill-rule="evenodd" clip-rule="evenodd" d="M89.2457 193.714H83.4257L82.6971 192.986L82.3971 192.857H78.1114L77.6829 193.286V196.714V202.714L78.1114 203.143H82.8257V202.286H78.5228V200.991V197.563V197.143H82.3714L82.6714 197.014L83.4085 196.277H88.8171V197.143H89.6829V194.143L89.2457 193.714ZM88.8086 195.429H83.2371L82.9372 195.557L82.2 196.294H78.5314V193.723H82.2086L82.9372 194.451L83.2457 194.58H88.8171L88.8086 195.429ZM84.54 198H83.6829V203.143H84.54V198ZM85.3971 198H86.2543V203.143H85.3971V198ZM87.9204 198.009L87.115 198.302L88.874 203.134L89.6794 202.841L87.9204 198.009Z" fill="var(--vscode-foreground, #A0A0A0)"/>
<path d="M97.2034 199.677C97.2034 201.213 98.3396 202.222 99.9963 202.222C101.761 202.222 102.827 201.175 102.827 199.353V192.84H101.406V199.347C101.406 200.394 100.891 200.953 99.9836 200.953C99.1711 200.953 98.6189 200.438 98.5999 199.677H97.2034ZM106.541 198.477H108.547L110.413 202H112.057L110 198.255C111.117 197.88 111.778 196.877 111.778 195.64C111.778 193.932 110.591 192.84 108.743 192.84H105.119V202H106.541V198.477ZM106.541 194.034H108.547C109.645 194.034 110.318 194.649 110.318 195.671C110.318 196.719 109.683 197.309 108.585 197.309H106.541V194.034ZM119.617 200.775H115.224V197.925H119.382V196.744H115.224V194.065H119.617V192.84H113.802V202H119.617V200.775ZM124.797 199.556C124.898 201.181 126.263 202.222 128.294 202.222C130.465 202.222 131.823 201.13 131.823 199.397C131.823 198.026 131.049 197.271 129.17 196.82L128.161 196.573C126.968 196.281 126.485 195.9 126.485 195.233C126.485 194.376 127.234 193.824 128.358 193.824C129.424 193.824 130.16 194.357 130.294 195.227H131.677C131.595 193.697 130.237 192.618 128.377 192.618C126.377 192.618 125.044 193.697 125.044 195.31C125.044 196.643 125.8 197.43 127.456 197.83L128.637 198.115C129.849 198.407 130.383 198.852 130.383 199.569C130.383 200.407 129.545 201.01 128.402 201.01C127.177 201.01 126.326 200.445 126.206 199.556H124.797ZM134.223 204.501C135.632 204.501 136.286 203.974 136.876 202.317L139.453 195.106H138.006L136.28 200.629H136.172L134.439 195.106H132.953L135.454 202.019L135.353 202.375C135.118 203.104 134.75 203.377 134.102 203.377C133.975 203.377 133.766 203.371 133.658 203.352V204.469C133.785 204.488 134.109 204.501 134.223 204.501ZM140.501 197.036C140.501 198.058 141.11 198.642 142.424 198.947L143.63 199.232C144.322 199.397 144.646 199.677 144.646 200.108C144.646 200.673 144.043 201.067 143.192 201.067C142.367 201.067 141.859 200.73 141.688 200.191H140.323C140.444 201.391 141.516 202.133 143.16 202.133C144.811 202.133 146.023 201.264 146.023 199.981C146.023 198.979 145.407 198.414 144.094 198.109L142.945 197.842C142.196 197.665 141.846 197.398 141.846 196.973C141.846 196.414 142.424 196.04 143.186 196.04C143.96 196.04 144.455 196.376 144.582 196.89H145.89C145.757 195.697 144.741 194.973 143.186 194.973C141.624 194.973 140.501 195.836 140.501 197.036ZM148.099 193.367V195.125H147.001V196.217H148.099V200.185C148.099 201.511 148.702 202.044 150.219 202.044C150.486 202.044 150.74 202.013 150.962 201.975V200.889C150.771 200.908 150.651 200.921 150.441 200.921C149.762 200.921 149.464 200.597 149.464 199.854V196.217H150.962V195.125H149.464V193.367H148.099ZM157.024 200.153C156.77 200.711 156.205 201.016 155.38 201.016C154.288 201.016 153.583 200.229 153.539 198.979V198.915H158.42V198.445C158.42 196.287 157.259 194.973 155.335 194.973C153.386 194.973 152.149 196.376 152.149 198.566C152.149 200.769 153.361 202.133 155.342 202.133C156.922 202.133 158.039 201.372 158.338 200.153H157.024ZM155.329 196.084C156.338 196.084 156.998 196.814 157.03 197.931H153.539C153.615 196.82 154.32 196.084 155.329 196.084ZM160.058 202H161.423V197.766C161.423 196.865 162.051 196.16 162.883 196.16C163.695 196.16 164.216 196.649 164.216 197.436V202H165.555V197.639C165.555 196.808 166.133 196.16 167.015 196.16C167.91 196.16 168.354 196.624 168.354 197.576V202H169.719V197.246C169.719 195.811 168.906 194.973 167.51 194.973C166.552 194.973 165.758 195.462 165.409 196.205H165.301C164.996 195.462 164.343 194.973 163.397 194.973C162.476 194.973 161.778 195.43 161.473 196.205H161.372V195.106H160.058V202ZM181.062 200.762H176.771V192.84H175.349V202H181.062V200.762ZM183.411 193.875C183.887 193.875 184.274 193.488 184.274 193.018C184.274 192.542 183.887 192.155 183.411 192.155C182.935 192.155 182.548 192.542 182.548 193.018C182.548 193.488 182.935 193.875 183.411 193.875ZM182.732 202H184.09V195.106H182.732V202ZM189.759 202.114C191.504 202.114 192.615 200.724 192.615 198.553C192.615 196.363 191.51 194.986 189.759 194.986C188.813 194.986 188 195.449 187.632 196.198H187.524V192.402H186.159V202H187.473V200.908H187.575C187.988 201.67 188.794 202.114 189.759 202.114ZM189.365 196.154C190.52 196.154 191.212 197.062 191.212 198.553C191.212 200.045 190.52 200.946 189.365 200.946C188.216 200.946 187.505 200.032 187.499 198.553C187.505 197.074 188.222 196.154 189.365 196.154ZM194.259 202H195.624V197.88C195.624 196.909 196.354 196.243 197.388 196.243C197.63 196.243 198.036 196.287 198.15 196.319V195.037C198.004 195.005 197.744 194.986 197.541 194.986C196.639 194.986 195.871 195.475 195.675 196.154H195.573V195.106H194.259V202ZM201.324 202.114C202.232 202.114 202.987 201.721 203.4 201.022H203.508V202H204.822V197.284C204.822 195.836 203.844 194.973 202.111 194.973C200.543 194.973 199.426 195.729 199.286 196.89H200.607C200.759 196.389 201.286 196.103 202.048 196.103C202.981 196.103 203.463 196.528 203.463 197.284V197.887L201.591 198.001C199.947 198.103 199.02 198.82 199.02 200.058C199.02 201.314 199.991 202.114 201.324 202.114ZM201.673 201.016C200.93 201.016 200.391 200.642 200.391 200C200.391 199.372 200.823 199.036 201.775 198.972L203.463 198.858V199.455C203.463 200.343 202.701 201.016 201.673 201.016ZM206.764 202H208.129V197.88C208.129 196.909 208.859 196.243 209.893 196.243C210.135 196.243 210.541 196.287 210.655 196.319V195.037C210.509 195.005 210.249 194.986 210.046 194.986C209.144 194.986 208.376 195.475 208.179 196.154H208.078V195.106H206.764V202ZM212.693 204.501C214.102 204.501 214.756 203.974 215.346 202.317L217.923 195.106H216.476L214.749 200.629H214.641L212.908 195.106H211.423L213.924 202.019L213.823 202.375C213.588 203.104 213.219 203.377 212.572 203.377C212.445 203.377 212.236 203.371 212.128 203.352V204.469C212.255 204.488 212.578 204.501 212.693 204.501ZM223.547 192.402V203.955H226.575V202.914H224.874V193.45H226.575V192.402H223.547ZM227.597 199.677C227.597 201.213 228.733 202.222 230.39 202.222C232.155 202.222 233.221 201.175 233.221 199.353V192.84H231.799V199.347C231.799 200.394 231.285 200.953 230.377 200.953C229.565 200.953 229.012 200.438 228.993 199.677H227.597ZM237.226 202.114C238.134 202.114 238.889 201.721 239.302 201.022H239.41V202H240.724V197.284C240.724 195.836 239.746 194.973 238.013 194.973C236.446 194.973 235.328 195.729 235.189 196.89H236.509C236.661 196.389 237.188 196.103 237.95 196.103C238.883 196.103 239.365 196.528 239.365 197.284V197.887L237.493 198.001C235.849 198.103 234.922 198.82 234.922 200.058C234.922 201.314 235.893 202.114 237.226 202.114ZM237.575 201.016C236.833 201.016 236.293 200.642 236.293 200C236.293 199.372 236.725 199.036 237.677 198.972L239.365 198.858V199.455C239.365 200.343 238.604 201.016 237.575 201.016ZM248.29 195.106H246.843L245.129 200.604H245.021L243.301 195.106H241.841L244.336 202H245.802L248.29 195.106ZM251.344 202.114C252.251 202.114 253.007 201.721 253.419 201.022H253.527V202H254.841V197.284C254.841 195.836 253.864 194.973 252.131 194.973C250.563 194.973 249.446 195.729 249.306 196.89H250.626C250.779 196.389 251.305 196.103 252.067 196.103C253 196.103 253.483 196.528 253.483 197.284V197.887L251.61 198.001C249.966 198.103 249.039 198.82 249.039 200.058C249.039 201.314 250.01 202.114 251.344 202.114ZM251.693 201.016C250.95 201.016 250.41 200.642 250.41 200C250.41 199.372 250.842 199.036 251.794 198.972L253.483 198.858V199.455C253.483 200.343 252.721 201.016 251.693 201.016ZM256.51 199.556C256.612 201.181 257.977 202.222 260.008 202.222C262.179 202.222 263.537 201.13 263.537 199.397C263.537 198.026 262.763 197.271 260.884 196.82L259.875 196.573C258.681 196.281 258.199 195.9 258.199 195.233C258.199 194.376 258.948 193.824 260.072 193.824C261.138 193.824 261.874 194.357 262.008 195.227H263.391C263.309 193.697 261.95 192.618 260.091 192.618C258.091 192.618 256.758 193.697 256.758 195.31C256.758 196.643 257.513 197.43 259.17 197.83L260.351 198.115C261.563 198.407 262.096 198.852 262.096 199.569C262.096 200.407 261.259 201.01 260.116 201.01C258.891 201.01 258.04 200.445 257.92 199.556H256.51ZM271.224 200.775H266.832V197.925H270.99V196.744H266.832V194.065H271.224V192.84H265.41V202H271.224V200.775ZM277.312 198.94V197.677H273.148V198.94H277.312ZM281.514 202H282.936V192.84H281.52L279.108 194.554V195.951L281.406 194.307H281.514V202ZM286.332 202.095C286.871 202.095 287.265 201.695 287.265 201.181C287.265 200.667 286.871 200.267 286.332 200.267C285.799 200.267 285.399 200.667 285.399 201.181C285.399 201.695 285.799 202.095 286.332 202.095ZM292.178 202.222C294.216 202.222 295.625 201.124 295.625 199.543C295.625 198.363 294.85 197.436 293.676 197.214V197.106C294.641 196.858 295.25 196.078 295.25 195.081C295.25 193.64 293.974 192.618 292.178 192.618C290.382 192.618 289.106 193.64 289.106 195.081C289.106 196.071 289.728 196.865 290.68 197.106V197.214C289.506 197.449 288.738 198.375 288.738 199.55C288.738 201.13 290.14 202.222 292.178 202.222ZM292.178 196.668C291.181 196.668 290.509 196.084 290.509 195.214C290.509 194.332 291.175 193.742 292.178 193.742C293.181 193.742 293.854 194.332 293.854 195.214C293.854 196.084 293.175 196.668 292.178 196.668ZM292.178 201.092C291.004 201.092 290.191 200.413 290.191 199.436C290.191 198.458 291.004 197.785 292.178 197.785C293.352 197.785 294.165 198.458 294.165 199.436C294.165 200.413 293.352 201.092 292.178 201.092ZM299.992 203.955V192.402H296.958V193.45H298.665V202.914H296.958V203.955H299.992Z" fill="var(--vscode-foreground, #A0A0A0)"/>
<path d="M62.7629 222L58.3895 217.68L59.0295 217.04L63.6695 221.733V222.32L59.0295 227.013L58.3895 226.373L62.7629 222Z" fill="var(--vscode-foreground, #808080)"/>
<rect x="76.6829" y="218.5" width="93" height="7" rx="3.5" fill="var(--vscode-foreground, white)" fill-opacity="0.25"/>
<path d="M62.7629 246L58.3895 241.68L59.0295 241.04L63.6695 245.733V246.32L59.0295 251.013L58.3895 250.373L62.7629 246Z" fill="var(--vscode-foreground, #808080)"/>
<rect x="76.6829" y="242.5" width="63" height="7" rx="3.5" fill="var(--vscode-foreground, white)" fill-opacity="0.25"/>
<rect x="25.6829" y="28" width="280" height="344" stroke="#007ACC" stroke-width="2" stroke-dasharray="6 4"/>
</g>
<path d="M34.6829 56.1156L39.0029 51.7423L39.6429 52.3823L34.9495 57.0223H34.3629L29.6695 52.3823L30.3095 51.7423L34.6829 56.1156Z" fill="var(--vscode-foreground, #808080)"/>
<defs>
<filter id="filter0_d_1322_191201" x="274.683" y="31" width="222.317" height="342" filterUnits="userSpaceOnUse" color-interpolation-filters="sRGB">
<feFlood flood-opacity="0" result="BackgroundImageFix"/>
<feColorMatrix in="SourceAlpha" type="matrix" values="0 0 0 0 0 0 0 0 0 0 0 0 0 0 0 0 0 0 127 0" result="hardAlpha"/>
<feOffset dy="2"/>
<feGaussianBlur stdDeviation="6"/>
<feColorMatrix type="matrix" values="0 0 0 0 0 0 0 0 0 0 0 0 0 0 0 0 0 0 0.6 0"/>
<feBlend mode="normal" in2="BackgroundImageFix" result="effect1_dropShadow_1322_191201"/>
<feBlend mode="normal" in="SourceGraphic" in2="effect1_dropShadow_1322_191201" result="shape"/>
</filter>
<filter id="filter1_d_1322_191201" x="12.6829" y="17" width="306" height="370" filterUnits="userSpaceOnUse" color-interpolation-filters="sRGB">
<feFlood flood-opacity="0" result="BackgroundImageFix"/>
<feColorMatrix in="SourceAlpha" type="matrix" values="0 0 0 0 0 0 0 0 0 0 0 0 0 0 0 0 0 0 127 0" result="hardAlpha"/>
<feOffset dy="2"/>
<feGaussianBlur stdDeviation="6"/>
<feColorMatrix type="matrix" values="0 0 0 0 0 0 0 0 0 0 0 0 0 0 0 0 0 0 0.6 0"/>
<feBlend mode="normal" in2="BackgroundImageFix" result="effect1_dropShadow_1322_191201"/>
<feBlend mode="normal" in="SourceGraphic" in2="effect1_dropShadow_1322_191201" result="shape"/>
</filter>
</defs>
</svg>
